<svg width="244" height="244" viewBox="0 0 244 244" fill="none" xmlns="http://www.w3.org/2000/svg">
<path d="M122 238.454C186.316 238.454 238.454 186.316 238.454 122C238.454 57.6839 186.316 5.54541 122 5.54541C57.6839 5.54541 5.54541 57.6839 5.54541 122C5.54541 186.316 57.6839 238.454 122 238.454Z" stroke="#242424" stroke-width="11.0909"/>
<path d="M149.727 161.705L152.943 158.045L149.727 154.385L121.001 122L149.727 89.6146L152.943 85.9546L149.727 82.2946L132.425 62.8855L128.321 58.2273L124.218 62.8855L74.9741 118.34L71.6469 122L74.9741 125.66L124.218 181.115L128.321 185.773L132.425 181.115L149.727 161.705Z" stroke="#242424" stroke-width="11.0909"/>
</svg>
