<svg width="36" height="36" viewBox="0 0 36 36" fill="none" xmlns="http://www.w3.org/2000/svg">
<path d="M27.6801 12.7179L28.4052 12.2288C30.1478 11.0532 30.1724 9.26396 30.0935 8.53275C29.9894 7.57598 29.6756 6.73081 29.2073 6.00018L29.0351 5.73151L29.3372 5.62863C29.5883 5.54311 29.945 5.41052 30.2166 5.26606C30.3491 5.19552 30.4432 5.13152 30.4957 5.08015C30.4738 5.06611 30.4405 5.05518 30.3869 5.05074C30.2804 5.04189 30.1376 5.06569 29.9793 5.11319C29.8253 5.15943 29.676 5.22206 29.5636 5.27426C29.5079 5.30014 29.4623 5.32296 29.431 5.33911C29.4154 5.34717 29.4033 5.35354 29.3955 5.35777L29.3869 5.36244L29.385 5.36345L29.3849 5.36352L29.3848 5.36356L29.3848 5.36359L29.3847 5.3636L28.9942 5.58062L27.6801 12.7179ZM27.6801 12.7179L28.5542 12.6858C33.657 12.4988 36.0267 15.8104 35.7239 18.226L35.7239 18.2261C35.4296 20.5823 33.051 22.4886 30.5421 22.9596L30.5421 22.9596C28.0389 23.4303 25.1898 22.8844 23.7896 20.6719C22.9751 19.3835 23.01 17.8182 23.7482 16.6706L24.0051 16.2713L23.5305 16.2855C23.1346 16.2973 22.6895 16.2085 22.4045 16.146L22.1126 16.082L22.1011 16.3806C22.0268 18.3125 21.4302 19.7134 20.6064 20.7178C19.7805 21.7248 18.7143 22.3475 17.6819 22.7005L17.6819 22.7005C14.966 23.6296 12.6884 22.9869 11.1587 21.9406L10.6827 21.615L10.7704 22.185C10.9142 23.1186 10.2793 23.8255 9.57036 24.2558L9.57034 24.2558C8.43961 24.9422 6.86288 25.1421 5.5429 24.9516C3.02052 24.5857 0.937915 22.4011 1.40922 19.8141L1.40925 19.814C1.69107 18.2622 2.66056 17.1613 3.92574 16.5471L4.51537 16.2609L3.88488 16.0817C2.19213 15.6008 0.932486 14.1042 0.499094 12.4658C-0.233365 9.69593 0.409439 5.031 5.67065 2.48174C5.92951 2.35772 6.18648 2.24631 6.4434 2.1457L6.83546 1.99217L6.51298 1.72144C6.36886 1.60045 6.20543 1.44468 6.10597 1.29596C5.99936 1.13656 6.02939 1.09109 6.03461 1.08446C6.03531 1.08426 6.03625 1.08402 6.03747 1.08377C6.04901 1.08138 6.07694 1.07968 6.12695 1.09118C6.22942 1.11474 6.36436 1.17912 6.51435 1.27226C6.80961 1.45561 7.09005 1.70362 7.15792 1.76532L7.22944 1.83033H7.32609C7.38134 1.83033 7.42552 1.8138 7.45259 1.80027L7.59752 1.7278L7.59056 1.56592C7.58705 1.48429 7.57596 1.14933 7.62024 0.820875C7.64253 0.655539 7.67703 0.506639 7.72533 0.396382C7.7503 0.339382 7.77401 0.303569 7.79374 0.281197C7.81639 0.324083 7.84243 0.390939 7.86784 0.485665C7.93552 0.737997 7.97256 1.08399 7.99165 1.38312L8.00958 1.66404L8.28642 1.61306C11.893 0.948821 14.8634 2.59174 15.6704 4.95744L15.7935 5.31849L16.0754 5.06146C17.8449 3.44811 20.2016 2.69866 22.4871 2.72424C24.7747 2.74985 26.9647 3.55126 28.4061 5.00497L28.8174 5.41985L28.8335 4.83584C28.8398 4.60688 28.8586 4.34279 28.904 4.1361C28.9143 4.08932 28.9253 4.04869 28.9365 4.01411L27.6801 12.7179ZM28.9979 3.88577C28.9979 3.88582 28.9974 3.88632 28.9965 3.8871C28.9974 3.8861 28.9979 3.88571 28.9979 3.88577ZM30.5279 5.04272C30.528 5.04269 30.5275 5.04379 30.5259 5.04613C30.527 5.04393 30.5278 5.04276 30.5279 5.04272Z" stroke="#242424" stroke-width="0.5"/>
<path d="M25.6143 4.72605L25.6448 4.97418C24.4816 5.11727 23.4165 6.12884 23.3503 7.34509L25.6143 4.72605ZM25.6143 4.72605L25.6448 4.97418C26.4281 4.87783 27.234 5.18185 27.8292 5.71977C28.4241 6.25751 28.7837 7.00567 28.715 7.77416L28.7149 7.77454C28.6094 8.97523 27.4832 9.98122 26.2487 10.0606L26.2486 10.0606M25.6143 4.72605L26.2486 10.0606M26.2486 10.0606C24.7305 10.1586 23.2693 8.83949 23.3503 7.34515L26.2486 10.0606Z" stroke="#242424" stroke-width="0.5"/>
<path d="M27.6801 12.7179L28.4051 12.2288C30.1477 11.0533 30.1723 9.26408 30.0935 8.53283C30.0927 8.526 30.092 8.51918 30.0912 8.51236C29.955 9.10685 29.7009 9.69764 29.3223 10.215C28.5408 11.2828 27.2347 12.0287 25.3769 11.8618L27.6801 12.7179ZM27.6801 12.7179L28.5541 12.6858C33.657 12.4988 36.0267 15.8104 35.7239 18.226L35.7239 18.2261C35.4296 20.5823 33.0509 22.4886 30.5421 22.9596L30.542 22.9596C28.0389 23.4303 25.1898 22.8844 23.7896 20.672C22.9751 19.3836 23.0099 17.8182 23.7481 16.6706L24.005 16.2713L23.5304 16.2855C23.1345 16.2973 22.6894 16.2085 22.4045 16.146L22.1126 16.082L22.1011 16.3806C22.0267 18.3126 21.4302 19.7134 20.6063 20.7178C19.7804 21.7248 18.7143 22.3475 17.6819 22.7005L17.6819 22.7005C14.966 23.6296 12.6883 22.987 11.1586 21.9406L10.6826 21.615L10.7704 22.185C10.9141 23.1186 10.2793 23.8255 9.57031 24.2558L9.57029 24.2558C8.43951 24.9423 6.86269 25.1421 5.54269 24.9515C3.02038 24.5856 0.937869 22.4011 1.40917 19.8141L1.40919 19.814C1.69102 18.2622 2.6605 17.1613 3.92568 16.5471L4.51522 16.2609L3.88485 16.0818C2.88431 15.7974 2.03588 15.158 1.41956 14.3439M27.6801 12.7179L1.41956 14.3439M8.23076 10.4361C9.06462 10.6017 10.3258 10.5122 11.4833 10.0597C12.7905 9.54864 14.0199 8.55151 14.3408 6.86755L14.3408 6.86753C14.6365 5.315 14.3875 4.01565 13.7897 3.02497C13.607 2.72218 13.3927 2.44984 13.1533 2.20909C14.3761 2.83073 15.2672 3.79663 15.662 4.93314C15.9029 6.8726 17.0632 8.42145 18.7996 8.49456L18.7999 8.49458C19.7316 8.53268 20.4029 8.37648 20.9378 8.03579C21.2523 7.8355 21.5092 7.57772 21.7402 7.279C21.7886 7.91535 21.928 8.72279 22.2523 9.48303C22.7453 10.6384 23.6804 11.7097 25.3769 11.8618L8.23076 10.4361ZM8.23076 10.4361C7.99053 11.9406 7.21664 14.1695 4.95685 14.8384L4.95674 14.8385C3.79291 15.1823 2.82801 15.1133 2.0157 14.7147C1.80497 14.6113 1.60671 14.4869 1.41956 14.3439M8.23076 10.4361L1.41956 14.3439" stroke="#242424" stroke-width="0.5"/>
<path d="M30.5421 22.9578L30.5421 22.9578C33.051 22.4868 35.4296 20.5805 35.7239 18.2242C35.8682 17.0684 35.4063 15.7182 34.3277 14.6375C34.5467 15.2343 34.6779 15.8728 34.7077 16.5333C34.849 19.6677 31.955 22.3032 28.9492 22.3032C26.0856 22.3032 23.8949 20.2338 23.3301 17.6119C23.0502 18.594 23.182 19.709 23.7896 20.6701L30.5421 22.9578ZM30.5421 22.9578C28.0389 23.4285 25.1899 22.8825 23.7897 20.6702L30.5421 22.9578Z" stroke="#242424" stroke-width="0.5"/>
<path d="M1.41108 19.8123L1.41119 19.8116C1.45556 19.5646 1.51761 19.3296 1.59555 19.1065C2.4074 21.6756 4.68337 23.6189 7.58703 23.6189C8.7087 23.6189 9.80865 23.284 10.768 22.7127C10.6582 23.3855 10.1389 23.9106 9.57239 24.2538L9.5722 24.2539C8.44147 24.9404 6.86473 25.1403 5.54475 24.9497C3.02238 24.5838 0.939769 22.3993 1.41108 19.8123Z" stroke="#242424" stroke-width="0.5"/>
<path d="M20.6662 14.4938C19.439 14.357 18.5565 13.9358 17.9328 13.3571C17.2739 12.7456 16.9239 11.9771 16.7477 11.2371C16.5716 10.4981 16.5662 9.77774 16.6034 9.24567C16.6191 9.02209 16.6424 8.83023 16.6643 8.68228L16.355 8.70778C16.2455 10.1269 15.9016 11.1646 15.4283 11.9189C14.9297 12.7136 14.2955 13.1807 13.6703 13.4465C13.0484 13.7109 12.4417 13.7738 11.9935 13.7716C11.7687 13.7706 11.5818 13.7532 11.4499 13.7358C11.4469 13.7354 11.444 13.735 11.4411 13.7346C10.7867 15.1214 9.18826 15.8736 7.8079 16.2835C7.07597 16.5008 6.38064 16.6291 5.86905 16.7031C5.61294 16.7402 5.40207 16.7638 5.25468 16.7781C5.25145 16.7784 5.24826 16.7787 5.24509 16.779C5.24428 16.8227 5.24397 16.8722 5.24455 16.9268C5.24697 17.1512 5.26461 17.4581 5.32484 17.7898L5.37733 18.0789L5.73822 18.046L20.6662 14.4938ZM20.6662 14.4938L20.6019 14.9773C20.5124 15.6502 20.3195 16.6853 19.9141 17.6782C19.5071 18.675 18.8995 19.5962 18.001 20.0884L18.0009 20.0885C14.987 21.7416 12.0538 21.1288 10.3851 18.9045L10.2035 18.6624L10.0004 18.8861L10.0003 18.8862L10.0002 18.8863L10.0001 18.8864L10 18.8865L9.99765 18.889L9.98584 18.9015C9.9749 18.9128 9.95788 18.9301 9.93509 18.9523C9.88948 18.9966 9.82098 19.06 9.73204 19.1337C9.55364 19.2815 9.29592 19.468 8.97838 19.6245C8.34571 19.9362 7.48923 20.1239 6.53394 19.6652L6.5332 19.6648C6.12943 19.4726 5.84862 19.1553 5.65441 18.7887L5.49256 18.4831L5.25313 18.7326C5.2036 18.7842 5.15652 18.8343 5.11143 18.8824C5.0314 18.9676 4.95766 19.0462 4.88776 19.1141C4.90977 19.0798 4.93336 19.0444 4.95813 19.0085C5.04624 18.8806 5.14151 18.7565 5.21544 18.6637C5.25224 18.6175 5.28338 18.5795 5.30519 18.5532L5.33038 18.523L5.33683 18.5154L5.33836 18.5136L5.33868 18.5133L5.3387 18.5132M20.6662 14.4938L5.3387 18.5132M5.3387 18.5132L5.33872 18.5132L5.3387 18.5132ZM21.242 14.5249L21.057 14.8701C21.0548 14.8671 21.0526 14.8641 21.0504 14.8611L20.7866 14.5062C20.8209 14.5095 20.8554 14.5125 20.8903 14.5153L20.8983 14.5159L20.9064 14.5161C20.9658 14.517 21.0899 14.5194 21.242 14.5249ZM5.27298 18.0884L5.12603 18.1018L5.12602 18.1018L5.12598 18.1018L5.12596 18.1018L5.12553 18.1018L5.12343 18.102L5.11452 18.1028L5.07937 18.1056C5.0488 18.108 5.00486 18.1111 4.95211 18.1141C4.86958 18.1189 4.767 18.1233 4.66111 18.1244C4.80954 18.0957 4.9616 18.0821 5.07384 18.0844L5.27298 18.0884ZM4.24416 18.2794C4.24347 18.2804 4.24303 18.2809 4.24298 18.2809C4.24293 18.2809 4.24327 18.2804 4.24416 18.2794ZM21.7484 14.5531C21.6676 14.5555 21.576 14.5505 21.4737 14.5352C21.5543 14.5394 21.6372 14.5445 21.7187 14.5508C21.7286 14.5515 21.7386 14.5523 21.7484 14.5531ZM22.184 14.42C22.1851 14.4183 22.1858 14.4174 22.1859 14.4173C22.186 14.4173 22.1855 14.4182 22.184 14.42Z" stroke="#242424" stroke-width="0.5"/>
<path d="M9.45916 30.8636C9.50089 30.8351 9.54727 30.8038 9.59821 30.7701C9.87463 30.587 10.2853 30.331 10.8181 30.0422C11.884 29.4644 13.4375 28.7564 15.3829 28.2385C19.1976 27.223 24.524 26.9365 30.6514 29.8058C30.5998 29.8471 30.5416 29.893 30.4771 29.943C30.1674 30.1829 29.7111 30.5176 29.1276 30.8937C27.9601 31.6464 26.2872 32.5628 24.2644 33.2191C20.2926 34.508 14.9737 34.796 9.45916 30.8636Z" stroke="#242424" stroke-width="0.5"/>
<path d="M15.1952 17.9252C15.6593 18.3865 15.9931 19.0936 16.2162 20.75H14.27V19.6241V19.4606L14.1205 19.3952L14.1205 19.3952L14.1203 19.3952L14.1201 19.3951L14.1196 19.3948L14.1143 19.3924L14.0901 19.381C14.068 19.3705 14.0345 19.3539 13.9911 19.331C13.9044 19.2852 13.7783 19.2142 13.6259 19.1154C13.3207 18.9176 12.9113 18.6096 12.4988 18.1708C11.6765 17.2961 10.8378 15.8983 10.7916 13.7994L10.7863 13.558L10.5456 13.5549L10.5455 13.5549L10.5455 13.5549L10.545 13.5549L10.5442 13.5549L10.5349 13.5545C10.5258 13.5541 10.5112 13.5533 10.4916 13.5517C10.4524 13.5484 10.3937 13.542 10.32 13.5295C10.1724 13.5044 9.96691 13.4551 9.74003 13.3587C9.325 13.1823 8.8367 12.8481 8.49329 12.2056L8.61747 12.1056C8.72176 12.2116 8.8727 12.3525 9.06127 12.4937C9.43527 12.7738 9.98215 13.0737 10.6207 13.0737H10.8396L10.8685 12.8567L10.8685 12.8567L10.8685 12.8567L10.8685 12.8566L10.8686 12.8559L10.869 12.8529L10.8707 12.8404L10.8778 12.7909C10.8842 12.7476 10.8938 12.6845 10.9067 12.6063C10.9324 12.4497 10.9709 12.2333 11.0222 11.9939C11.1123 11.5736 11.2371 11.106 11.3916 10.7645L11.6038 10.7965C11.5815 10.9049 11.5554 11.0427 11.5296 11.2038C11.4635 11.6155 11.3985 12.1829 11.404 12.8032C11.415 14.0275 11.7026 15.5379 12.9018 16.4019C13.3598 16.7321 13.7659 16.9702 14.1157 17.1753C14.1644 17.2038 14.212 17.2317 14.2585 17.2592C14.6432 17.4861 14.9439 17.6755 15.1952 17.9252Z" stroke="#242424" stroke-width="0.5"/>
<path d="M27.7191 31.0026C27.6974 30.8826 27.6501 30.7218 27.5491 30.5416C27.3262 30.1436 26.8217 29.6171 25.6619 29.2403L25.5677 29.2096L25.52 29.1228C24.8294 27.8643 24.7853 26.6614 25.1492 25.5916C25.5103 24.5303 26.2663 23.6173 27.1499 22.9075L27.7191 31.0026ZM27.7191 31.0026L24.9307 31.0531C24.1475 30.3838 23.4209 29.6996 22.9243 29.0564C22.3998 28.3772 22.1913 27.8199 22.3167 27.4001L22.3167 27.4C22.8353 25.6612 24.2322 24.1026 25.5284 22.9661C26.1728 22.4012 26.7844 21.9473 27.2347 21.6349C27.4598 21.4788 27.6443 21.3581 27.772 21.2769C27.8359 21.2362 27.8855 21.2054 27.9189 21.1849L27.9567 21.162L27.9659 21.1564L27.9681 21.1552L27.9685 21.1549L27.9685 21.1549L27.9686 21.1549L28.3964 20.9017L27.938 20.7092C27.4983 20.5246 27.1753 20.1168 26.9568 19.7233C26.8496 19.5302 26.7724 19.3491 26.722 19.2164C26.7212 19.2144 26.7205 19.2125 26.7197 19.2105L26.8932 19.1334C26.9028 19.151 26.9131 19.1695 26.924 19.1886C27.0149 19.3485 27.1497 19.5607 27.3224 19.7613C27.6538 20.1461 28.211 20.5789 28.8985 20.3047L28.8986 20.3046C29.7379 19.9693 30.0644 19.1315 30.1935 18.5714C30.2154 18.5666 30.2371 18.5617 30.2586 18.557C30.3471 18.5372 30.4324 18.5182 30.5172 18.5007C30.2019 20.4022 28.8308 21.5569 27.15 22.9075L27.7191 31.0026Z" stroke="#242424" stroke-width="0.5"/>
<path d="M26.441 29.6222C26.4235 29.5923 26.4062 29.5631 26.3891 29.5346C27.0465 29.8631 27.3781 30.2394 27.5474 30.5416C27.6504 30.7255 27.6975 30.8891 27.7187 31.0099L27.073 31.04C26.9327 30.5291 26.6713 30.0154 26.441 29.6222Z" stroke="#242424" stroke-width="0.5"/>
<path d="M18.7385 9.40782C18.7203 9.4499 18.6996 9.50068 18.6783 9.55911C18.6086 9.7502 18.5332 10.0194 18.5097 10.3323C18.4631 10.9493 18.6152 11.7464 19.4452 12.472L19.7028 12.6972L18.7385 9.40782ZM18.7385 9.40782L18.7923 9.41207M18.7385 9.40782L18.7923 9.41207M18.7923 9.41207C18.7912 9.47962 18.7912 9.55862 18.7935 9.64632C18.8011 9.93137 18.8336 10.3161 18.9361 10.7008C19.0381 11.0833 19.2148 11.4868 19.5255 11.7872C19.8446 12.0956 20.2856 12.276 20.8683 12.2371L20.8683 12.2371C22.0462 12.1584 22.806 11.4387 23.2609 10.7689C23.4889 10.4331 23.6452 10.1035 23.7445 9.85836C23.7859 9.75611 23.8177 9.66795 23.8408 9.59937L24.1689 9.54765C24.1124 10.5925 23.848 11.2641 23.4119 11.7697C22.9257 12.3332 22.2018 12.7216 21.1993 13.1626C19.7413 13.8039 18.6066 14.9778 17.9989 15.955L17.9989 15.9551C17.5894 16.6141 17.3645 17.2504 17.3211 17.8928C17.2778 18.5354 17.4174 19.1658 17.7092 19.8108C18.2869 21.0876 19.4784 22.4549 21.1015 24.1412C22.7419 25.8459 23.7564 27.6532 24.3607 29.0347C24.6627 29.7251 24.8617 30.3082 24.985 30.7174C25.0296 30.8651 25.0642 30.9902 25.0902 31.0893C25.0119 31.0983 24.9182 31.1091 24.8106 31.1213C24.4543 31.1617 23.945 31.2182 23.3331 31.2826C22.109 31.4113 20.4754 31.5713 18.8357 31.6966C17.1945 31.822 15.5533 31.9121 14.3117 31.9021C13.6891 31.8971 13.1781 31.8669 12.8209 31.8065C12.6407 31.7761 12.5149 31.7404 12.4371 31.7044C12.4123 31.6929 12.397 31.6837 12.3882 31.6776C12.3513 31.4384 12.442 31.2117 12.6453 30.9863C12.8596 30.7486 13.1795 30.5367 13.5271 30.3581C13.8717 30.1812 14.227 30.0452 14.498 29.9532C14.633 29.9074 14.746 29.8728 14.8248 29.8498C14.8642 29.8383 14.895 29.8298 14.9156 29.8241L14.9388 29.8179L14.9444 29.8164L14.9456 29.8161L14.9457 29.8161L14.9457 29.8161L18.7923 9.41207ZM19.4099 12.8742L19.4097 12.8742L19.4086 12.8749L19.4036 12.878L19.3821 12.8913C19.3629 12.9033 19.334 12.9215 19.2961 12.946C19.2203 12.9949 19.1088 13.0686 18.9677 13.1664C18.6856 13.3622 18.2858 13.6547 17.8178 14.0394C16.8813 14.8093 15.6758 15.9458 14.5962 17.413L19.4099 12.8742ZM19.4099 12.8742L19.4099 12.8741L19.4099 12.8742ZM12.3774 31.6688C12.3774 31.6688 12.3778 31.6692 12.3784 31.6699C12.3776 31.6692 12.3773 31.6688 12.3774 31.6688Z" stroke="#242424" stroke-width="0.5"/>
<path d="M15.6939 31.8797C14.7648 31.912 13.9468 31.9126 13.3377 31.8663C12.9959 31.8403 12.7336 31.8004 12.558 31.7485C12.4695 31.7224 12.4171 31.6972 12.39 31.6787C12.3893 31.6783 12.3887 31.6779 12.3881 31.6775C12.3514 31.4383 12.4421 31.2117 12.6453 30.9863C12.8596 30.7486 13.1795 30.5367 13.5271 30.3581C13.8717 30.1812 14.227 30.0452 14.498 29.9532C14.5987 29.919 14.6872 29.8911 14.7584 29.8696C14.7737 29.8985 14.7906 29.9304 14.8088 29.9652C14.8975 30.1342 15.018 30.3685 15.1457 30.6294C15.3464 31.0396 15.558 31.5022 15.6939 31.8797ZM12.3768 31.6684C12.3768 31.6684 12.377 31.6686 12.3774 31.6691C12.377 31.6686 12.3768 31.6684 12.3768 31.6684Z" stroke="#242424" stroke-width="0.5"/>
<path d="M11.6477 35.3789L9.48453 31.1944C12.6202 31.7022 21.2855 32.5003 30.6592 30.1242L28.1642 35.4348L11.6477 35.3789Z" stroke="#242424" stroke-width="0.5"/>
<path d="M10.1948 32.5705C12.7988 34.0774 16.3181 34.8586 19.672 34.8586C24.3852 34.8586 27.4339 33.8422 29.545 32.4929L28.1641 35.4348L11.6477 35.3789L10.1948 32.5705Z" stroke="#242424" stroke-width="0.5"/>
<path d="M16.6152 2.02456C16.9077 2.07213 17.1061 2.34775 17.0586 2.64016C17.011 2.93257 16.7354 3.13105 16.4429 3.08347C16.1505 3.03589 15.9521 2.76027 15.9996 2.46786C16.0472 2.17545 16.3228 1.97698 16.6152 2.02456Z" stroke="#242424" stroke-width="0.5"/>
<path d="M32.1133 11.0892C32.1133 11.3854 31.8731 11.6256 31.5768 11.6256C31.2806 11.6256 31.0404 11.3854 31.0404 11.0892C31.0404 10.7929 31.2806 10.5527 31.5768 10.5527C31.8731 10.5527 32.1133 10.7929 32.1133 11.0892Z" stroke="#242424" stroke-width="0.5"/>
<path d="M1.52879 16.6291C1.52879 16.9253 1.28863 17.1655 0.992363 17.1655C0.696101 17.1655 0.455933 16.9253 0.455933 16.6291C0.455933 16.3328 0.696101 16.0926 0.992363 16.0926C1.28863 16.0926 1.52879 16.3328 1.52879 16.6291Z" stroke="#242424" stroke-width="0.5"/>
<path d="M3.2402 7.11136L3.24031 7.11133C4.64525 6.76676 6.21091 7.76588 6.66737 9.17968L6.66739 9.17976C6.93628 10.0117 6.79842 10.938 6.37476 11.6949C5.95103 12.4519 5.25617 13.0145 4.4371 13.1504L4.43695 13.1504C3.1686 13.3615 1.8739 12.4977 1.37976 11.3573L1.37969 11.3571C1.03472 10.5626 1.07008 9.60112 1.41605 8.78163C1.76164 7.96308 2.40318 7.31628 3.2402 7.11136Z" stroke="#242424" stroke-width="0.5"/>
<path d="M9.19943 3.01374L9.1994 3.01375C8.13121 3.27661 7.30637 4.28608 7.34077 5.36836L9.19943 3.01374ZM9.19943 3.01374C10.4262 2.71167 11.8246 3.42674 12.1536 4.69511L12.1536 4.69516M9.19943 3.01374L12.1536 4.69516M12.1536 4.69516C12.4984 6.02298 11.5373 7.40509 10.2108 7.64407L12.1536 4.69516ZM10.2107 7.6441C8.78312 7.90023 7.38542 6.73806 7.34077 5.36842L10.2107 7.6441Z" stroke="#242424" stroke-width="0.5"/>
<path d="M18.0425 5.98974C17.9853 5.64194 18.1296 5.27724 18.4111 4.98825C18.6927 4.6992 19.0867 4.51351 19.4731 4.51117C20.0857 4.50801 20.7125 4.94632 20.8071 5.51292C20.8644 5.86073 20.72 6.22545 20.4385 6.51445C20.1569 6.80348 19.763 6.98916 19.3766 6.99153C18.764 6.99473 18.1371 6.55639 18.0425 5.98974Z" stroke="#242424" stroke-width="0.5"/>
<path d="M15.3258 18.3269C15.361 18.3047 15.3921 18.2888 15.4182 18.2775C15.7178 18.6155 15.8295 18.9541 15.989 19.4375C16.0245 19.5451 16.0624 19.66 16.1053 19.7837C16.3575 20.5109 16.7601 21.4421 17.8623 22.7765L17.8623 22.7767C19.0336 24.1931 19.6247 25.2518 19.8571 26.0377C20.0868 26.8142 19.9622 27.3047 19.7241 27.6289L19.7238 27.6292C19.5804 27.8251 19.2497 28.0345 18.7717 28.1647C18.3028 28.2924 17.7262 28.334 17.1308 28.2272C15.9597 28.0172 14.7029 27.2318 14.0496 25.3525C13.9038 21.6912 14.3289 19.9017 14.7613 19.0367C14.9761 18.607 15.1885 18.4138 15.3258 18.3269Z" stroke="#242424" stroke-width="0.5"/>
</svg>
