<svg width="426" height="368" viewBox="0 0 426 368" fill="none" xmlns="http://www.w3.org/2000/svg">
<path d="M332.751 154.552C355.838 138.978 356.112 115.229 355.084 105.707C353.737 93.3302 349.672 82.3691 343.598 72.8924C349.901 70.7459 362.118 66.0418 360.222 62.2511C356.843 55.5146 341.68 63.9409 341.68 63.9409C341.68 63.9409 342.525 44.5536 337.455 45.3985C334.19 45.9465 333.391 54.213 333.231 60.0132C296.032 22.4945 220.994 19.2975 175.689 60.6069C165.025 29.3451 126.296 8.54202 80.4192 16.9911C79.9396 9.47827 78.5238 -1.23157 74.4363 0.115725C68.6361 2.05674 69.1384 17.4707 69.2298 19.5944C69.1841 19.6172 69.1156 19.6401 69.0471 19.6401C67.2888 18.0416 54.4324 6.69234 50.5732 11.5335C47.7188 15.1186 53.2449 20.6677 56.9443 23.7733C53.6788 25.0521 50.4133 26.4679 47.125 28.0435C-19.8514 60.4927 -28.2092 120.139 -18.801 155.717C-13.1835 176.954 3.16673 196.524 25.4313 202.849C8.92127 210.864 -3.84377 225.319 -7.54311 245.689C-13.8 280.033 13.8537 308.44 46.44 313.167C63.3611 315.611 83.7303 313.099 98.5505 304.102C107.73 298.53 117.002 288.733 114.924 275.238C134.653 288.733 163.974 296.954 198.753 285.057C225.265 275.991 253.877 252.95 255.773 203.694C259.312 204.47 265.181 205.658 270.525 205.498C260.682 220.798 260.271 241.555 271.027 258.568C289.409 287.614 326.449 294.351 358.144 288.391C390.137 282.385 421.17 257.974 425.052 226.895C429.117 194.469 397.535 152.177 332.751 154.552Z" fill="#4B9595"/>
<path d="M296.329 58.7344C280.549 60.6754 266.003 74.331 265.09 91.1151C263.971 111.758 283.906 129.456 304.412 128.131C321.105 127.058 336.496 113.517 337.958 96.8925C339.876 75.45 317.862 56.0855 296.329 58.7344Z" fill="#5DA0A0"/>
<path d="M332.751 154.552C355.838 138.978 356.112 115.229 355.084 105.707C354.24 97.9658 352.344 90.7726 349.535 84.1731C354.377 109.201 337.638 148.272 293.657 144.322C254.448 140.805 250.384 95.2484 251.092 80.588C242.391 94.9287 234.102 103.378 211.769 102.464C192.245 101.642 178.498 84.0818 175.689 60.6069C167.993 37.9998 145.637 20.8732 116.522 16.3061C141.07 23.3622 160.275 47.4765 153.173 84.7669C145.729 123.838 96.1986 131.625 77.7018 125.848C75.3955 144.23 66.6495 173.163 38.7217 181.429C10.9766 189.627 -5.94453 177.821 -18.4584 156.881C-12.544 177.662 3.57787 196.638 25.4314 202.849C8.92137 210.864 -3.84367 225.319 -7.54301 245.689C-13.7999 280.033 13.8538 308.44 46.4401 313.167C63.3612 315.611 83.7304 313.099 98.5506 304.102C107.731 298.53 117.002 288.733 114.924 275.238C134.654 288.733 163.974 296.954 198.753 285.057C225.265 275.991 253.878 252.95 255.773 203.694C259.312 204.47 265.181 205.658 270.525 205.498C260.683 220.798 260.272 241.555 271.027 258.568C289.41 287.614 326.449 294.351 358.144 288.391C390.137 282.385 421.17 257.974 425.052 226.895C429.117 194.469 397.536 152.177 332.751 154.552Z" fill="#3B8282"/>
<path d="M395.823 170.628C401.966 180.95 405.665 192.938 406.236 205.612C407.903 242.583 373.581 274.073 337.775 274.073C300.508 274.073 272.671 244.501 269.566 208.832C269.223 208.923 268.858 208.992 268.515 209.083C260.751 223.949 261.094 242.834 271.027 258.545C289.41 287.592 326.449 294.328 358.144 288.368C390.137 282.362 421.17 257.951 425.052 226.872C427.427 207.85 417.517 185.426 395.823 170.628Z" fill="#2D6F6F"/>
<path d="M114.49 276.882C102.044 285.377 87.2926 290.423 72.2897 290.423C34.6111 290.423 5.67858 262.952 -1.40042 228.037C-4.25485 233.312 -6.35572 239.18 -7.52033 245.666C-13.7772 280.01 13.8765 308.418 46.4628 313.145C63.3838 315.588 83.7531 313.076 98.5733 304.079C107.091 298.918 115.654 290.081 115.175 278.046C114.924 277.658 114.695 277.293 114.49 276.882Z" fill="#2D6F6F"/>
<path d="M256.618 179.58C256.138 177.662 240.77 177.342 237.87 177.296C173.314 172.09 188.865 104.474 188.865 104.474L178.338 105.342C173.953 179.922 118.303 167.226 118.303 167.226C104.693 201.753 40.2059 205.658 40.2059 205.658C40.2059 205.658 39.5437 212.965 41.1193 221.643C36.5751 221.551 28.1259 223.196 27.7834 226.438C27.4637 229.384 41.9871 228.06 41.9871 228.06C41.9871 228.06 31.4827 240.345 34.086 242.492C36.8948 244.798 41.165 239.5 45.5266 234.956C48.1755 239.957 52.1032 244.455 57.8577 247.196C83.8217 259.664 104.579 236.805 104.579 236.805C126.387 265.875 164.614 273.548 203.206 252.379C227.343 239.158 234.856 203.534 237.116 186.545C239.628 189.924 244.378 195.565 247.278 194.057C251.343 191.934 241.432 183.096 241.432 183.096C251.662 185.768 257.143 181.703 256.618 179.58Z" fill="#165757"/>
<path d="M90.2384 383.546C90.2384 383.546 207.133 293.209 364.652 369.708C364.652 369.685 231.75 488.019 90.2384 383.546Z" fill="#2F0102"/>
<path d="M125.976 131.602C125.976 131.602 112.868 181.658 140.157 201.319C165.527 219.61 185.736 223.401 191.308 269.917L157.809 271.767L152.237 243.884C152.237 243.884 110.197 225.502 109.009 171.564C109.009 171.564 88.9825 171.313 79.6656 150.83L85.4202 146.194C85.4202 146.194 96.0387 159.37 109.991 159.37C109.991 159.37 112.594 139.8 117.801 130.369L125.976 131.602Z" fill="#732E1B"/>
<path d="M317.36 287.112C339.328 269.46 358.281 253.658 360.907 225.959C359.765 226.21 358.601 226.484 357.459 226.712C355.267 227.146 352.96 227.694 350.608 228.197C349.375 234.842 345.881 245.506 335.994 249.456C322.886 254.686 313.661 233.746 313.661 233.746L306.216 237.057C306.216 237.057 311.171 254.846 324.005 260.235C324.005 260.235 265.775 294.693 252.37 339.634C248.305 353.244 266.505 371.877 286.715 389.05L325.786 388.342C325.786 388.342 327.887 370.188 297.881 360.437C281.554 330.682 296.009 304.262 317.36 287.112Z" fill="url(#paint0_linear)"/>
<path d="M325.764 388.342C325.764 388.342 327.864 370.188 297.859 360.437C297.859 360.437 309.299 375.645 312.039 388.981L325.764 388.342Z" fill="#732E1B"/>
<path d="M209.006 113.654C209.006 113.654 195.282 137.814 217.615 157.338C217.615 157.338 184.115 177.57 156.895 214.564C128.488 253.179 116.568 305.472 162.969 367.539C162.969 367.539 125.565 377.13 128.967 394.622C131.662 408.437 293.657 389.05 293.657 389.05C293.657 389.05 283.883 340.89 242.483 297.868C202.041 255.85 184.8 231.348 204.324 199.926C211.609 188.212 225.265 174.099 242.711 166.427C267.624 155.466 281.097 146.194 281.6 115.001L271.895 116.531C271.895 116.531 263.788 147.199 237.139 148.98C211.472 150.693 214.783 114.11 214.783 114.11L209.006 113.654Z" fill="url(#paint1_linear)"/>
<path d="M162.969 367.539C162.969 367.539 125.565 377.13 128.967 394.621C129.926 399.508 150.73 400.239 177.242 399.143C174.341 388.342 162.969 367.539 162.969 367.539Z" fill="#732E1B"/>
<path d="M193.066 33.3104C193.933 27.9828 190.317 22.9611 184.989 22.0943C179.661 21.2274 174.64 24.8435 173.773 30.1712C172.906 35.4988 176.522 40.5204 181.85 41.3873C187.177 42.2542 192.199 38.6381 193.066 33.3104Z" fill="#4B9595"/>
<path d="M370.43 147.587C375.828 147.587 380.203 143.211 380.203 137.814C380.203 132.416 375.828 128.04 370.43 128.04C365.032 128.04 360.656 132.416 360.656 137.814C360.656 143.211 365.032 147.587 370.43 147.587Z" fill="#4B9595"/>
<path d="M-9.66672 216.436C-4.26892 216.436 0.106865 212.06 0.106865 206.663C0.106865 201.265 -4.26892 196.889 -9.66672 196.889C-15.0645 196.889 -19.4403 201.265 -19.4403 206.663C-19.4403 212.06 -15.0645 216.436 -9.66672 216.436Z" fill="#4B9595"/>
<path d="M17.5305 85.3606C-5.60188 91.0238 -17.0425 120.87 -7.70275 142.381C-1.10329 157.612 16.2288 169.395 33.6523 166.495C56.2366 162.75 71.1025 135.667 63.818 113.128C57.7209 94.2436 36.8036 80.6336 17.5305 85.3606Z" fill="#5DA0A0"/>
<path d="M91.5857 34.4375C77.0167 38.0226 65.6446 51.7696 66.1241 66.8182C66.7407 85.7488 85.854 101.574 105.447 98.0571C123.578 94.7916 136.823 75.9524 132.05 57.5698C127.483 39.9636 108.278 30.3271 91.5857 34.4375Z" fill="#5DA0A0"/>
<path d="M219.99 52.957C208.504 53.0255 197.337 63.8723 199.164 74.9475C200.648 83.8534 210.079 90.0418 218.825 89.9961C230.311 89.9276 241.478 79.0808 239.651 68.0056C238.167 59.0997 228.736 52.9113 219.99 52.957Z" fill="#5DA0A0"/>
<path d="M171.304 213.65C171.304 213.65 129.721 257.609 149.519 315.656C166.417 365.164 216.13 358.176 225.63 345.205C232.96 335.226 231.727 316.57 202.383 281.083C175.506 248.543 173.177 228.996 171.304 213.65Z" fill="#D34C2B"/>
<defs>
<linearGradient id="paint0_linear" x1="383.15" y1="245.521" x2="285" y2="343.671" gradientUnits="userSpaceOnUse">
<stop stop-color="#732E1B"/>
<stop offset="0.1313" stop-color="#80321D"/>
<stop offset="0.4755" stop-color="#9C3B21"/>
<stop offset="0.7766" stop-color="#AD4024"/>
<stop offset="1" stop-color="#B34225"/>
</linearGradient>
<linearGradient id="paint1_linear" x1="277.312" y1="119.372" x2="234.67" y2="257.958" gradientUnits="userSpaceOnUse">
<stop stop-color="#732E1B"/>
<stop offset="0.1313" stop-color="#80321D"/>
<stop offset="0.4755" stop-color="#9C3B21"/>
<stop offset="0.7766" stop-color="#AD4024"/>
<stop offset="1" stop-color="#B34225"/>
</linearGradient>
</defs>
</svg>
