<?xml version="1.0" encoding="utf-8"?>
<!-- Generator: Adobe Illustrator 24.1.2, SVG Export Plug-In . SVG Version: 6.00 Build 0)  -->
<svg version="1.0" id="Layer_1" xmlns="http://www.w3.org/2000/svg" xmlns:xlink="http://www.w3.org/1999/xlink" x="0px" y="0px"
	 viewBox="0 0 4000 4000" style="enable-background:new 0 0 4000 4000;" xml:space="preserve">
<style type="text/css">
	.st0{clip-path:url(#SVGID_2_);}
	.st1{fill:#E4EBE6;}
	.st2{fill:#FFE8BD;}
	.st3{fill:#F49345;}
	.st4{fill:#F3B440;}
	.st5{fill:#F3633F;}
	.st6{fill:#CC5031;}
	.st7{fill:#BB7F5A;}
	.st8{fill:#DFA17E;}
</style>
<g>
	<defs>
		<rect id="SVGID_1_" width="4000" height="4000"/>
	</defs>
	<clipPath id="SVGID_2_">
		<use xlink:href="#SVGID_1_"  style="overflow:visible;"/>
	</clipPath>
	<g class="st0">
		<rect x="4" class="st1" width="4000" height="4000"/>
		<g>
			<g>
				<path class="st2" d="M1562.42,883.61c-117.07-4.27-234.77,6.73-348.62,32.6c-17.39,3.95-36.37,9.37-45.73,23.61
					c-13.24,20.16,1.21,48.12,23.36,59.59c22.15,11.47,48.88,11.01,74.18,10.26c83.65-2.5,167.3-5.01,250.95-7.51
					c118.19-3.54,237.25-7.17,352.57-31.65c22.62-4.8,49.11-14.24,53.35-35.55c4.04-20.32-15.73-38.23-36.09-46.31
					c-28.32-11.25-60.02-11.84-90.79-11.58C1700.28,877.88,1605.03,885.17,1562.42,883.61"/>
				<path class="st3" d="M1272.93,435.22c14.92-2.67,30.37-6.59,39.96-15.02c8.93-7.85,11.29-18.3,13.34-28.24
					c0.13-0.64,0.18-1.41-0.56-1.78c-0.63-0.31-1.5-0.16-2.23,0.01c-13.86,3.23-25.98,9.73-34.83,17.87
					C1279.76,416.19,1274.1,425.91,1272.93,435.22"/>
				<path class="st3" d="M1676.91,683.63c-16.95,11.03-24.74,30.56-24.38,49.13c0.36,18.57,7.8,36.45,16.35,53.43
					c8.72,17.29,18.71,37.46,8.6,54.15c-3.13,5.17-8.22,10.2-7.21,15.99c0.69,3.96,4.14,7.09,5.71,10.84
					c2.56,6.11-0.13,12.85-2.79,18.92c-6.77,15.42-14.31,31.74-29.61,41.3c-7.62,4.77-16.7,7.5-24.22,12.39
					c-7.52,4.89-13.54,13.2-10.91,21.1c15.95-1.38,31.78-3.77,47.33-7.16c3.74-0.82,7.55-1.72,10.75-3.61
					c6.65-3.92,9.41-11.17,12.15-17.79c9.71-23.49,24.44-45.35,43.18-64.11c3.78-3.79,7.86-7.66,9.31-12.54
					c3.6-12.1-10.06-22.84-12.23-35.2c-1.87-10.67,4.98-20.81,10.72-30.34c12.89-21.39,21.42-46.16,15.55-69.83
					C1739.36,696.65,1708.98,662.77,1676.91,683.63"/>
				<path class="st3" d="M1469.09,679.18c-17.05-1.74-32.6,11.8-39.04,27.55c-6.44,15.76-5.95,33.32-5.86,50.32
					c0.09,17-0.52,34.78-8.76,49.68c-6.3,11.4-17.08,24.49-10.08,35.49c2.8,4.41,7.81,6.81,12.41,9.34
					c15.2,8.35,28.36,20.32,38.07,34.61c3.34,4.91,6.32,10.23,7.37,16.06c2.83,15.79-8.93,31.48-6.13,47.27
					c22.56-11.42,38.56-34.72,41-59.72c0.31-3.23,0.36-6.71-1.37-9.46c-2.09-3.33-6.17-4.73-9.82-6.22
					c-14.23-5.84-27.25-19.15-25.57-34.34c0.73-6.65,4.13-13.71,1.02-19.65c-1.22-2.33-3.32-4.1-4.61-6.39
					c-5.15-9.08,4.12-19.29,12.17-26c13.53-11.29,26.41-24,34.05-39.83c7.64-15.82,9.33-35.3,0.74-50.63
					C1496.07,681.93,1475.73,672.89,1469.09,679.18"/>
				<path class="st4" d="M1291.88,427.91c-25.44,7.75-50.87,15.49-76.3,23.23c-14.42,4.39-29.8,9.4-38.56,20.42
					c-8.51,10.71-8.55,26.1-0.1,36.85c8.45,10.74,24.83,16.09,39.18,12.8c5.09-1.17,9.99-3.31,15.24-3.38
					c20.94-0.26,30.35,30.44,51.15,28.33c-5.53,42.49-0.34,86.03,15.09,126.57c5.21,13.69,11.71,27.24,21.99,38.48
					c15.28,16.69,37.98,27.11,61.46,32.7c36.37,8.66,75.95,6.5,108.73-4.3c28.97,47.26,26.6,104.04,23.47,157.7
					c-1.15,19.66-4.16,42.47-26.52,50.79c-4.63,1.72-7.75,5.76-7.24,10.17c0.61,5.3,5.29,6.19,9.49,6.86
					c17.16,2.72,34.33,5.44,51.49,8.15c23.66-28.88-7.04-71.64,9.07-104.3c3.41-6.92,8.96-13.5,8.7-21.05
					c-0.17-4.77-2.68-9.19-4.9-13.54c-14.28-27.99-17.96-60.1-10.33-90.05c50.32,9.9,103.99,6.12,151.9-10.68
					c7.05-2.47,15.25-5.18,21.84-1.86c3.12,1.57,5.27,4.25,7.32,6.85c15.74,19.98,31.48,39.95,47.22,59.93
					c4.35,5.52,8.87,11.5,8.86,18.22c-0.01,7.98-6.49,15.55-4.63,23.36c1.85,7.79,11.06,12.26,15.89,18.98
					c5.71,7.94,4.76,18.12,3.61,27.47c-2.94,23.95-7.42,50.52-29.83,64.96c-1.79,1.15-3.39,2.56-4.37,4.31
					c-4.5,8.05,7.15,13.11,15.47,11.56c7.47-1.39,14.37-5.53,21.98-5.14c12.47,0.64,17.7,5.93,29.76,3.06
					c14.91-3.56,7.83-18.47,2.58-31.28c-10.23-24.96-13.06-52.24-8.13-78.42c1.66-8.79,12.43-14.86,10.34-23.58
					c-2.99-12.48-14.6-21.65-23.04-32.01c-23.01-28.26-22.51-65.75-24.58-100.49c-2.07-34.74-10.47-73.58-43.15-93.06
					c20.07-1.93,34.86,16.58,40.37,33.71c5.52,17.13,7.43,36.54,21.77,49.08c4.5,3.93,10.22,7.19,12.51,12.39
					c1.96,4.44,0.99,9.42,1.54,14.15c1.99,17.31,28.54,27.95,44.64,17.89c2.13-10.14-5.75-19.9-14.89-26.33
					c-9.14-6.44-19.99-11.07-27.82-18.73c-22.82-22.35-12.49-62.14-37.86-82.25c-6.71-5.32-15.17-8.52-22.88-12.66
					c-28.05-15.07-44.85-41.77-67.37-62.85c-22.52-21.08-58.75-37.19-87.53-23.24c-5.97-19.17-17.64-37.41-35.51-49.53
					c-17.87-12.12-42.35-17.38-63.73-11.07c-36.65,10.81-51.94,48.96-57.11,82.73c-5.17,33.77,3.44,95.65-21.89,121.38
					c-4.55,4.63-12.47,6.96-21.18,7.98c-22.7,2.67-43.64-11.31-47.63-31.2c0,0-18.08-79.44-18.08-187.95
					c8.59-13.23,11.52-29.24,8.09-44.18C1325.95,398.44,1312.06,421.76,1291.88,427.91"/>
				<path class="st3" d="M1226.47,518.76c9.71-5.59,19.43-11.19,29.14-16.78c1.5-0.86,3.13-1.76,4.89-1.63
					c1.59,0.12,2.99,1.08,3.96,2.26c2.49,3.04,2.4,7.48,0.5,10.87c-1.9,3.39-5.34,5.84-9.04,7.49
					C1246.84,525.03,1235.65,524.66,1226.47,518.76"/>
				<path class="st5" d="M1443.82,554.29c-2.59-26.82,2.79-55.11,17.93-78.03c15.94-24.12,46.13-39.4,76.47-38.7
					c30.34,0.71,59.68,17.37,74.32,42.2c3.76,6.37,6.75,13.4,12.5,18.31c11.87,10.13,30.41,7.64,45.79,12
					c19.11,5.42,32.42,21.14,44.47,36.01c4.45,5.5,9.02,11.21,10.69,17.92c1.47,5.9,0.56,12.08-0.55,18.05
					c-5.28,28.44-15.06,56.15-28.92,81.94c-5.27,9.8-11.38,19.61-20.75,26.22c-13.67,9.64-31.88,10.93-48.98,11.76
					c-44.79,2.17-91.04,3.44-132.99-11.39c-6.38-2.26-13.1-5.29-16.15-11c-2.85-5.34-1.76-11.68-1.05-17.61
					c2.87-23.88-1.54-48.48-12.58-70.18C1456.15,576.34,1445.57,572.51,1443.82,554.29"/>
				<path class="st6" d="M1444.75,527.21c-4.96,7.09-0.95,29.73-0.2,32.03c4.06,12.47,8.4,15.32,12.98,22.29
					c12.59,19.16,17.96,42.05,18.43,64.52c0.34,16.24-10.06,34.31,12.05,45.73c8.22,4.25,16.98,7.21,26.29,8.33
					c45.07,5.43,90.79,6.13,136.03,2.08c12.27-1.1,25.39-2.91,34.43-10.74c6.52-5.65,9.96-13.66,13.21-21.39l26.68-63.52
					c3.98-9.47,8.02-19.28,7.52-29.44c-0.49-10.16-5.57-26.61-16.07-29.29c-6.69,39.08-16.28,84.94-39.43,118.09
					c-2.7,3.87-5.68,7.7-9.77,10.31c-4.69,3-10.43,4.12-16.02,5.08c-46.08,7.89-93.53,8.74-139.9,2.49c-3.7-0.5-7.53-1.09-10.59-3.1
					c-7.1-4.67-6.92-14.34-6.63-22.45C1495.35,614.79,1475.55,563.77,1444.75,527.21"/>
				<path class="st5" d="M1491.95,683.45c-4.87,5.33-9.02,11.23-12.33,17.52c-0.92,1.75-1.64,4.18,0.01,5.39
					c1.88,1.38,4.5-0.45,6-2.2c4.78-5.59,8.81-11.73,11.97-18.25c0.39-0.8,0.78-1.68,0.59-2.54c-0.34-1.59-2.51-2.32-4.17-1.85
					C1492.35,681.98,1491.12,683.25,1491.95,683.45"/>
				<path class="st5" d="M1512.77,692.24c-1.94,6.77-2.98,13.76-3.08,20.77c-0.03,1.95,0.44,4.44,2.48,4.86
					c2.34,0.49,3.86-2.21,4.41-4.39c1.75-6.96,2.56-14.13,2.42-21.28c-0.02-0.88-0.07-1.83-0.64-2.53c-1.04-1.3-3.33-1.09-4.61,0
					C1512.46,690.75,1511.93,692.39,1512.77,692.24"/>
				<path class="st5" d="M1539.49,696.12c-0.78,6.97-0.63,14.03,0.44,20.96c0.3,1.93,1.19,4.32,3.27,4.44
					c2.39,0.14,3.44-2.75,3.61-4.98c0.56-7.13,0.16-14.33-1.19-21.37c-0.17-0.87-0.38-1.79-1.05-2.41
					c-1.24-1.13-3.47-0.59-4.56,0.67C1538.93,694.69,1538.68,696.39,1539.49,696.12"/>
				<path class="st5" d="M1539.49,696.12c-0.78,6.97-0.63,14.03,0.44,20.96c0.3,1.93,1.19,4.32,3.27,4.44
					c2.39,0.14,3.44-2.75,3.61-4.98c0.56-7.13,0.16-14.33-1.19-21.37c-0.17-0.87-0.38-1.79-1.05-2.41
					c-1.24-1.13-3.47-0.59-4.56,0.67C1538.93,694.69,1538.68,696.39,1539.49,696.12"/>
				<path class="st5" d="M1573.91,698.43c-0.78,6.97-0.63,14.03,0.44,20.96c0.3,1.93,1.19,4.32,3.27,4.44
					c2.39,0.14,3.44-2.75,3.62-4.98c0.55-7.13,0.16-14.33-1.19-21.37c-0.16-0.87-0.38-1.79-1.05-2.41
					c-1.24-1.13-3.47-0.59-4.56,0.68C1573.35,697.01,1573.1,698.71,1573.91,698.43"/>
				<path class="st5" d="M1604.3,698.43c-0.78,6.97-0.63,14.03,0.44,20.96c0.3,1.93,1.18,4.32,3.27,4.44
					c2.39,0.14,3.44-2.75,3.62-4.98c0.55-7.13,0.15-14.33-1.19-21.37c-0.16-0.87-0.38-1.79-1.05-2.41
					c-1.24-1.13-3.47-0.59-4.56,0.68C1603.74,697.01,1603.5,698.71,1604.3,698.43"/>
				<path class="st5" d="M1635.44,699.4c0.85,6.96,2.62,13.82,5.27,20.38c0.74,1.83,2.15,3.98,4.22,3.68
					c2.37-0.34,2.72-3.38,2.38-5.59c-1.11-7.08-3.16-14.02-6.1-20.63c-0.36-0.81-0.78-1.67-1.58-2.14
					c-1.47-0.85-3.52,0.13-4.29,1.58C1634.57,698.13,1634.71,699.83,1635.44,699.4"/>
				<path class="st5" d="M1667.71,693.54c0.85,6.96,2.62,13.82,5.27,20.38c0.74,1.83,2.15,3.98,4.22,3.68
					c2.37-0.34,2.72-3.38,2.38-5.6c-1.11-7.08-3.16-14.02-6.1-20.63c-0.36-0.82-0.78-1.67-1.59-2.14c-1.47-0.85-3.52,0.13-4.29,1.58
					C1666.84,692.27,1666.99,693.98,1667.71,693.54"/>
				<path class="st5" d="M1687.69,679.75c4.93,5.28,10.57,9.98,16.74,13.97c1.72,1.11,4.19,2.13,5.71,0.78
					c1.74-1.54,0.18-4.23-1.45-5.87c-5.22-5.24-11.13-9.86-17.57-13.73c-0.79-0.48-1.66-0.96-2.61-0.92
					c-1.73,0.08-2.82,1.98-2.57,3.58C1686.2,679.16,1687.36,680.49,1687.69,679.75"/>
				<path class="st5" d="M1700.19,651.92c4.93,5.28,10.57,9.98,16.74,13.97c1.72,1.11,4.19,2.13,5.71,0.78
					c1.74-1.54,0.18-4.23-1.45-5.87c-5.22-5.24-11.13-9.86-17.57-13.73c-0.79-0.48-1.66-0.96-2.61-0.92
					c-1.73,0.08-2.82,1.98-2.57,3.58C1698.7,651.33,1699.86,652.66,1700.19,651.92"/>
				<path class="st5" d="M1712.69,624.09c4.93,5.28,10.57,9.98,16.74,13.96c1.72,1.11,4.19,2.13,5.71,0.79
					c1.74-1.54,0.19-4.23-1.45-5.87c-5.22-5.23-11.13-9.86-17.57-13.73c-0.79-0.48-1.66-0.96-2.61-0.92
					c-1.73,0.08-2.82,1.98-2.57,3.58C1711.19,623.5,1712.35,624.83,1712.69,624.09"/>
				<path class="st5" d="M1721.51,602.93c4.93,5.28,10.57,9.98,16.74,13.97c1.72,1.11,4.19,2.13,5.71,0.78
					c1.74-1.54,0.18-4.23-1.45-5.87c-5.22-5.24-11.13-9.86-17.57-13.73c-0.79-0.48-1.66-0.96-2.61-0.92
					c-1.73,0.08-2.82,1.98-2.57,3.58C1720.01,602.34,1721.17,603.67,1721.51,602.93"/>
				<path class="st3" d="M1188.29,463.51c8.34-1.23,16.71-2.46,25.15-2.5c-5.98,2.4-11.68,5.41-16.97,8.95
					c-1.9,1.27-3.81,2.64-6.06,3.21c-2.26,0.57-4.99,0.12-6.32-1.68C1182.26,469.04,1183.59,464.2,1188.29,463.51"/>
				<path class="st3" d="M1275.22,457.14c-0.82,4.1-0.91,8.67,1.65,12.09c2.16,2.89,6.14,4.51,9.88,4.02
					c4.92-0.65,8.62-4.43,11.58-8.17c0.62-0.78,1.25-1.59,2.15-2.09c0.9-0.49,2.15-0.57,2.92,0.08c0.39,0.33,0.61,0.8,0.75,1.28
					c0.97,3.33-1.69,6.57-4.32,9c-2.1,1.94-4.34,3.81-7,5.01c-6.13,2.77-14.03,1.36-18.9-3.08c-4.88-4.44-6.61-11.54-4.65-17.64
					c0.46-1.43,1.26-2.95,2.76-3.44C1273.55,453.71,1275.62,455.12,1275.22,457.14"/>
			</g>
			<g>
				<path class="st2" d="M2227.77,3446.54c-113.99-4.13-228.6,6.52-339.45,31.55c-16.93,3.82-35.41,9.06-44.52,22.85
					c-12.89,19.51,1.18,46.56,22.74,57.67c21.56,11.1,47.59,10.66,72.23,9.93c81.45-2.42,162.89-4.84,244.34-7.27
					c115.08-3.42,231.01-6.94,343.29-30.63c22.03-4.65,47.82-13.78,51.95-34.4c3.93-19.66-15.32-36.99-35.14-44.82
					c-27.57-10.89-58.44-11.46-88.4-11.2C2362,3441,2269.26,3448.05,2227.77,3446.54"/>
				<path class="st3" d="M1945.9,3012.62c14.52-2.59,29.57-6.38,38.91-14.54c8.7-7.6,10.99-17.71,12.99-27.33
					c0.13-0.62,0.18-1.37-0.55-1.72c-0.61-0.3-1.46-0.16-2.17,0.01c-13.5,3.13-25.29,9.42-33.91,17.29
					S1947.03,3003.61,1945.9,3012.62"/>
				<path class="st3" d="M2339.25,3253.02c-16.5,10.67-24.09,29.58-23.74,47.55c0.35,17.97,7.59,35.28,15.92,51.7
					c8.49,16.73,18.22,36.25,8.37,52.4c-3.05,5-8,9.87-7.02,15.48c0.67,3.83,4.03,6.86,5.56,10.49c2.49,5.91-0.13,12.44-2.72,18.31
					c-6.59,14.92-13.93,30.71-28.83,39.97c-7.42,4.61-16.26,7.26-23.58,11.99s-13.18,12.77-10.62,20.42
					c15.53-1.33,30.94-3.65,46.08-6.93c3.64-0.79,7.35-1.66,10.46-3.49c6.47-3.79,9.16-10.81,11.83-17.22
					c9.46-22.73,23.79-43.89,42.04-62.04c3.68-3.66,7.65-7.41,9.07-12.13c3.5-11.71-9.79-22.1-11.9-34.06
					c-1.82-10.33,4.85-20.13,10.44-29.36c12.55-20.7,20.85-44.67,15.14-67.58C2400.05,3265.61,2370.47,3232.83,2339.25,3253.02"/>
				<path class="st3" d="M2136.9,3248.71c-16.6-1.68-31.74,11.42-38.02,26.67c-6.27,15.25-5.8,32.25-5.71,48.7
					c0.09,16.45-0.5,33.65-8.53,48.08c-6.14,11.03-16.63,23.71-9.81,34.35c2.73,4.26,7.61,6.59,12.08,9.04
					c14.8,8.08,27.61,19.67,37.07,33.5c3.25,4.75,6.16,9.89,7.17,15.54c2.76,15.28-8.69,30.46-5.97,45.75
					c21.97-11.05,37.55-33.6,39.92-57.8c0.31-3.13,0.35-6.49-1.33-9.16c-2.04-3.22-6-4.57-9.56-6.02
					c-13.86-5.65-26.53-18.54-24.89-33.23c0.72-6.44,4.03-13.27,0.99-19.01c-1.19-2.25-3.23-3.97-4.49-6.18
					c-5.02-8.79,4.01-18.67,11.84-25.17c13.18-10.93,25.71-23.23,33.15-38.54c7.44-15.31,9.08-34.16,0.72-49
					C2163.17,3251.37,2143.37,3242.62,2136.9,3248.71"/>
				<path class="st4" d="M1964.35,3005.54c-24.77,7.5-49.53,14.99-74.29,22.48c-14.04,4.25-29.02,9.1-37.55,19.76
					c-8.29,10.36-8.33,25.26-0.1,35.66c8.23,10.4,24.17,15.57,38.15,12.39c4.96-1.13,9.72-3.21,14.84-3.27
					c20.39-0.25,29.55,29.46,49.8,27.41c-5.38,41.12-0.33,83.25,14.7,122.49c5.07,13.25,11.4,26.37,21.41,37.24
					c14.88,16.16,36.98,26.24,59.85,31.65c35.42,8.38,73.95,6.29,105.87-4.16c28.21,45.74,25.9,100.68,22.85,152.61
					c-1.12,19.03-4.05,41.1-25.82,49.15c-4.51,1.67-7.55,5.57-7.05,9.84c0.59,5.12,5.15,5.99,9.24,6.63
					c16.71,2.63,33.42,5.26,50.13,7.89c23.03-27.94-6.86-69.33,8.83-100.94c3.33-6.7,8.73-13.07,8.47-20.37
					c-0.16-4.62-2.61-8.89-4.77-13.1c-13.9-27.09-17.49-58.16-10.06-87.14c49,9.58,101.25,5.92,147.9-10.33
					c6.86-2.39,14.85-5.01,21.26-1.8c3.04,1.52,5.13,4.12,7.12,6.63c15.32,19.33,30.65,38.67,45.98,58
					c4.23,5.34,8.63,11.13,8.63,17.63c-0.01,7.72-6.32,15.05-4.51,22.61c1.8,7.53,10.77,11.86,15.47,18.37
					c5.56,7.69,4.64,17.54,3.52,26.59c-2.87,23.18-7.22,48.89-29.05,62.86c-1.74,1.12-3.3,2.48-4.26,4.17
					c-4.38,7.79,6.96,12.69,15.06,11.19c7.27-1.34,13.99-5.35,21.4-4.98c12.14,0.62,17.23,5.74,28.97,2.96
					c14.52-3.44,7.63-17.87,2.51-30.27c-9.96-24.15-12.72-50.56-7.92-75.89c1.61-8.51,12.1-14.38,10.07-22.82
					c-2.91-12.08-14.21-20.95-22.43-30.98c-22.4-27.34-21.92-63.62-23.93-97.24s-10.19-71.21-42.01-90.06
					c19.54-1.86,33.94,16.04,39.31,32.62c5.37,16.58,7.23,35.37,21.2,47.49c4.38,3.8,9.95,6.96,12.18,11.99
					c1.9,4.3,0.97,9.11,1.5,13.7c1.94,16.75,27.79,27.05,43.46,17.31c2.08-9.81-5.6-19.25-14.49-25.48
					c-8.89-6.23-19.47-10.71-27.08-18.13c-22.22-21.63-12.17-60.13-36.86-79.6c-6.53-5.15-14.77-8.24-22.27-12.25
					c-27.31-14.58-43.67-40.42-65.6-60.82c-21.93-20.4-57.2-35.99-85.23-22.49c-5.81-18.55-17.18-36.2-34.58-47.93
					c-17.4-11.73-41.24-16.82-62.05-10.71c-35.69,10.46-50.57,47.38-55.6,80.06c-5.03,32.69,3.35,92.56-21.32,117.47
					c-4.43,4.48-12.14,6.73-20.62,7.72c-22.1,2.59-42.49-10.95-46.38-30.19c0,0-17.6-76.88-17.6-181.89
					c8.37-12.8,11.22-28.29,7.88-42.75C1997.52,2977.02,1984,2999.59,1964.35,3005.54"/>
				<path class="st3" d="M1900.66,3093.46c9.46-5.41,18.92-10.83,28.38-16.24c1.46-0.84,3.05-1.7,4.76-1.58
					c1.54,0.11,2.91,1.04,3.85,2.19c2.43,2.94,2.34,7.24,0.49,10.52c-1.85,3.28-5.2,5.65-8.8,7.25
					C1920.5,3099.53,1909.6,3099.17,1900.66,3093.46"/>
				<path class="st5" d="M2112.29,3127.84c-2.52-25.96,2.72-53.34,17.46-75.51c15.52-23.34,44.92-38.13,74.46-37.45
					c29.54,0.68,58.11,16.8,72.36,40.83c3.66,6.17,6.57,12.97,12.17,17.72c11.56,9.81,29.61,7.39,44.59,11.62
					c18.6,5.24,31.57,20.46,43.3,34.85c4.33,5.32,8.78,10.85,10.41,17.34c1.43,5.71,0.55,11.69-0.53,17.47
					c-5.14,27.52-14.66,54.33-28.16,79.3c-5.13,9.49-11.08,18.98-20.21,25.37c-13.31,9.32-31.04,10.58-47.69,11.38
					c-43.62,2.1-88.65,3.33-129.49-11.02c-6.22-2.18-12.76-5.12-15.72-10.64c-2.77-5.17-1.72-11.3-1.02-17.04
					c2.8-23.11-1.5-46.92-12.25-67.92C2124.3,3149.18,2114,3145.48,2112.29,3127.84"/>
				<path class="st6" d="M2113.2,3101.64c-4.83,6.86-0.92,28.78-0.2,30.99c3.95,12.07,8.18,14.83,12.64,21.57
					c12.25,18.54,17.49,40.69,17.94,62.44c0.33,15.71-9.8,33.2,11.73,44.26c8,4.11,16.53,6.98,25.6,8.07
					c43.89,5.25,88.41,5.93,132.46,2.02c11.95-1.06,24.72-2.81,33.52-10.39c6.35-5.47,9.7-13.22,12.87-20.7
					c8.66-20.49,17.32-40.98,25.98-61.47c3.87-9.16,7.81-18.66,7.33-28.49c-0.48-9.83-5.42-25.75-15.64-28.35
					c-6.52,37.82-15.85,82.2-38.4,114.28c-2.63,3.74-5.53,7.46-9.51,9.98c-4.57,2.9-10.16,3.99-15.6,4.91
					c-44.87,7.64-91.07,8.45-136.22,2.41c-3.6-0.48-7.33-1.06-10.31-3c-6.92-4.52-6.73-13.87-6.45-21.72
					C2162.46,3186.4,2143.19,3137.02,2113.2,3101.64"/>
				<path class="st5" d="M2159.15,3252.84c-4.74,5.16-8.78,10.87-12.01,16.95c-0.9,1.7-1.59,4.05,0,5.22
					c1.84,1.34,4.38-0.43,5.84-2.13c4.65-5.41,8.58-11.35,11.65-17.66c0.38-0.78,0.75-1.62,0.57-2.46
					c-0.33-1.54-2.44-2.24-4.05-1.79C2159.55,3251.42,2158.35,3252.64,2159.15,3252.84"/>
				<path class="st5" d="M2179.43,3261.34c-1.89,6.55-2.9,13.32-3,20.1c-0.03,1.89,0.43,4.29,2.42,4.71
					c2.28,0.48,3.76-2.14,4.29-4.25c1.7-6.74,2.49-13.67,2.35-20.59c-0.02-0.85-0.07-1.77-0.62-2.45c-1.01-1.26-3.24-1.05-4.49,0
					C2179.13,3259.9,2178.61,3261.49,2179.43,3261.34"/>
				<path class="st5" d="M2205.44,3265.1c-0.76,6.74-0.62,13.57,0.43,20.29c0.29,1.87,1.15,4.18,3.18,4.3
					c2.33,0.14,3.35-2.66,3.52-4.82c0.54-6.9,0.15-13.87-1.16-20.68c-0.16-0.84-0.37-1.74-1.03-2.33c-1.21-1.09-3.38-0.57-4.43,0.65
					C2204.9,3263.72,2204.66,3265.36,2205.44,3265.1"/>
				<path class="st5" d="M2205.44,3265.1c-0.76,6.74-0.62,13.57,0.43,20.29c0.29,1.87,1.15,4.18,3.18,4.3
					c2.33,0.14,3.35-2.66,3.52-4.82c0.54-6.9,0.15-13.87-1.16-20.68c-0.16-0.84-0.37-1.74-1.03-2.33c-1.21-1.09-3.38-0.57-4.43,0.65
					C2204.9,3263.72,2204.66,3265.36,2205.44,3265.1"/>
				<path class="st5" d="M2238.96,3267.34c-0.76,6.74-0.62,13.57,0.43,20.29c0.29,1.87,1.15,4.18,3.18,4.3
					c2.33,0.14,3.35-2.66,3.52-4.82c0.54-6.9,0.15-13.87-1.16-20.68c-0.16-0.84-0.37-1.73-1.03-2.33c-1.21-1.09-3.38-0.57-4.44,0.65
					C2238.42,3265.96,2238.17,3267.61,2238.96,3267.34"/>
				<path class="st5" d="M2268.55,3267.34c-0.76,6.74-0.62,13.57,0.43,20.29c0.29,1.87,1.15,4.18,3.18,4.3
					c2.33,0.14,3.35-2.66,3.52-4.82c0.54-6.9,0.15-13.87-1.16-20.68c-0.16-0.84-0.37-1.73-1.03-2.33c-1.21-1.09-3.38-0.57-4.44,0.65
					S2267.77,3267.61,2268.55,3267.34"/>
				<path class="st5" d="M2298.87,3268.28c0.82,6.74,2.55,13.38,5.13,19.72c0.72,1.77,2.1,3.85,4.11,3.56
					c2.31-0.33,2.65-3.27,2.32-5.42c-1.08-6.85-3.08-13.57-5.94-19.96c-0.35-0.79-0.76-1.62-1.54-2.07
					c-1.43-0.83-3.43,0.12-4.18,1.53C2298.02,3267.04,2298.16,3268.7,2298.87,3268.28"/>
				<path class="st5" d="M2330.29,3262.61c0.82,6.74,2.55,13.38,5.14,19.72c0.72,1.77,2.1,3.85,4.11,3.56
					c2.31-0.33,2.65-3.27,2.32-5.41c-1.08-6.85-3.08-13.57-5.94-19.96c-0.35-0.79-0.76-1.62-1.54-2.07
					c-1.43-0.83-3.43,0.12-4.18,1.53C2329.44,3261.37,2329.58,3263.03,2330.29,3262.61"/>
				<path class="st5" d="M2349.75,3249.26c4.8,5.11,10.29,9.66,16.3,13.51c1.67,1.07,4.08,2.06,5.56,0.76
					c1.7-1.49,0.18-4.09-1.41-5.68c-5.08-5.07-10.84-9.54-17.1-13.29c-0.77-0.46-1.62-0.93-2.54-0.89c-1.68,0.08-2.75,1.91-2.5,3.46
					S2349.42,3249.97,2349.75,3249.26"/>
				<path class="st5" d="M2361.92,3222.33c4.8,5.11,10.29,9.66,16.3,13.51c1.67,1.07,4.08,2.06,5.56,0.76
					c1.7-1.49,0.18-4.09-1.41-5.68c-5.08-5.07-10.84-9.54-17.1-13.29c-0.77-0.46-1.62-0.93-2.54-0.89c-1.68,0.08-2.75,1.91-2.5,3.46
					S2361.59,3223.04,2361.92,3222.33"/>
				<path class="st5" d="M2374.08,3195.4c4.8,5.11,10.29,9.66,16.3,13.51c1.67,1.07,4.08,2.06,5.56,0.76
					c1.7-1.49,0.18-4.09-1.41-5.68c-5.08-5.07-10.84-9.54-17.1-13.29c-0.77-0.46-1.62-0.93-2.54-0.89c-1.68,0.08-2.75,1.91-2.5,3.46
					S2373.76,3196.11,2374.08,3195.4"/>
				<path class="st5" d="M2382.67,3174.92c4.8,5.11,10.29,9.66,16.3,13.51c1.67,1.07,4.08,2.06,5.56,0.76
					c1.7-1.49,0.18-4.09-1.41-5.68c-5.08-5.07-10.84-9.54-17.1-13.29c-0.77-0.46-1.62-0.93-2.54-0.89c-1.69,0.08-2.75,1.91-2.5,3.46
					C2381.22,3174.35,2382.35,3175.63,2382.67,3174.92"/>
				<path class="st3" d="M1863.49,3039.99c8.12-1.19,16.27-2.38,24.49-2.42c-5.82,2.33-11.37,5.23-16.52,8.66
					c-1.85,1.23-3.71,2.55-5.9,3.1c-2.2,0.55-4.86,0.12-6.16-1.62C1857.62,3045.34,1858.91,3040.66,1863.49,3039.99"/>
				<path class="st3" d="M1948.13,3033.83c-0.8,3.97-0.88,8.39,1.61,11.7c2.11,2.8,5.98,4.37,9.62,3.89
					c4.79-0.63,8.4-4.29,11.28-7.9c0.6-0.76,1.22-1.54,2.1-2.02c0.88-0.48,2.09-0.56,2.84,0.08c0.38,0.32,0.6,0.77,0.73,1.23
					c0.94,3.23-1.64,6.36-4.2,8.71c-2.04,1.88-4.23,3.69-6.82,4.85c-5.97,2.68-13.66,1.32-18.41-2.98
					c-4.75-4.3-6.44-11.17-4.52-17.07c0.45-1.38,1.23-2.85,2.69-3.33C1946.5,3030.51,1948.52,3031.88,1948.13,3033.83"/>
			</g>
			<g>
				<path class="st2" d="M3110.21,1446.69c120.57-4.08,241.78,6.44,359.03,31.16c17.91,3.78,37.46,8.95,47.09,22.57
					c13.64,19.28-1.25,45.99-24.06,56.96c-22.81,10.96-50.33,10.53-76.4,9.81c-86.15-2.39-172.29-4.79-258.44-7.18
					c-121.72-3.38-244.33-6.86-363.09-30.26c-23.3-4.59-50.58-13.61-54.94-33.98c-4.16-19.42,16.2-36.54,37.17-44.27
					c29.16-10.75,61.81-11.32,93.5-11.07C2968.23,1441.21,3066.33,1448.17,3110.21,1446.69"/>
				<path class="st3" d="M3408.34,1018.08c-15.36-2.56-31.28-6.3-41.15-14.36c-9.2-7.51-11.62-17.5-13.74-26.99
					c-0.13-0.61-0.19-1.35,0.58-1.7c0.65-0.3,1.54-0.16,2.29,0.01c14.28,3.09,26.75,9.3,35.86,17.08
					C3401.3,999.89,3407.14,1009.18,3408.34,1018.08"/>
				<path class="st3" d="M2992.3,1255.53c17.45,10.54,25.48,29.21,25.11,46.97c-0.37,17.75-8.03,34.84-16.84,51.07
					c-8.98,16.53-19.27,35.81-8.86,51.76c3.23,4.94,8.46,9.75,7.42,15.29c-0.71,3.79-4.27,6.77-5.88,10.37
					c-2.63,5.84,0.13,12.29,2.88,18.09c6.98,14.74,14.74,30.34,30.49,39.48c7.85,4.55,17.2,7.17,24.94,11.85
					c7.75,4.67,13.94,12.61,11.23,20.17c-16.42-1.31-32.72-3.6-48.74-6.85c-3.85-0.78-7.77-1.64-11.07-3.45
					c-6.84-3.75-9.69-10.68-12.51-17.01c-10-22.45-25.17-43.35-44.47-61.28c-3.9-3.62-8.1-7.32-9.59-11.99
					c-3.71-11.56,10.36-21.83,12.59-33.65c1.93-10.2-5.13-19.89-11.04-29c-13.27-20.45-22.06-44.13-16.01-66.75
					C2927.99,1267.97,2959.28,1235.59,2992.3,1255.53"/>
				<path class="st3" d="M3206.32,1251.27c17.56-1.66,33.57,11.28,40.21,26.34c6.64,15.06,6.13,31.85,6.04,48.1
					c-0.09,16.25,0.53,33.24,9.02,47.49c6.49,10.9,17.59,23.41,10.38,33.93c-2.89,4.21-8.05,6.51-12.78,8.92
					c-15.65,7.99-29.21,19.43-39.21,33.09c-3.44,4.7-6.51,9.77-7.59,15.35c-2.92,15.09,9.19,30.09,6.31,45.19
					c-23.24-10.91-39.71-33.18-42.23-57.09c-0.33-3.09-0.38-6.41,1.41-9.05c2.15-3.18,6.35-4.52,10.12-5.95
					c14.66-5.58,28.06-18.31,26.33-32.83c-0.76-6.36-4.26-13.11-1.05-18.78c1.26-2.22,3.42-3.92,4.75-6.1
					c5.31-8.68-4.25-18.44-12.53-24.86c-13.94-10.79-27.2-22.95-35.06-38.07c-7.87-15.12-9.61-33.75-0.76-48.4
					S3199.48,1245.26,3206.32,1251.27"/>
				<path class="st4" d="M3388.82,1011.09c26.19,7.4,52.39,14.81,78.58,22.21c14.85,4.2,30.69,8.99,39.71,19.52
					c8.77,10.23,8.81,24.95,0.1,35.22c-8.71,10.27-25.57,15.38-40.35,12.24c-5.24-1.12-10.28-3.17-15.7-3.23
					c-21.57-0.25-31.25,29.1-52.68,27.08c5.69,40.61,0.35,82.23-15.54,120.99c-5.37,13.09-12.05,26.04-22.65,36.78
					c-15.74,15.96-39.11,25.91-63.3,31.26c-37.46,8.28-78.21,6.21-111.98-4.11c-29.84,45.18-27.39,99.45-24.17,150.74
					c1.18,18.79,4.29,40.6,27.31,48.55c4.77,1.65,7.98,5.5,7.46,9.72c-0.63,5.06-5.45,5.92-9.77,6.55l-53.03,7.79
					c-24.36-27.6,7.25-68.48-9.34-99.7c-3.52-6.61-9.23-12.91-8.96-20.12c0.17-4.56,2.76-8.78,5.05-12.94
					c14.71-26.76,18.5-57.45,10.64-86.07c-51.82,9.46-107.09,5.85-156.43-10.21c-7.26-2.36-15.7-4.95-22.49-1.78
					c-3.21,1.5-5.43,4.07-7.53,6.55c-16.21,19.1-32.42,38.19-48.63,57.29c-4.48,5.27-9.13,10.99-9.13,17.41
					c0.01,7.63,6.68,14.87,4.77,22.33c-1.91,7.44-11.39,11.72-16.37,18.14c-5.88,7.59-4.91,17.32-3.72,26.26
					c3.03,22.9,7.64,48.29,30.73,62.09c1.84,1.1,3.49,2.45,4.5,4.12c4.63,7.69-7.36,12.53-15.93,11.05
					c-7.69-1.33-14.8-5.29-22.64-4.92c-12.84,0.61-18.23,5.67-30.64,2.92c-15.35-3.4-8.07-17.65-2.66-29.9
					c10.54-23.86,13.45-49.94,8.38-74.96c-1.71-8.4-12.8-14.21-10.65-22.54c3.08-11.93,15.04-20.69,23.73-30.6
					c23.7-27.01,23.18-62.85,25.31-96.05s10.78-70.33,44.44-88.95c-20.67-1.84-35.9,15.85-41.58,32.22s-7.65,34.93-22.42,46.91
					c-4.63,3.76-10.52,6.87-12.88,11.85c-2.01,4.24-1.02,9-1.58,13.53c-2.05,16.55-29.39,26.72-45.97,17.1
					c-2.2-9.69,5.92-19.02,15.33-25.17s20.59-10.58,28.65-17.91c23.51-21.37,12.87-59.4,38.99-78.62
					c6.91-5.08,15.63-8.14,23.56-12.1c28.89-14.41,46.19-39.93,69.39-60.08c23.2-20.15,60.5-35.55,90.14-22.21
					c6.15-18.32,18.17-35.76,36.57-47.34s43.62-16.61,65.63-10.58c37.74,10.33,53.49,46.8,58.81,79.08
					c5.32,32.29-3.55,91.43,22.55,116.03c4.69,4.42,12.84,6.65,21.81,7.63c23.38,2.55,44.94-10.81,49.05-29.83
					c0,0,18.62-75.93,18.62-179.66c-8.85-12.64-11.87-27.95-8.33-42.23C3353.74,982.92,3368.04,1005.21,3388.82,1011.09"/>
				<path class="st3" d="M3456.19,1097.93c-10-5.35-20.01-10.69-30.01-16.04c-1.54-0.83-3.23-1.68-5.04-1.56
					c-1.63,0.11-3.08,1.03-4.07,2.16c-2.57,2.91-2.48,7.15-0.52,10.39c1.96,3.24,5.51,5.58,9.31,7.16
					C3435.21,1103.92,3446.74,1103.57,3456.19,1097.93"/>
				<path class="st5" d="M3232.35,1131.89c2.67-25.64-2.87-52.68-18.47-74.59c-16.42-23.06-47.51-37.66-78.75-36.99
					c-31.24,0.67-61.46,16.6-76.54,40.34c-3.87,6.09-6.95,12.81-12.87,17.5c-12.23,9.68-31.32,7.3-47.16,11.47
					c-19.68,5.18-33.39,20.21-45.8,34.42c-4.59,5.25-9.29,10.72-11.01,17.13c-1.51,5.64-0.58,11.54,0.56,17.25
					c5.43,27.18,15.5,53.67,29.78,78.32c5.43,9.37,11.72,18.75,21.37,25.06c14.08,9.21,32.83,10.45,50.44,11.24
					c46.13,2.07,93.76,3.29,136.96-10.89c6.57-2.16,13.5-5.05,16.63-10.51c2.93-5.11,1.82-11.16,1.08-16.83
					c-2.96-22.82,1.58-46.34,12.96-67.09C3219.65,1152.97,3230.54,1149.31,3232.35,1131.89"/>
				<path class="st6" d="M3231.39,1106.01c5.1,6.78,0.98,28.42,0.21,30.61c-4.18,11.92-8.65,14.65-13.37,21.31
					c-12.96,18.31-18.5,40.19-18.98,61.68c-0.35,15.52,10.36,32.79-12.41,43.71c-8.46,4.06-17.49,6.9-27.08,7.97
					c-46.42,5.19-93.51,5.86-140.09,1.99c-12.64-1.05-26.15-2.78-35.46-10.27c-6.71-5.4-10.26-13.06-13.61-20.45l-27.48-60.72
					c-4.09-9.05-8.26-18.43-7.75-28.14c0.51-9.71,5.73-25.43,16.55-28c6.89,37.36,16.76,81.2,40.61,112.88
					c2.78,3.7,5.85,7.36,10.06,9.86c4.83,2.86,10.74,3.94,16.5,4.85c47.46,7.54,96.32,8.35,144.08,2.38
					c3.81-0.48,7.76-1.05,10.9-2.97c7.32-4.47,7.12-13.7,6.82-21.46C3179.29,1189.73,3199.67,1140.96,3231.39,1106.01"/>
				<path class="st5" d="M3182.78,1255.35c5.01,5.1,9.29,10.74,12.7,16.74c0.95,1.67,1.69,4-0.01,5.15
					c-1.94,1.32-4.64-0.43-6.18-2.1c-4.92-5.34-9.07-11.21-12.33-17.44c-0.4-0.77-0.8-1.6-0.61-2.43c0.35-1.52,2.58-2.21,4.29-1.77
					C3182.37,1253.95,3183.64,1255.16,3182.78,1255.35"/>
				<path class="st5" d="M3161.34,1263.76c2,6.47,3.07,13.15,3.18,19.85c0.03,1.87-0.46,4.24-2.56,4.65
					c-2.41,0.47-3.98-2.11-4.54-4.2c-1.8-6.66-2.64-13.51-2.49-20.34c0.02-0.84,0.07-1.75,0.66-2.42c1.07-1.24,3.43-1.04,4.75,0
					C3161.66,1262.33,3162.2,1263.9,3161.34,1263.76"/>
				<path class="st5" d="M3133.82,1267.46c0.81,6.66,0.65,13.41-0.45,20.04c-0.31,1.85-1.22,4.13-3.37,4.25
					c-2.46,0.14-3.54-2.63-3.72-4.76c-0.57-6.82-0.16-13.7,1.22-20.43c0.17-0.83,0.39-1.71,1.08-2.3c1.28-1.08,3.57-0.56,4.69,0.65
					C3134.39,1266.1,3134.65,1267.73,3133.82,1267.46"/>
				<path class="st5" d="M3133.82,1267.46c0.81,6.66,0.65,13.41-0.45,20.04c-0.31,1.85-1.22,4.13-3.37,4.25
					c-2.46,0.14-3.54-2.63-3.72-4.76c-0.57-6.82-0.16-13.7,1.22-20.43c0.17-0.83,0.39-1.71,1.08-2.3c1.28-1.08,3.57-0.56,4.69,0.65
					C3134.39,1266.1,3134.65,1267.73,3133.82,1267.46"/>
				<path class="st5" d="M3098.38,1269.68c0.81,6.66,0.65,13.41-0.45,20.04c-0.31,1.85-1.22,4.13-3.37,4.25
					c-2.46,0.14-3.54-2.63-3.72-4.76c-0.57-6.82-0.16-13.7,1.22-20.43c0.17-0.83,0.39-1.71,1.08-2.3c1.28-1.08,3.57-0.56,4.69,0.65
					C3098.95,1268.32,3099.2,1269.94,3098.38,1269.68"/>
				<path class="st5" d="M3067.08,1269.68c0.81,6.66,0.65,13.41-0.46,20.04c-0.31,1.85-1.22,4.13-3.37,4.25
					c-2.46,0.14-3.54-2.63-3.72-4.76c-0.57-6.82-0.16-13.7,1.22-20.43c0.17-0.83,0.39-1.71,1.08-2.3c1.28-1.08,3.57-0.56,4.69,0.65
					S3067.91,1269.94,3067.08,1269.68"/>
				<path class="st5" d="M3035.01,1270.61c-0.87,6.65-2.7,13.21-5.43,19.48c-0.76,1.75-2.22,3.8-4.34,3.52
					c-2.44-0.33-2.81-3.23-2.45-5.35c1.14-6.77,3.25-13.41,6.28-19.72c0.37-0.78,0.81-1.6,1.63-2.05c1.52-0.82,3.63,0.12,4.42,1.51
					C3035.91,1269.39,3035.75,1271.02,3035.01,1270.61"/>
				<path class="st5" d="M3001.78,1265.01c-0.87,6.65-2.7,13.21-5.43,19.48c-0.76,1.75-2.22,3.8-4.34,3.52
					c-2.44-0.33-2.81-3.23-2.45-5.35c1.14-6.76,3.25-13.4,6.28-19.72c0.37-0.78,0.81-1.6,1.63-2.05c1.52-0.82,3.63,0.12,4.42,1.51
					C3002.67,1263.78,3002.52,1265.42,3001.78,1265.01"/>
				<path class="st5" d="M2981.19,1251.82c-5.08,5.04-10.88,9.54-17.24,13.35c-1.77,1.06-4.32,2.03-5.88,0.75
					c-1.79-1.47-0.19-4.04,1.49-5.61c5.37-5,11.46-9.42,18.09-13.13c0.82-0.46,1.71-0.92,2.68-0.88c1.78,0.08,2.91,1.89,2.65,3.42
					C2982.73,1251.26,2981.54,1252.52,2981.19,1251.82"/>
				<path class="st5" d="M2968.33,1225.22c-5.08,5.04-10.88,9.54-17.24,13.35c-1.77,1.06-4.32,2.03-5.88,0.75
					c-1.79-1.47-0.19-4.04,1.49-5.61c5.37-5,11.46-9.42,18.09-13.13c0.82-0.46,1.71-0.92,2.68-0.88c1.78,0.08,2.91,1.89,2.65,3.42
					C2969.86,1224.66,2968.67,1225.92,2968.33,1225.22"/>
				<path class="st5" d="M2955.46,1198.62c-5.08,5.05-10.88,9.54-17.24,13.35c-1.77,1.06-4.32,2.03-5.88,0.75
					c-1.79-1.47-0.19-4.04,1.49-5.61c5.37-5,11.46-9.42,18.09-13.13c0.82-0.46,1.71-0.92,2.68-0.88c1.78,0.08,2.91,1.89,2.65,3.42
					C2956.99,1198.06,2955.8,1199.32,2955.46,1198.62"/>
				<path class="st5" d="M2946.37,1178.39c-5.08,5.04-10.89,9.54-17.24,13.35c-1.77,1.06-4.32,2.03-5.88,0.75
					c-1.79-1.47-0.19-4.04,1.49-5.61c5.37-5,11.46-9.42,18.09-13.13c0.82-0.46,1.71-0.92,2.68-0.88c1.78,0.08,2.91,1.89,2.65,3.42
					C2947.91,1177.83,2946.71,1179.1,2946.37,1178.39"/>
				<path class="st3" d="M3405.98,1039.04c0.85,3.92,0.93,8.29-1.7,11.56c-2.23,2.77-6.32,4.31-10.17,3.84
					c-5.07-0.62-8.88-4.24-11.93-7.81c-0.64-0.75-1.29-1.52-2.22-1.99c-0.92-0.47-2.21-0.55-3,0.07c-0.4,0.32-0.63,0.77-0.77,1.22
					c-1,3.19,1.74,6.29,4.45,8.61c2.16,1.86,4.47,3.64,7.21,4.79c6.32,2.65,14.45,1.3,19.47-2.95c5.02-4.25,6.81-11.04,4.78-16.86
					c-0.47-1.37-1.3-2.82-2.85-3.29C3407.7,1035.76,3405.57,1037.1,3405.98,1039.04"/>
			</g>
			<polygon class="st7" points="189.04,150 -120,544.77 118.04,550 			"/>
			<polygon class="st8" points="189.04,150 660,544.77 105.28,550 			"/>
			<path class="st7" d="M196.18,406.33c19.88-7.25,41.84-10.32,63.39-8.87c1.6,0.11,3.28,0.27,4.57,1.08
				c1.43,0.91,2.09,2.44,2.62,3.89c2.4,6.54,3.86,13.32,4.33,20.16c0.07,1.02,0.06,2.17-0.81,2.87c-0.66,0.53-1.63,0.64-2.53,0.71
				c-20.83,1.83-41.73,3.02-62.66,3.59c-2.27,0.06-4.82,0.03-6.43-1.34c-1.16-0.98-1.54-2.42-1.89-3.78
				C195.88,421.12,195,417.57,196.18,406.33"/>
			<path class="st7" d="M284.48,489.99c19.88-7.25,41.84-10.32,63.39-8.87c1.6,0.11,3.29,0.27,4.57,1.08
				c1.43,0.91,2.09,2.44,2.62,3.89c2.4,6.54,3.86,13.32,4.33,20.16c0.07,1.02,0.06,2.17-0.81,2.87c-0.66,0.53-1.63,0.64-2.53,0.71
				c-20.83,1.83-41.73,3.02-62.66,3.59c-2.27,0.06-4.82,0.03-6.43-1.34c-1.15-0.98-1.54-2.42-1.89-3.78
				C284.19,504.78,283.3,501.23,284.48,489.99"/>
			<path class="st7" d="M359.99,389.99c19.88-7.25,41.84-10.32,63.39-8.87c1.6,0.11,3.29,0.27,4.57,1.08
				c1.43,0.91,2.09,2.44,2.62,3.89c2.4,6.54,3.86,13.32,4.33,20.16c0.07,1.02,0.06,2.17-0.81,2.87c-0.66,0.53-1.63,0.64-2.53,0.71
				c-20.83,1.83-41.73,3.02-62.66,3.59c-2.27,0.06-4.82,0.03-6.43-1.34c-1.16-0.98-1.54-2.42-1.89-3.78
				C359.69,404.78,358.81,401.23,359.99,389.99"/>
			<path class="st7" d="M284.48,329.64c19.88-7.25,41.84-10.32,63.39-8.87c1.6,0.11,3.29,0.27,4.57,1.08
				c1.43,0.91,2.09,2.44,2.62,3.89c2.4,6.54,3.86,13.32,4.33,20.16c0.07,1.02,0.06,2.17-0.81,2.87c-0.66,0.53-1.63,0.64-2.53,0.71
				c-20.83,1.83-41.73,3.02-62.66,3.59c-2.27,0.06-4.82,0.03-6.43-1.34c-1.15-0.98-1.54-2.42-1.89-3.78
				C284.19,344.43,283.3,340.88,284.48,329.64"/>
			<path class="st7" d="M467.49,466.24c19.88-7.25,41.84-10.32,63.39-8.87c1.6,0.11,3.28,0.27,4.57,1.08
				c1.43,0.91,2.09,2.44,2.62,3.89c2.4,6.54,3.86,13.32,4.33,20.16c0.07,1.02,0.06,2.17-0.81,2.87c-0.66,0.53-1.63,0.64-2.53,0.71
				c-20.83,1.83-41.73,3.02-62.66,3.59c-2.27,0.06-4.82,0.03-6.43-1.34c-1.16-0.98-1.54-2.42-1.89-3.78
				C467.2,481.03,466.31,477.48,467.49,466.24"/>
			<path class="st7" d="M140.05,313.3c19.88-7.25,41.84-10.32,63.39-8.87c1.6,0.11,3.28,0.27,4.57,1.08
				c1.43,0.91,2.09,2.44,2.62,3.89c2.4,6.54,3.86,13.32,4.33,20.16c0.07,1.02,0.06,2.17-0.81,2.87c-0.66,0.53-1.63,0.64-2.53,0.71
				c-20.83,1.83-41.73,3.02-62.66,3.59c-2.27,0.06-4.82,0.03-6.43-1.34c-1.15-0.98-1.54-2.42-1.89-3.78
				C139.76,328.09,138.87,324.54,140.05,313.3"/>
			<path class="st7" d="M86.3,498.92c19.88-7.25,41.84-10.32,63.39-8.87c1.6,0.11,3.29,0.27,4.57,1.08
				c1.43,0.91,2.09,2.44,2.62,3.89c2.4,6.54,3.86,13.32,4.33,20.16c0.07,1.02,0.06,2.17-0.81,2.87c-0.66,0.53-1.63,0.64-2.53,0.71
				c-20.83,1.83-41.73,3.02-62.66,3.59c-2.27,0.06-4.82,0.03-6.43-1.34c-1.15-0.98-1.54-2.42-1.89-3.78
				C86.01,513.71,85.12,510.16,86.3,498.92"/>
			<path class="st7" d="M189.61,229.64c19.89-7.25,41.84-10.32,63.39-8.87c1.6,0.11,3.29,0.27,4.57,1.08
				c1.43,0.91,2.09,2.44,2.62,3.89c2.4,6.54,3.86,13.32,4.33,20.16c0.07,1.02,0.06,2.17-0.81,2.87c-0.66,0.53-1.63,0.64-2.53,0.71
				c-20.83,1.83-41.73,3.02-62.66,3.59c-2.27,0.06-4.82,0.03-6.43-1.34c-1.15-0.98-1.54-2.42-1.88-3.78
				C189.32,244.43,188.43,240.88,189.61,229.64"/>
			<g>
				<polygon class="st7" points="582.77,1252.53 273.72,1647.3 511.76,1652.53 				"/>
				<polygon class="st8" points="582.77,1252.53 1053.72,1647.3 499,1652.53 				"/>
				<path class="st7" d="M589.9,1508.86c19.88-7.25,41.84-10.32,63.39-8.87c1.6,0.11,3.28,0.27,4.57,1.08
					c1.43,0.91,2.09,2.44,2.62,3.89c2.4,6.54,3.86,13.32,4.33,20.16c0.07,1.02,0.06,2.17-0.81,2.87c-0.66,0.53-1.63,0.64-2.53,0.71
					c-20.83,1.83-41.73,3.02-62.66,3.59c-2.27,0.06-4.82,0.03-6.43-1.34c-1.16-0.98-1.55-2.42-1.89-3.78
					C589.61,1523.65,588.72,1520.1,589.9,1508.86"/>
				<path class="st7" d="M678.2,1592.52c19.88-7.25,41.84-10.32,63.39-8.87c1.6,0.11,3.28,0.27,4.57,1.08
					c1.43,0.91,2.09,2.44,2.62,3.89c2.4,6.54,3.86,13.32,4.33,20.16c0.07,1.02,0.06,2.17-0.81,2.87c-0.66,0.53-1.63,0.64-2.53,0.71
					c-20.83,1.83-41.73,3.02-62.66,3.59c-2.27,0.06-4.82,0.03-6.43-1.34c-1.16-0.98-1.54-2.42-1.89-3.78
					C677.91,1607.31,677.03,1603.76,678.2,1592.52"/>
				<path class="st7" d="M753.71,1492.52c19.88-7.25,41.84-10.32,63.39-8.87c1.6,0.11,3.29,0.27,4.57,1.08
					c1.43,0.91,2.09,2.44,2.62,3.89c2.4,6.54,3.86,13.32,4.33,20.16c0.07,1.02,0.06,2.17-0.81,2.87c-0.66,0.53-1.63,0.64-2.53,0.71
					c-20.83,1.83-41.73,3.02-62.66,3.59c-2.27,0.06-4.82,0.03-6.43-1.34c-1.15-0.98-1.54-2.42-1.89-3.78
					C753.42,1507.31,752.53,1503.76,753.71,1492.52"/>
				<path class="st7" d="M678.2,1432.17c19.88-7.25,41.84-10.32,63.39-8.87c1.6,0.11,3.28,0.27,4.57,1.08
					c1.43,0.91,2.09,2.44,2.62,3.89c2.4,6.54,3.86,13.32,4.33,20.16c0.07,1.02,0.06,2.17-0.81,2.87c-0.66,0.53-1.63,0.64-2.53,0.71
					c-20.83,1.83-41.73,3.02-62.66,3.59c-2.27,0.06-4.82,0.03-6.43-1.34c-1.16-0.98-1.54-2.42-1.89-3.78
					C677.91,1446.95,677.03,1443.41,678.2,1432.17"/>
				<path class="st7" d="M861.21,1568.77c19.88-7.25,41.84-10.32,63.39-8.87c1.6,0.11,3.28,0.27,4.57,1.08
					c1.43,0.91,2.09,2.44,2.62,3.89c2.4,6.54,3.86,13.32,4.33,20.16c0.07,1.02,0.06,2.17-0.81,2.87c-0.66,0.53-1.63,0.64-2.53,0.71
					c-20.83,1.83-41.73,3.02-62.66,3.59c-2.27,0.06-4.82,0.03-6.43-1.34c-1.16-0.98-1.54-2.42-1.89-3.78
					C860.92,1583.56,860.03,1580.01,861.21,1568.77"/>
				<path class="st7" d="M533.77,1415.83c19.88-7.25,41.84-10.32,63.39-8.87c1.6,0.11,3.28,0.27,4.57,1.08
					c1.43,0.91,2.09,2.44,2.62,3.89c2.4,6.54,3.86,13.32,4.33,20.16c0.07,1.02,0.06,2.17-0.81,2.87c-0.66,0.53-1.63,0.64-2.53,0.71
					c-20.83,1.83-41.73,3.02-62.66,3.59c-2.27,0.06-4.82,0.03-6.43-1.34c-1.15-0.98-1.54-2.42-1.89-3.78
					C533.48,1430.61,532.6,1427.07,533.77,1415.83"/>
				<path class="st7" d="M480.02,1601.45c19.88-7.25,41.84-10.32,63.39-8.87c1.6,0.11,3.28,0.27,4.57,1.08
					c1.43,0.91,2.09,2.44,2.62,3.89c2.4,6.54,3.86,13.32,4.33,20.16c0.07,1.02,0.06,2.17-0.81,2.87c-0.66,0.53-1.63,0.64-2.53,0.72
					c-20.83,1.83-41.73,3.02-62.66,3.59c-2.27,0.06-4.82,0.03-6.43-1.34c-1.16-0.98-1.55-2.42-1.89-3.78
					C479.73,1616.24,478.85,1612.69,480.02,1601.45"/>
				<path class="st7" d="M583.33,1332.17c19.88-7.25,41.84-10.32,63.39-8.87c1.6,0.11,3.28,0.27,4.57,1.08
					c1.43,0.91,2.09,2.44,2.62,3.89c2.4,6.54,3.86,13.32,4.33,20.16c0.07,1.02,0.06,2.17-0.81,2.87c-0.66,0.53-1.63,0.64-2.53,0.71
					c-20.83,1.83-41.73,3.02-62.66,3.59c-2.27,0.06-4.82,0.03-6.43-1.34c-1.16-0.98-1.54-2.42-1.89-3.78
					C583.04,1346.95,582.16,1343.41,583.33,1332.17"/>
			</g>
			<g>
				<polygon class="st7" points="3064.87,2471.67 2755.83,2866.44 2993.86,2871.67 				"/>
				<polygon class="st8" points="3064.87,2471.67 3535.83,2866.44 2981.11,2871.67 				"/>
				<path class="st7" d="M3072,2728c19.88-7.25,41.84-10.32,63.39-8.87c1.6,0.11,3.29,0.27,4.58,1.08c1.43,0.91,2.09,2.44,2.62,3.89
					c2.4,6.54,3.86,13.32,4.33,20.16c0.07,1.02,0.06,2.17-0.81,2.87c-0.66,0.53-1.63,0.64-2.53,0.71
					c-20.83,1.83-41.73,3.02-62.66,3.59c-2.27,0.06-4.82,0.03-6.43-1.34c-1.16-0.98-1.54-2.42-1.88-3.78
					C3071.71,2742.78,3070.82,2739.24,3072,2728"/>
				<path class="st7" d="M3160.3,2811.66c19.88-7.25,41.84-10.32,63.39-8.87c1.6,0.11,3.29,0.27,4.58,1.08
					c1.43,0.91,2.09,2.44,2.62,3.89c2.4,6.54,3.86,13.32,4.33,20.16c0.07,1.02,0.06,2.17-0.81,2.87c-0.66,0.53-1.63,0.64-2.53,0.71
					c-20.83,1.83-41.73,3.02-62.66,3.59c-2.27,0.06-4.82,0.03-6.43-1.34c-1.16-0.98-1.55-2.42-1.88-3.78
					C3160.01,2826.44,3159.13,2822.9,3160.3,2811.66"/>
				<path class="st7" d="M3235.81,2711.66c19.88-7.25,41.84-10.32,63.39-8.87c1.6,0.11,3.29,0.27,4.58,1.08
					c1.43,0.91,2.08,2.44,2.62,3.89c2.4,6.54,3.86,13.32,4.33,20.16c0.07,1.02,0.06,2.17-0.81,2.87c-0.66,0.53-1.63,0.64-2.54,0.71
					c-20.83,1.83-41.73,3.02-62.66,3.59c-2.27,0.06-4.82,0.03-6.43-1.34c-1.16-0.98-1.55-2.42-1.88-3.78
					C3235.52,2726.44,3234.63,2722.9,3235.81,2711.66"/>
				<path class="st7" d="M3160.3,2651.31c19.88-7.25,41.84-10.32,63.39-8.87c1.6,0.11,3.29,0.27,4.58,1.08
					c1.43,0.91,2.09,2.44,2.62,3.89c2.4,6.54,3.86,13.32,4.33,20.16c0.07,1.02,0.06,2.17-0.81,2.87c-0.66,0.53-1.63,0.64-2.53,0.72
					c-20.83,1.83-41.73,3.02-62.66,3.59c-2.27,0.06-4.82,0.03-6.43-1.34c-1.16-0.98-1.55-2.42-1.88-3.78
					C3160.01,2666.09,3159.13,2662.55,3160.3,2651.31"/>
				<path class="st7" d="M3343.31,2787.91c19.88-7.25,41.84-10.32,63.39-8.87c1.6,0.11,3.29,0.27,4.58,1.08
					c1.43,0.91,2.09,2.44,2.62,3.89c2.4,6.54,3.86,13.32,4.33,20.16c0.07,1.02,0.06,2.17-0.81,2.87c-0.66,0.53-1.63,0.64-2.53,0.72
					c-20.83,1.83-41.73,3.02-62.66,3.59c-2.27,0.06-4.82,0.03-6.43-1.34c-1.16-0.98-1.55-2.42-1.88-3.78
					C3343.02,2802.69,3342.13,2799.15,3343.31,2787.91"/>
				<path class="st7" d="M3015.88,2634.97c19.88-7.25,41.84-10.32,63.39-8.87c1.6,0.11,3.29,0.27,4.57,1.08
					c1.43,0.91,2.09,2.44,2.62,3.89c2.4,6.54,3.86,13.32,4.33,20.16c0.07,1.02,0.06,2.17-0.81,2.87c-0.66,0.53-1.63,0.64-2.53,0.72
					c-20.83,1.83-41.73,3.02-62.66,3.59c-2.27,0.06-4.82,0.03-6.43-1.34c-1.16-0.98-1.54-2.42-1.88-3.78
					C3015.58,2649.75,3014.7,2646.21,3015.88,2634.97"/>
				<path class="st7" d="M2962.13,2820.59c19.88-7.25,41.84-10.32,63.39-8.87c1.6,0.11,3.29,0.27,4.58,1.08
					c1.43,0.91,2.09,2.44,2.62,3.89c2.4,6.54,3.86,13.32,4.33,20.16c0.07,1.02,0.06,2.17-0.81,2.87c-0.66,0.53-1.63,0.64-2.53,0.72
					c-20.83,1.83-41.73,3.02-62.66,3.59c-2.27,0.06-4.82,0.03-6.43-1.34c-1.16-0.98-1.55-2.42-1.88-3.78
					C2961.83,2835.37,2960.95,2831.83,2962.13,2820.59"/>
				<path class="st7" d="M3065.43,2551.31c19.88-7.25,41.84-10.32,63.39-8.87c1.6,0.11,3.29,0.27,4.58,1.08
					c1.43,0.91,2.09,2.44,2.62,3.89c2.4,6.54,3.86,13.32,4.33,20.16c0.07,1.02,0.06,2.17-0.81,2.87c-0.66,0.53-1.63,0.64-2.53,0.72
					c-20.83,1.83-41.73,3.02-62.66,3.59c-2.27,0.06-4.82,0.03-6.43-1.34c-1.16-0.98-1.54-2.42-1.88-3.78
					C3065.14,2566.09,3064.26,2562.55,3065.43,2551.31"/>
			</g>
			<g>
				<polygon class="st7" points="441.04,3347.35 132,3742.13 370.04,3747.35 				"/>
				<polygon class="st8" points="441.04,3347.35 912,3742.13 357.28,3747.35 				"/>
				<path class="st7" d="M448.18,3603.69c19.88-7.25,41.84-10.32,63.39-8.87c1.6,0.11,3.28,0.27,4.57,1.08
					c1.43,0.91,2.09,2.44,2.62,3.89c2.4,6.54,3.86,13.32,4.33,20.16c0.07,1.02,0.06,2.17-0.81,2.87c-0.66,0.53-1.63,0.64-2.53,0.71
					c-20.83,1.83-41.73,3.02-62.66,3.59c-2.27,0.06-4.82,0.03-6.43-1.34c-1.16-0.98-1.54-2.42-1.89-3.78
					C447.88,3618.47,447,3614.93,448.18,3603.69"/>
				<path class="st7" d="M536.48,3687.35c19.88-7.25,41.84-10.32,63.39-8.87c1.6,0.11,3.29,0.27,4.57,1.08
					c1.43,0.91,2.09,2.44,2.62,3.89c2.4,6.54,3.86,13.32,4.33,20.16c0.07,1.02,0.06,2.17-0.81,2.87c-0.66,0.53-1.63,0.64-2.53,0.71
					c-20.83,1.83-41.73,3.02-62.66,3.59c-2.27,0.06-4.82,0.03-6.43-1.34c-1.15-0.98-1.54-2.42-1.89-3.78
					C536.19,3702.13,535.3,3698.59,536.48,3687.35"/>
				<path class="st7" d="M611.99,3587.35c19.88-7.25,41.84-10.32,63.39-8.87c1.6,0.11,3.29,0.27,4.57,1.08
					c1.43,0.91,2.09,2.44,2.62,3.89c2.4,6.54,3.86,13.32,4.33,20.16c0.07,1.02,0.06,2.17-0.81,2.87c-0.66,0.53-1.63,0.64-2.53,0.71
					c-20.83,1.83-41.73,3.02-62.66,3.59c-2.27,0.06-4.82,0.03-6.43-1.34c-1.15-0.98-1.54-2.42-1.89-3.78
					C611.69,3602.13,610.81,3598.59,611.99,3587.35"/>
				<path class="st7" d="M536.48,3527c19.88-7.25,41.84-10.32,63.39-8.87c1.6,0.11,3.29,0.27,4.57,1.08
					c1.43,0.91,2.09,2.44,2.62,3.89c2.4,6.54,3.86,13.32,4.33,20.16c0.07,1.02,0.06,2.17-0.81,2.87c-0.66,0.53-1.63,0.64-2.53,0.72
					c-20.83,1.83-41.73,3.02-62.66,3.59c-2.27,0.06-4.82,0.03-6.43-1.34c-1.15-0.98-1.54-2.42-1.89-3.78
					C536.19,3541.78,535.3,3538.24,536.48,3527"/>
				<path class="st7" d="M719.49,3663.6c19.88-7.25,41.84-10.32,63.39-8.87c1.6,0.11,3.28,0.27,4.57,1.08
					c1.43,0.91,2.09,2.44,2.62,3.89c2.4,6.54,3.86,13.32,4.33,20.16c0.07,1.02,0.06,2.17-0.81,2.87c-0.66,0.53-1.63,0.64-2.53,0.72
					c-20.83,1.83-41.73,3.02-62.66,3.59c-2.27,0.06-4.82,0.03-6.43-1.34c-1.16-0.98-1.54-2.42-1.89-3.78
					C719.2,3678.38,718.31,3674.84,719.49,3663.6"/>
				<path class="st7" d="M392.05,3510.66c19.88-7.25,41.84-10.32,63.39-8.87c1.6,0.11,3.28,0.27,4.57,1.08
					c1.43,0.91,2.09,2.44,2.62,3.89c2.4,6.54,3.86,13.32,4.33,20.16c0.07,1.02,0.06,2.17-0.81,2.87c-0.66,0.53-1.63,0.64-2.53,0.72
					c-20.83,1.83-41.73,3.02-62.66,3.59c-2.27,0.06-4.82,0.03-6.43-1.34c-1.15-0.98-1.54-2.42-1.89-3.78
					C391.76,3525.44,390.87,3521.9,392.05,3510.66"/>
				<path class="st7" d="M338.3,3696.28c19.88-7.25,41.84-10.32,63.39-8.87c1.6,0.11,3.29,0.27,4.57,1.08
					c1.43,0.91,2.09,2.44,2.62,3.89c2.4,6.54,3.86,13.32,4.33,20.16c0.07,1.02,0.06,2.17-0.81,2.87c-0.66,0.53-1.63,0.64-2.53,0.72
					c-20.83,1.83-41.73,3.02-62.66,3.59c-2.27,0.06-4.82,0.03-6.43-1.34c-1.16-0.98-1.54-2.42-1.89-3.78
					C338.01,3711.06,337.12,3707.52,338.3,3696.28"/>
				<path class="st7" d="M441.61,3427c19.89-7.25,41.84-10.32,63.39-8.87c1.6,0.11,3.29,0.27,4.57,1.08
					c1.43,0.91,2.09,2.44,2.62,3.89c2.4,6.54,3.86,13.32,4.33,20.16c0.07,1.02,0.06,2.17-0.81,2.87c-0.66,0.53-1.63,0.64-2.53,0.72
					c-20.83,1.83-41.73,3.02-62.66,3.59c-2.27,0.06-4.82,0.03-6.43-1.34c-1.15-0.98-1.54-2.42-1.88-3.78
					C441.32,3441.78,440.43,3438.24,441.61,3427"/>
			</g>
			<g>
				<path class="st2" d="M3279.81,230.86c127.86-4.03,256.4,6.35,380.73,30.74c18.99,3.73,39.72,8.83,49.94,22.27
					c14.46,19.02-1.32,45.38-25.51,56.19c-24.19,10.82-53.38,10.39-81.02,9.67c-91.35-2.36-182.71-4.72-274.06-7.08
					c-129.08-3.34-259.1-6.77-385.04-29.85c-24.71-4.53-53.64-13.43-58.26-33.52c-4.41-19.16,17.18-36.05,39.42-43.68
					c30.93-10.61,65.55-11.17,99.15-10.92C3129.25,225.46,3233.28,232.33,3279.81,230.86"/>
				<path class="st3" d="M3154.77,42.27c18.51,10.4,27.02,28.82,26.63,46.34c-0.39,17.52-8.52,34.38-17.86,50.38
					c-9.52,16.31-20.43,35.33-9.39,51.07c3.42,4.88,8.97,9.62,7.87,15.08c-0.75,3.73-4.52,6.68-6.24,10.23
					c-2.79,5.76,0.14,12.12,3.05,17.85c7.4,14.54,15.63,29.93,32.34,38.95c8.32,4.49,18.24,7.08,26.45,11.69
					c8.21,4.61,14.79,12.44,11.91,19.9c-17.41-1.3-34.7-3.56-51.69-6.75c-4.08-0.77-8.24-1.62-11.74-3.4
					c-7.26-3.7-10.27-10.54-13.26-16.78c-10.61-22.15-26.69-42.77-47.16-60.46c-4.13-3.57-8.58-7.22-10.17-11.83
					c-3.93-11.41,10.98-21.54,13.35-33.19c2.04-10.06-5.44-19.62-11.71-28.61c-14.07-20.18-23.39-43.54-16.98-65.85
					C3086.58,54.54,3119.76,22.59,3154.77,42.27"/>
				<path class="st3" d="M3381.73,38.07c18.62-1.64,35.6,11.13,42.64,25.99c7.04,14.86,6.5,31.42,6.4,47.46
					c-0.1,16.04,0.56,32.79,9.56,46.85c6.88,10.75,18.65,23.1,11.01,33.47c-3.06,4.15-8.53,6.42-13.55,8.8
					c-16.6,7.88-30.97,19.17-41.58,32.64c-3.64,4.63-6.9,9.64-8.05,15.14c-3.09,14.89,9.75,29.69,6.7,44.58
					c-24.64-10.77-42.11-32.74-44.78-56.33c-0.34-3.05-0.4-6.33,1.49-8.92c2.28-3.14,6.73-4.46,10.73-5.87
					c15.54-5.5,29.76-18.06,27.92-32.39c-0.8-6.27-4.52-12.93-1.11-18.53c1.33-2.19,3.62-3.87,5.04-6.02
					c5.63-8.57-4.5-18.2-13.29-24.52c-14.78-10.65-28.84-22.64-37.18-37.56c-8.34-14.92-10.19-33.29-0.81-47.75
					S3374.48,32.13,3381.73,38.07"/>
				<path class="st4" d="M3575.26-198.9c27.78,7.3,55.55,14.61,83.33,21.91c15.75,4.14,32.55,8.87,42.11,19.26
					c9.3,10.1,9.34,24.62,0.11,34.75c-9.23,10.13-27.11,15.18-42.79,12.07c-5.56-1.1-10.91-3.13-16.65-3.19
					c-22.87-0.24-33.14,28.71-55.86,26.72c6.04,40.07,0.37,81.13-16.48,119.37c-5.69,12.91-12.78,25.69-24.02,36.29
					c-16.69,15.75-41.47,25.57-67.13,30.84c-39.72,8.17-82.94,6.13-118.75-4.05c-31.64,44.57-29.05,98.12-25.63,148.72
					c1.25,18.54,4.54,40.05,28.97,47.9c5.06,1.63,8.46,5.43,7.91,9.59c-0.67,4.99-5.78,5.84-10.36,6.47
					c-18.74,2.56-37.49,5.13-56.23,7.69c-25.83-27.23,7.69-67.56-9.91-98.37c-3.73-6.53-9.79-12.73-9.5-19.85
					c0.18-4.5,2.93-8.66,5.35-12.77c15.59-26.4,19.61-56.68,11.28-84.92c-54.96,9.33-113.57,5.77-165.88-10.07
					c-7.7-2.33-16.65-4.88-23.85-1.76c-3.4,1.48-5.75,4.01-7.99,6.46l-51.57,56.52c-4.75,5.2-9.68,10.85-9.68,17.18
					c0.01,7.53,7.08,14.67,5.06,22.03c-2.02,7.34-12.08,11.56-17.35,17.9c-6.24,7.49-5.2,17.09-3.95,25.91
					c3.21,22.59,8.1,47.64,32.58,61.26c1.95,1.09,3.7,2.41,4.77,4.07c4.91,7.59-7.81,12.36-16.89,10.9
					c-8.15-1.31-15.69-5.22-24.01-4.85c-13.62,0.6-19.33,5.6-32.5,2.88c-16.28-3.36-8.55-17.42-2.82-29.5
					c11.17-23.54,14.26-49.27,8.88-73.96c-1.81-8.29-13.57-14.01-11.29-22.24c3.26-11.77,15.94-20.42,25.16-30.19
					c25.13-26.65,24.58-62,26.84-94.77c2.26-32.76,11.43-69.39,47.12-87.76c-21.92-1.82-38.07,15.63-44.09,31.79
					c-6.02,16.15-8.12,34.46-23.78,46.28c-4.91,3.71-11.16,6.78-13.66,11.69c-2.14,4.19-1.08,8.88-1.68,13.35
					c-2.18,16.33-31.17,26.36-48.75,16.87c-2.33-9.56,6.28-18.76,16.26-24.83c9.98-6.07,21.83-10.44,30.38-17.67
					c24.93-21.08,13.64-58.6,41.34-77.57c7.33-5.02,16.57-8.03,24.98-11.94c30.63-14.21,48.98-39.39,73.58-59.27
					c24.6-19.88,64.16-35.08,95.59-21.91c6.52-18.08,19.27-35.28,38.78-46.71c19.51-11.43,46.25-16.39,69.6-10.44
					c40.03,10.19,56.72,46.17,62.36,78.02c5.64,31.85-3.76,90.2,23.91,114.47c4.97,4.36,13.62,6.56,23.13,7.53
					c24.79,2.52,47.66-10.67,52.02-29.42c0,0,19.74-74.92,19.74-177.26c-9.38-12.47-12.59-27.57-8.84-41.66
					C3538.07-226.69,3553.22-204.69,3575.26-198.9"/>
				<path class="st5" d="M3409.34-79.71c2.83-25.3-3.04-51.98-19.58-73.59c-17.41-22.75-50.38-37.16-83.51-36.49
					c-33.13,0.66-65.18,16.38-81.16,39.79c-4.1,6.01-7.37,12.64-13.65,17.27c-12.96,9.55-33.21,7.21-50.01,11.32
					c-20.86,5.11-35.41,19.94-48.57,33.96c-4.86,5.18-9.85,10.57-11.67,16.9c-1.6,5.57-0.61,11.39,0.6,17.02
					c5.76,26.82,16.44,52.95,31.58,77.27c5.75,9.24,12.43,18.49,22.67,24.72c14.93,9.09,34.82,10.31,53.49,11.09
					c48.92,2.05,99.43,3.24,145.24-10.74c6.97-2.13,14.31-4.99,17.63-10.37c3.11-5.04,1.93-11.01,1.15-16.61
					c-3.14-22.52,1.68-45.72,13.74-66.19C3395.86-58.92,3407.42-62.53,3409.34-79.71"/>
				<path class="st6" d="M3408.32-105.25c5.41,6.69,1.04,28.04,0.22,30.2c-4.43,11.76-9.18,14.45-14.18,21.02
					c-13.75,18.07-19.61,39.65-20.12,60.85c-0.37,15.32,10.99,32.35-13.16,43.13c-8.98,4-18.54,6.8-28.72,7.86
					c-49.22,5.12-99.16,5.78-148.56,1.97c-13.4-1.03-27.73-2.74-37.6-10.13c-7.12-5.33-10.88-12.88-14.43-20.17l-29.14-59.91
					c-4.34-8.93-8.76-18.18-8.22-27.76c0.54-9.58,6.08-25.09,17.55-27.62c7.31,36.86,17.78,80.11,43.07,111.36
					c2.95,3.65,6.21,7.26,10.66,9.72c5.12,2.83,11.39,3.89,17.49,4.79c50.32,7.44,102.15,8.24,152.79,2.35
					c4.04-0.47,8.23-1.03,11.56-2.93c7.76-4.41,7.55-13.52,7.24-21.17C3353.06-22.65,3374.68-70.77,3408.32-105.25"/>
				<path class="st5" d="M3356.77,42.09c5.31,5.03,9.85,10.59,13.47,16.52c1.01,1.65,1.79,3.95-0.01,5.08
					c-2.06,1.3-4.92-0.42-6.55-2.07c-5.22-5.27-9.62-11.06-13.07-17.21c-0.43-0.76-0.85-1.58-0.64-2.4c0.37-1.5,2.74-2.19,4.55-1.75
					C3356.33,40.71,3357.68,41.91,3356.77,42.09"/>
				<path class="st5" d="M3334.03,50.38c2.12,6.38,3.25,12.98,3.37,19.58c0.03,1.84-0.49,4.18-2.71,4.59
					c-2.55,0.46-4.22-2.09-4.81-4.14c-1.91-6.57-2.79-13.33-2.64-20.07c0.02-0.83,0.08-1.72,0.69-2.39c1.13-1.22,3.64-1.03,5.04,0
					C3334.37,48.98,3334.95,50.53,3334.03,50.38"/>
				<path class="st5" d="M3304.85,54.04c0.85,6.57,0.69,13.23-0.48,19.77c-0.33,1.82-1.29,4.07-3.57,4.19
					c-2.61,0.14-3.76-2.59-3.95-4.7c-0.61-6.73-0.17-13.51,1.29-20.15c0.18-0.82,0.41-1.69,1.15-2.27c1.35-1.07,3.79-0.55,4.97,0.64
					C3305.46,52.7,3305.73,54.3,3304.85,54.04"/>
				<path class="st5" d="M3304.85,54.04c0.85,6.57,0.69,13.23-0.48,19.77c-0.33,1.82-1.29,4.07-3.57,4.19
					c-2.61,0.14-3.76-2.59-3.95-4.7c-0.61-6.73-0.17-13.51,1.29-20.15c0.18-0.82,0.41-1.69,1.15-2.27c1.35-1.07,3.79-0.55,4.97,0.64
					C3305.46,52.7,3305.73,54.3,3304.85,54.04"/>
				<path class="st5" d="M3267.26,56.23c0.85,6.57,0.69,13.23-0.48,19.77c-0.33,1.82-1.29,4.07-3.57,4.19
					c-2.61,0.14-3.76-2.59-3.95-4.7c-0.61-6.73-0.17-13.51,1.29-20.15c0.18-0.82,0.41-1.69,1.15-2.27c1.35-1.07,3.79-0.55,4.97,0.64
					C3267.87,54.89,3268.14,56.49,3267.26,56.23"/>
				<path class="st5" d="M3234.07,56.23c0.85,6.57,0.69,13.23-0.48,19.77c-0.33,1.82-1.29,4.07-3.57,4.19
					c-2.61,0.14-3.76-2.59-3.95-4.7c-0.61-6.73-0.17-13.51,1.29-20.15c0.18-0.82,0.41-1.69,1.15-2.27c1.35-1.07,3.79-0.55,4.97,0.64
					C3234.68,54.89,3234.95,56.49,3234.07,56.23"/>
				<path class="st5" d="M3200.07,57.14c-0.92,6.57-2.86,13.04-5.76,19.22c-0.81,1.72-2.35,3.75-4.61,3.47
					c-2.59-0.32-2.97-3.19-2.6-5.28c1.21-6.67,3.45-13.22,6.66-19.45c0.4-0.77,0.85-1.58,1.73-2.02c1.61-0.8,3.85,0.12,4.69,1.49
					C3201.02,55.94,3200.86,57.55,3200.07,57.14"/>
				<path class="st5" d="M3164.82,51.62c-0.92,6.57-2.86,13.04-5.76,19.22c-0.81,1.72-2.35,3.75-4.61,3.47
					c-2.59-0.32-2.98-3.19-2.6-5.28c1.21-6.67,3.45-13.22,6.66-19.45c0.4-0.77,0.85-1.58,1.73-2.02c1.61-0.8,3.85,0.12,4.69,1.49
					C3165.78,50.41,3165.61,52.02,3164.82,51.62"/>
				<path class="st5" d="M3143,38.6c-5.39,4.98-11.54,9.41-18.28,13.17c-1.88,1.05-4.58,2.01-6.23,0.74
					c-1.9-1.45-0.2-3.99,1.58-5.53c5.7-4.94,12.16-9.3,19.19-12.95c0.87-0.45,1.82-0.91,2.85-0.87c1.89,0.08,3.08,1.86,2.81,3.38
					C3144.63,38.05,3143.36,39.3,3143,38.6"/>
				<path class="st5" d="M3129.35,12.36c-5.39,4.98-11.54,9.41-18.28,13.17c-1.88,1.05-4.58,2.01-6.23,0.74
					c-1.9-1.45-0.2-3.99,1.58-5.53c5.7-4.94,12.16-9.3,19.18-12.95c0.87-0.45,1.82-0.91,2.85-0.87c1.89,0.07,3.08,1.86,2.81,3.38
					C3130.98,11.8,3129.71,13.06,3129.35,12.36"/>
				<path class="st5" d="M3115.7-13.88c-5.39,4.98-11.54,9.41-18.28,13.17c-1.88,1.05-4.58,2.01-6.23,0.74
					c-1.9-1.45-0.2-3.99,1.58-5.53c5.7-4.94,12.16-9.3,19.19-12.95c0.87-0.45,1.82-0.91,2.85-0.87c1.89,0.07,3.08,1.86,2.81,3.38
					C3117.33-14.44,3116.07-13.19,3115.7-13.88"/>
			</g>
			<g>
				<polygon class="st7" points="1811.2,-288.29 1502.16,106.48 1740.2,111.71 				"/>
				<polygon class="st8" points="1811.2,-288.29 2282.16,106.48 1727.44,111.71 				"/>
				<path class="st7" d="M1906.64,51.7c19.88-7.25,41.84-10.32,63.39-8.87c1.6,0.11,3.28,0.27,4.57,1.08
					c1.43,0.91,2.09,2.44,2.62,3.89c2.4,6.54,3.86,13.32,4.33,20.16c0.07,1.02,0.06,2.17-0.81,2.87c-0.66,0.53-1.63,0.64-2.53,0.71
					c-20.83,1.83-41.73,3.02-62.66,3.59c-2.27,0.06-4.82,0.03-6.43-1.34c-1.16-0.98-1.54-2.42-1.88-3.78
					C1906.35,66.48,1905.46,62.94,1906.64,51.7"/>
				<path class="st7" d="M2089.65,27.95c19.88-7.25,41.84-10.32,63.39-8.87c1.6,0.11,3.28,0.27,4.57,1.08
					c1.43,0.91,2.09,2.44,2.62,3.89c2.4,6.54,3.86,13.32,4.33,20.16c0.07,1.02,0.06,2.17-0.81,2.87c-0.66,0.53-1.63,0.64-2.53,0.71
					c-20.83,1.83-41.73,3.02-62.66,3.59c-2.27,0.06-4.82,0.03-6.43-1.34c-1.16-0.98-1.54-2.42-1.88-3.78
					C2089.36,42.73,2088.47,39.19,2089.65,27.95"/>
				<path class="st7" d="M1708.46,60.63c19.88-7.25,41.84-10.32,63.39-8.87c1.6,0.11,3.28,0.27,4.57,1.08
					c1.43,0.91,2.09,2.44,2.62,3.89c2.4,6.54,3.86,13.32,4.33,20.16c0.07,1.02,0.06,2.17-0.81,2.87c-0.66,0.53-1.63,0.64-2.53,0.72
					c-20.83,1.83-41.73,3.02-62.66,3.59c-2.27,0.06-4.82,0.03-6.43-1.34c-1.16-0.98-1.54-2.42-1.88-3.78
					C1708.17,75.41,1707.28,71.87,1708.46,60.63"/>
			</g>
			<g>
				<path class="st3" d="M3595.96,3808c-16.29-2.52-33.17-6.21-43.64-14.17c-9.75-7.41-12.33-17.26-14.57-26.63
					c-0.14-0.6-0.2-1.33,0.62-1.68c0.69-0.3,1.63-0.15,2.43,0.01c15.14,3.05,28.37,9.18,38.03,16.85
					C3588.5,3790.05,3594.69,3799.22,3595.96,3808"/>
				<path class="st4" d="M3575.26,3801.1c27.78,7.3,55.55,14.61,83.33,21.91c15.75,4.14,32.55,8.87,42.11,19.26
					c9.3,10.1,9.34,24.62,0.11,34.75c-9.23,10.13-27.11,15.18-42.79,12.07c-5.56-1.1-10.91-3.13-16.65-3.19
					c-22.87-0.24-33.14,28.71-55.86,26.72c6.04,40.07,0.37,81.13-16.48,119.37c-5.69,12.91-12.78,25.69-24.02,36.29
					c-16.69,15.75-41.47,25.57-67.13,30.84c-39.72,8.17-82.94,6.13-118.75-4.05c-31.64,44.57-29.05,98.12-25.63,148.72
					c1.25,18.54,4.54,40.05,28.97,47.9c5.06,1.63,8.46,5.43,7.91,9.59c-0.67,4.99-5.78,5.84-10.36,6.47
					c-18.74,2.56-37.49,5.13-56.23,7.69c-25.83-27.23,7.69-67.56-9.91-98.37c-3.73-6.53-9.79-12.73-9.5-19.85
					c0.18-4.5,2.93-8.66,5.35-12.77c15.59-26.4,19.61-56.68,11.28-84.92c-54.96,9.33-113.57,5.77-165.88-10.07
					c-7.7-2.33-16.65-4.88-23.85-1.76c-3.4,1.48-5.75,4.01-7.99,6.46l-51.57,56.52c-4.75,5.2-9.68,10.85-9.68,17.18
					c0.01,7.53,7.08,14.67,5.06,22.03c-2.02,7.34-12.08,11.56-17.35,17.9c-6.24,7.49-5.2,17.09-3.95,25.91
					c3.21,22.59,8.1,47.64,32.58,61.26c1.95,1.09,3.7,2.41,4.77,4.07c4.91,7.59-7.81,12.36-16.89,10.9
					c-8.15-1.31-15.69-5.22-24.01-4.85c-13.62,0.6-19.33,5.6-32.5,2.88c-16.28-3.36-8.55-17.42-2.82-29.5
					c11.17-23.54,14.26-49.27,8.88-73.96c-1.81-8.29-13.57-14.01-11.29-22.24c3.26-11.77,15.94-20.42,25.16-30.19
					c25.13-26.65,24.58-62,26.84-94.77c2.26-32.76,11.43-69.39,47.12-87.76c-21.92-1.82-38.07,15.63-44.09,31.79
					s-8.12,34.46-23.78,46.28c-4.91,3.71-11.16,6.78-13.66,11.69c-2.14,4.19-1.08,8.88-1.68,13.35
					c-2.18,16.33-31.17,26.36-48.75,16.87c-2.33-9.56,6.28-18.76,16.26-24.83c9.98-6.07,21.83-10.44,30.38-17.67
					c24.93-21.08,13.64-58.6,41.34-77.57c7.33-5.02,16.57-8.03,24.98-11.94c30.63-14.21,48.98-39.39,73.58-59.27
					c24.6-19.88,64.16-35.08,95.59-21.91c6.52-18.08,19.27-35.28,38.78-46.71c19.51-11.43,46.25-16.39,69.6-10.44
					c40.03,10.19,56.72,46.17,62.36,78.02s-3.76,90.2,23.91,114.47c4.97,4.36,13.62,6.56,23.13,7.53
					c24.79,2.52,47.66-10.67,52.02-29.42c0,0,19.74-74.92,19.74-177.26c-9.38-12.47-12.59-27.57-8.84-41.66
					C3538.07,3773.31,3553.22,3795.31,3575.26,3801.1"/>
				<path class="st3" d="M3646.7,3886.78c-10.61-5.27-21.22-10.55-31.83-15.83c-1.64-0.82-3.42-1.66-5.34-1.54
					c-1.73,0.11-3.26,1.02-4.32,2.13c-2.72,2.87-2.63,7.05-0.55,10.25c2.08,3.2,5.84,5.5,9.87,7.07
					C3624.45,3892.69,3636.68,3892.34,3646.7,3886.78"/>
				<path class="st5" d="M3409.34,3920.29c2.83-25.29-3.04-51.98-19.58-73.59c-17.41-22.75-50.38-37.16-83.51-36.49
					c-33.13,0.66-65.18,16.38-81.16,39.79c-4.1,6.01-7.37,12.64-13.65,17.27c-12.96,9.55-33.21,7.21-50.01,11.32
					c-20.86,5.11-35.41,19.94-48.57,33.96c-4.86,5.18-9.85,10.57-11.67,16.9c-1.6,5.57-0.61,11.39,0.6,17.02
					c5.76,26.82,16.44,52.95,31.58,77.27c5.75,9.24,12.43,18.49,22.67,24.72c14.93,9.09,34.82,10.31,53.49,11.09
					c48.92,2.05,99.43,3.24,145.24-10.74c6.97-2.13,14.31-4.99,17.63-10.37c3.11-5.04,1.93-11.01,1.15-16.61
					c-3.14-22.52,1.68-45.72,13.74-66.19C3395.86,3941.08,3407.42,3937.47,3409.34,3920.29"/>
				<path class="st6" d="M3408.32,3894.75c5.41,6.69,1.04,28.04,0.22,30.2c-4.43,11.76-9.18,14.45-14.18,21.02
					c-13.75,18.07-19.61,39.65-20.12,60.85c-0.37,15.32,10.99,32.35-13.16,43.13c-8.98,4-18.54,6.8-28.72,7.86
					c-49.22,5.12-99.16,5.78-148.56,1.97c-13.4-1.03-27.73-2.74-37.6-10.13c-7.12-5.33-10.88-12.88-14.43-20.17l-29.14-59.91
					c-4.34-8.93-8.76-18.18-8.22-27.76c0.54-9.58,6.08-25.09,17.55-27.62c7.31,36.86,17.78,80.11,43.07,111.36
					c2.95,3.65,6.21,7.26,10.66,9.72c5.12,2.83,11.39,3.89,17.49,4.79c50.32,7.44,102.15,8.24,152.79,2.35
					c4.04-0.47,8.23-1.03,11.56-2.93c7.76-4.41,7.55-13.52,7.24-21.17C3353.06,3977.35,3374.68,3929.23,3408.32,3894.75"/>
				<path class="st5" d="M3115.7,3986.12c-5.39,4.98-11.54,9.41-18.28,13.17c-1.88,1.05-4.58,2.01-6.23,0.74
					c-1.9-1.45-0.2-3.99,1.58-5.53c5.7-4.94,12.16-9.3,19.19-12.95c0.87-0.45,1.82-0.91,2.85-0.87c1.89,0.07,3.08,1.86,2.81,3.38
					C3117.33,3985.56,3116.07,3986.81,3115.7,3986.12"/>
				<path class="st5" d="M3106.07,3966.16c-5.39,4.98-11.54,9.41-18.28,13.17c-1.88,1.05-4.58,2-6.23,0.74
					c-1.9-1.45-0.2-3.99,1.58-5.53c5.7-4.94,12.16-9.3,19.19-12.95c0.87-0.45,1.82-0.91,2.85-0.87c1.89,0.07,3.08,1.86,2.81,3.38
					C3107.7,3965.61,3106.43,3966.86,3106.07,3966.16"/>
				<path class="st3" d="M3688.4,3834.67c-9.1-1.16-18.25-2.32-27.46-2.36c6.53,2.27,12.76,5.1,18.54,8.44
					c2.07,1.2,4.16,2.49,6.62,3.02c2.46,0.54,5.46,0.11,6.91-1.58C3694.98,3839.89,3693.53,3835.33,3688.4,3834.67"/>
				<path class="st3" d="M3593.46,3828.67c0.9,3.87,0.99,8.18-1.8,11.4c-2.36,2.73-6.7,4.25-10.79,3.79
					c-5.38-0.61-9.42-4.18-12.65-7.7c-0.68-0.74-1.37-1.5-2.35-1.97c-0.98-0.46-2.34-0.54-3.19,0.08c-0.43,0.31-0.67,0.75-0.82,1.2
					c-1.06,3.14,1.84,6.2,4.71,8.49c2.29,1.83,4.74,3.59,7.65,4.73c6.7,2.61,15.32,1.29,20.65-2.91c5.33-4.19,7.22-10.89,5.07-16.63
					c-0.5-1.35-1.38-2.78-3.02-3.25C3595.29,3825.44,3593.02,3826.77,3593.46,3828.67"/>
			</g>
			<g>
				<polygon class="st7" points="1811.2,3711.71 1502.16,4106.48 1740.2,4111.71 				"/>
				<polygon class="st8" points="1811.2,3711.71 2282.16,4106.48 1727.44,4111.71 				"/>
				<path class="st7" d="M1818.34,3968.04c19.88-7.25,41.84-10.32,63.39-8.87c1.6,0.11,3.28,0.27,4.57,1.08
					c1.43,0.91,2.09,2.44,2.62,3.89c2.4,6.54,3.86,13.32,4.33,20.16c0.07,1.02,0.06,2.17-0.81,2.87c-0.66,0.53-1.63,0.64-2.53,0.71
					c-20.83,1.83-41.73,3.02-62.66,3.59c-2.27,0.06-4.82,0.03-6.43-1.34c-1.16-0.98-1.54-2.42-1.88-3.78
					C1818.04,3982.82,1817.16,3979.28,1818.34,3968.04"/>
				<path class="st7" d="M1982.15,3951.7c19.88-7.25,41.84-10.32,63.39-8.87c1.6,0.11,3.29,0.27,4.57,1.08
					c1.43,0.91,2.09,2.44,2.62,3.89c2.4,6.54,3.86,13.32,4.33,20.16c0.07,1.02,0.06,2.17-0.81,2.87c-0.66,0.53-1.63,0.64-2.53,0.71
					c-20.83,1.83-41.73,3.02-62.66,3.59c-2.27,0.06-4.82,0.03-6.43-1.34c-1.15-0.98-1.54-2.42-1.88-3.78
					C1981.86,3966.48,1980.97,3962.94,1982.15,3951.7"/>
				<path class="st7" d="M1906.64,3891.35c19.88-7.25,41.84-10.32,63.39-8.87c1.6,0.11,3.28,0.27,4.57,1.08
					c1.43,0.91,2.09,2.44,2.62,3.89c2.4,6.54,3.86,13.32,4.33,20.16c0.07,1.02,0.06,2.17-0.81,2.87c-0.66,0.53-1.63,0.64-2.53,0.71
					c-20.83,1.83-41.73,3.02-62.66,3.59c-2.27,0.06-4.82,0.03-6.43-1.34c-1.16-0.98-1.54-2.42-1.88-3.78
					C1906.35,3906.13,1905.46,3902.59,1906.64,3891.35"/>
				<path class="st7" d="M1762.21,3875.01c19.88-7.25,41.84-10.32,63.39-8.87c1.6,0.11,3.28,0.27,4.57,1.08
					c1.43,0.91,2.09,2.44,2.62,3.89c2.4,6.54,3.86,13.32,4.33,20.16c0.07,1.02,0.06,2.17-0.81,2.87c-0.66,0.53-1.63,0.64-2.53,0.71
					c-20.83,1.83-41.73,3.02-62.66,3.59c-2.27,0.06-4.82,0.03-6.43-1.34c-1.15-0.98-1.54-2.42-1.88-3.78
					C1761.92,3889.79,1761.03,3886.25,1762.21,3875.01"/>
				<path class="st7" d="M1811.77,3791.35c19.88-7.25,41.84-10.32,63.39-8.87c1.6,0.11,3.29,0.27,4.57,1.08
					c1.43,0.91,2.09,2.44,2.62,3.89c2.4,6.54,3.86,13.32,4.33,20.16c0.07,1.02,0.06,2.17-0.81,2.87c-0.66,0.53-1.63,0.64-2.53,0.71
					c-20.83,1.83-41.73,3.02-62.66,3.59c-2.27,0.06-4.82,0.03-6.43-1.34c-1.16-0.98-1.54-2.42-1.89-3.78
					C1811.48,3806.13,1810.59,3802.59,1811.77,3791.35"/>
			</g>
			<g>
				<path class="st2" d="M120.9,2737.69c-113.99-4.13-228.6,6.52-339.45,31.55c-16.93,3.82-35.41,9.06-44.52,22.85
					c-12.89,19.51,1.18,46.56,22.74,57.67c21.56,11.1,47.59,10.66,72.23,9.93c81.45-2.42,162.89-4.84,244.34-7.27
					c115.08-3.42,231.01-6.94,343.29-30.63c22.03-4.65,47.82-13.78,51.95-34.4c3.93-19.66-15.32-36.99-35.14-44.82
					c-27.57-10.89-58.44-11.46-88.4-11.2C255.13,2732.14,162.39,2739.19,120.9,2737.69"/>
				<path class="st3" d="M232.38,2544.16c-16.5,10.67-24.09,29.58-23.74,47.55c0.35,17.97,7.59,35.28,15.92,51.7
					c8.49,16.73,18.22,36.25,8.37,52.4c-3.05,5-8,9.87-7.02,15.48c0.67,3.83,4.03,6.86,5.56,10.49c2.49,5.91-0.13,12.44-2.72,18.31
					c-6.59,14.92-13.93,30.71-28.83,39.97c-7.42,4.61-16.26,7.26-23.58,11.99c-7.32,4.73-13.18,12.77-10.62,20.42
					c15.53-1.33,30.94-3.65,46.08-6.93c3.64-0.79,7.35-1.66,10.46-3.49c6.47-3.79,9.16-10.81,11.83-17.22
					c9.46-22.73,23.79-43.89,42.04-62.04c3.68-3.66,7.65-7.41,9.07-12.13c3.5-11.71-9.79-22.1-11.9-34.06
					c-1.82-10.33,4.85-20.13,10.44-29.36c12.55-20.7,20.85-44.67,15.14-67.58C293.18,2556.76,263.6,2523.97,232.38,2544.16"/>
				<path class="st3" d="M30.03,2539.85c-16.6-1.68-31.74,11.42-38.02,26.67c-6.27,15.25-5.8,32.25-5.71,48.7
					c0.09,16.45-0.5,33.65-8.53,48.08c-6.14,11.03-16.63,23.71-9.81,34.35c2.73,4.26,7.61,6.59,12.08,9.04
					c14.8,8.08,27.61,19.67,37.07,33.5c3.25,4.75,6.16,9.89,7.17,15.54c2.76,15.28-8.69,30.46-5.97,45.75
					c21.97-11.05,37.55-33.6,39.92-57.8c0.31-3.13,0.35-6.49-1.33-9.16c-2.04-3.22-6-4.57-9.56-6.02
					c-13.86-5.65-26.53-18.54-24.89-33.23c0.72-6.44,4.03-13.27,0.99-19.01c-1.19-2.25-3.23-3.97-4.49-6.18
					c-5.02-8.79,4.01-18.67,11.84-25.17c13.18-10.93,25.71-23.23,33.15-38.54c7.44-15.31,9.08-34.16,0.72-49
					C56.3,2542.51,36.49,2533.76,30.03,2539.85"/>
				<path class="st4" d="M-142.52,2296.69c-24.77,7.5-49.53,14.99-74.29,22.48c-14.04,4.25-29.02,9.1-37.55,19.76
					c-8.29,10.36-8.33,25.26-0.1,35.66c8.23,10.4,24.17,15.57,38.15,12.39c4.96-1.13,9.72-3.21,14.84-3.27
					c20.39-0.25,29.55,29.46,49.8,27.41c-5.38,41.12-0.33,83.25,14.7,122.49c5.07,13.25,11.4,26.37,21.41,37.24
					c14.88,16.16,36.98,26.24,59.85,31.65c35.42,8.38,73.95,6.29,105.87-4.16c28.21,45.74,25.9,100.68,22.85,152.61
					c-1.12,19.03-4.05,41.1-25.82,49.15c-4.51,1.67-7.55,5.57-7.05,9.84c0.59,5.12,5.15,5.99,9.24,6.63
					c16.71,2.63,33.42,5.26,50.13,7.89c23.03-27.94-6.86-69.33,8.83-100.94c3.33-6.7,8.73-13.07,8.47-20.37
					c-0.16-4.62-2.61-8.89-4.77-13.1c-13.9-27.09-17.49-58.16-10.06-87.14c49,9.58,101.25,5.92,147.9-10.33
					c6.86-2.39,14.85-5.01,21.26-1.8c3.04,1.52,5.13,4.12,7.12,6.63c15.32,19.33,30.65,38.67,45.98,58
					c4.23,5.34,8.63,11.13,8.63,17.63c-0.01,7.72-6.32,15.05-4.51,22.61c1.8,7.53,10.77,11.86,15.47,18.37
					c5.56,7.69,4.64,17.54,3.52,26.59c-2.87,23.18-7.22,48.89-29.05,62.86c-1.74,1.12-3.3,2.48-4.26,4.17
					c-4.38,7.79,6.96,12.69,15.06,11.19c7.27-1.34,13.99-5.35,21.4-4.98c12.14,0.62,17.23,5.74,28.97,2.96
					c14.52-3.44,7.63-17.87,2.51-30.27c-9.96-24.15-12.72-50.56-7.92-75.89c1.61-8.51,12.1-14.38,10.07-22.82
					c-2.91-12.08-14.21-20.95-22.43-30.98c-22.4-27.34-21.92-63.62-23.93-97.24c-2.02-33.62-10.19-71.21-42.01-90.06
					c19.54-1.86,33.94,16.04,39.31,32.62c5.37,16.58,7.23,35.37,21.2,47.49c4.38,3.8,9.95,6.96,12.18,11.99
					c1.9,4.3,0.97,9.11,1.5,13.7c1.94,16.75,27.79,27.05,43.46,17.31c2.08-9.81-5.6-19.25-14.49-25.48
					c-8.89-6.23-19.47-10.71-27.08-18.13c-22.22-21.63-12.17-60.13-36.86-79.6c-6.53-5.15-14.77-8.24-22.27-12.25
					c-27.31-14.58-43.67-40.42-65.6-60.82c-21.93-20.4-57.2-35.99-85.23-22.49c-5.81-18.55-17.18-36.2-34.58-47.93
					c-17.4-11.73-41.24-16.82-62.05-10.71c-35.69,10.46-50.57,47.38-55.6,80.06c-5.03,32.69,3.35,92.56-21.32,117.47
					c-4.43,4.48-12.14,6.73-20.62,7.72c-22.1,2.59-42.49-10.95-46.38-30.19c0,0-17.6-76.88-17.6-181.89
					c8.37-12.8,11.22-28.29,7.88-42.75C-109.35,2268.17-122.87,2290.74-142.52,2296.69"/>
				<path class="st5" d="M5.42,2418.99c-2.52-25.96,2.72-53.34,17.46-75.51c15.52-23.34,44.92-38.13,74.46-37.45
					c29.54,0.68,58.11,16.8,72.36,40.83c3.66,6.17,6.57,12.97,12.17,17.72c11.56,9.81,29.61,7.39,44.59,11.62
					c18.6,5.24,31.57,20.46,43.3,34.85c4.34,5.32,8.78,10.85,10.41,17.34c1.43,5.71,0.55,11.69-0.53,17.47
					c-5.14,27.52-14.66,54.33-28.16,79.3c-5.13,9.49-11.08,18.98-20.21,25.37c-13.31,9.32-31.04,10.58-47.69,11.38
					c-43.62,2.1-88.65,3.33-129.49-11.02c-6.22-2.18-12.76-5.12-15.72-10.64c-2.77-5.17-1.72-11.3-1.02-17.04
					c2.8-23.11-1.5-46.92-12.25-67.92C17.43,2440.33,7.13,2436.63,5.42,2418.99"/>
				<path class="st6" d="M6.33,2392.79c-4.83,6.86-0.92,28.78-0.2,30.99c3.95,12.07,8.18,14.83,12.64,21.57
					c12.25,18.54,17.49,40.69,17.94,62.44c0.33,15.71-9.8,33.2,11.73,44.26c8,4.11,16.53,6.98,25.6,8.07
					c43.89,5.25,88.41,5.93,132.46,2.02c11.95-1.06,24.72-2.81,33.52-10.39c6.35-5.47,9.7-13.22,12.87-20.7
					c8.66-20.49,17.32-40.98,25.98-61.47c3.87-9.16,7.81-18.66,7.33-28.49c-0.48-9.83-5.42-25.75-15.64-28.35
					c-6.52,37.82-15.85,82.2-38.4,114.28c-2.63,3.74-5.53,7.46-9.51,9.98c-4.57,2.9-10.16,3.99-15.6,4.91
					c-44.87,7.64-91.07,8.45-136.22,2.41c-3.6-0.48-7.33-1.06-10.31-3c-6.92-4.52-6.73-13.87-6.45-21.72
					C55.59,2477.54,36.32,2428.17,6.33,2392.79"/>
				<path class="st5" d="M52.28,2543.98c-4.74,5.16-8.78,10.87-12.01,16.95c-0.9,1.7-1.59,4.05,0,5.22
					c1.84,1.34,4.38-0.43,5.84-2.13c4.65-5.41,8.58-11.35,11.65-17.66c0.38-0.78,0.75-1.62,0.57-2.46
					c-0.33-1.54-2.44-2.24-4.05-1.79C52.68,2542.56,51.47,2543.79,52.28,2543.98"/>
				<path class="st5" d="M72.56,2552.49c-1.89,6.55-2.9,13.32-3,20.1c-0.03,1.89,0.43,4.29,2.42,4.71c2.28,0.48,3.76-2.14,4.29-4.25
					c1.7-6.74,2.49-13.67,2.35-20.59c-0.02-0.85-0.07-1.77-0.62-2.45c-1.01-1.26-3.24-1.05-4.49,0
					C72.26,2551.05,71.74,2552.63,72.56,2552.49"/>
				<path class="st5" d="M98.57,2556.24c-0.76,6.74-0.62,13.57,0.43,20.29c0.29,1.87,1.15,4.18,3.18,4.3
					c2.33,0.14,3.35-2.66,3.52-4.82c0.54-6.9,0.15-13.87-1.16-20.68c-0.16-0.84-0.37-1.74-1.03-2.33c-1.21-1.09-3.38-0.57-4.43,0.65
					C98.03,2554.86,97.79,2556.51,98.57,2556.24"/>
				<path class="st5" d="M98.57,2556.24c-0.76,6.74-0.62,13.57,0.43,20.29c0.29,1.87,1.15,4.18,3.18,4.3
					c2.33,0.14,3.35-2.66,3.52-4.82c0.54-6.9,0.15-13.87-1.16-20.68c-0.16-0.84-0.37-1.74-1.03-2.33c-1.21-1.09-3.38-0.57-4.43,0.65
					C98.03,2554.86,97.79,2556.51,98.57,2556.24"/>
				<path class="st5" d="M132.09,2558.49c-0.76,6.74-0.62,13.57,0.43,20.29c0.29,1.87,1.15,4.18,3.18,4.3
					c2.33,0.14,3.35-2.66,3.52-4.82c0.54-6.9,0.15-13.87-1.16-20.68c-0.16-0.84-0.37-1.73-1.03-2.33c-1.21-1.09-3.38-0.57-4.44,0.65
					C131.55,2557.11,131.3,2558.75,132.09,2558.49"/>
				<path class="st5" d="M161.68,2558.49c-0.76,6.74-0.62,13.57,0.43,20.29c0.29,1.87,1.15,4.18,3.18,4.3
					c2.33,0.14,3.35-2.66,3.52-4.82c0.54-6.9,0.15-13.87-1.16-20.68c-0.16-0.84-0.37-1.73-1.03-2.33c-1.21-1.09-3.38-0.57-4.44,0.65
					C161.14,2557.11,160.89,2558.75,161.68,2558.49"/>
				<path class="st5" d="M191.99,2559.42c0.82,6.74,2.55,13.38,5.13,19.72c0.72,1.77,2.1,3.85,4.11,3.56
					c2.31-0.33,2.65-3.27,2.32-5.42c-1.08-6.85-3.08-13.57-5.94-19.96c-0.35-0.79-0.76-1.62-1.54-2.07
					c-1.43-0.83-3.43,0.12-4.18,1.53C191.15,2558.19,191.29,2559.84,191.99,2559.42"/>
				<path class="st5" d="M223.42,2553.75c0.82,6.74,2.55,13.38,5.14,19.72c0.72,1.77,2.1,3.85,4.11,3.56
					c2.31-0.33,2.65-3.27,2.32-5.41c-1.08-6.85-3.08-13.57-5.94-19.96c-0.35-0.79-0.76-1.62-1.54-2.07
					c-1.43-0.83-3.43,0.12-4.18,1.53C222.57,2552.52,222.71,2554.17,223.42,2553.75"/>
				<path class="st5" d="M242.88,2540.4c4.8,5.11,10.29,9.66,16.3,13.51c1.67,1.07,4.08,2.06,5.56,0.76
					c1.7-1.49,0.18-4.09-1.41-5.68c-5.08-5.07-10.84-9.54-17.1-13.29c-0.77-0.46-1.62-0.93-2.54-0.89c-1.68,0.08-2.75,1.91-2.5,3.46
					C241.42,2539.83,242.55,2541.12,242.88,2540.4"/>
				<path class="st5" d="M255.04,2513.47c4.8,5.11,10.29,9.66,16.3,13.51c1.67,1.07,4.08,2.06,5.56,0.76
					c1.7-1.49,0.18-4.09-1.41-5.68c-5.08-5.07-10.84-9.54-17.1-13.29c-0.77-0.46-1.62-0.93-2.54-0.89c-1.68,0.08-2.75,1.91-2.5,3.46
					C253.59,2512.9,254.72,2514.18,255.04,2513.47"/>
				<path class="st5" d="M267.21,2486.54c4.8,5.11,10.29,9.66,16.3,13.51c1.67,1.07,4.08,2.06,5.56,0.76
					c1.7-1.49,0.18-4.09-1.41-5.68c-5.08-5.07-10.84-9.54-17.1-13.29c-0.77-0.46-1.62-0.93-2.54-0.89c-1.68,0.08-2.75,1.91-2.5,3.46
					S266.89,2487.25,267.21,2486.54"/>
				<path class="st5" d="M275.8,2466.06c4.8,5.11,10.29,9.66,16.3,13.51c1.67,1.07,4.08,2.06,5.56,0.76
					c1.7-1.49,0.18-4.09-1.41-5.68c-5.08-5.07-10.84-9.54-17.1-13.29c-0.77-0.46-1.62-0.93-2.54-0.89c-1.69,0.08-2.75,1.91-2.5,3.46
					C274.35,2465.49,275.48,2466.78,275.8,2466.06"/>
			</g>
			<polygon class="st7" points="4189.04,150 3880,544.77 4118.04,550 			"/>
			<g>
				<path class="st2" d="M4120.9,2737.69c-113.99-4.13-228.6,6.52-339.45,31.55c-16.93,3.82-35.41,9.06-44.52,22.85
					c-12.89,19.51,1.18,46.56,22.74,57.67c21.56,11.1,47.59,10.66,72.23,9.93c81.45-2.42,162.89-4.84,244.34-7.27
					c115.08-3.42,231.01-6.94,343.29-30.63c22.03-4.65,47.82-13.78,51.95-34.4c3.93-19.66-15.32-36.99-35.14-44.82
					c-27.57-10.89-58.44-11.46-88.4-11.2C4255.13,2732.14,4162.39,2739.19,4120.9,2737.69"/>
				<path class="st3" d="M3839.03,2303.76c14.52-2.59,29.57-6.38,38.91-14.54c8.7-7.6,10.99-17.71,12.99-27.33
					c0.13-0.62,0.18-1.37-0.55-1.72c-0.61-0.3-1.46-0.16-2.17,0.01c-13.5,3.13-25.29,9.42-33.91,17.29
					S3840.16,2294.75,3839.03,2303.76"/>
				<path class="st3" d="M4030.03,2539.85c-16.6-1.68-31.74,11.42-38.02,26.67c-6.27,15.25-5.8,32.25-5.71,48.7
					c0.09,16.45-0.5,33.65-8.53,48.08c-6.14,11.03-16.63,23.71-9.81,34.35c2.73,4.26,7.61,6.59,12.08,9.04
					c14.8,8.08,27.61,19.67,37.07,33.5c3.25,4.75,6.16,9.89,7.17,15.54c2.76,15.28-8.69,30.46-5.97,45.75
					c21.97-11.05,37.55-33.6,39.92-57.8c0.31-3.13,0.35-6.49-1.33-9.16c-2.04-3.22-6-4.57-9.56-6.02
					c-13.86-5.65-26.53-18.54-24.89-33.23c0.72-6.44,4.03-13.27,0.99-19.01c-1.19-2.25-3.23-3.97-4.49-6.18
					c-5.02-8.79,4.01-18.67,11.84-25.17c13.18-10.93,25.71-23.23,33.15-38.54c7.44-15.31,9.08-34.16,0.72-49
					C4056.3,2542.51,4036.49,2533.76,4030.03,2539.85"/>
				<path class="st4" d="M3857.48,2296.69c-24.77,7.5-49.53,14.99-74.29,22.48c-14.04,4.25-29.02,9.1-37.55,19.76
					c-8.29,10.36-8.33,25.26-0.1,35.66c8.23,10.4,24.17,15.57,38.15,12.39c4.96-1.13,9.72-3.21,14.84-3.27
					c20.39-0.25,29.55,29.46,49.8,27.41c-5.38,41.12-0.33,83.25,14.7,122.49c5.07,13.25,11.4,26.37,21.41,37.24
					c14.88,16.16,36.98,26.24,59.85,31.65c35.42,8.38,73.95,6.29,105.87-4.16c28.21,45.74,25.9,100.68,22.85,152.61
					c-1.12,19.03-4.05,41.1-25.82,49.15c-4.51,1.67-7.55,5.57-7.05,9.84c0.59,5.12,5.15,5.99,9.24,6.63
					c16.71,2.63,33.42,5.26,50.13,7.89c23.03-27.94-6.86-69.33,8.83-100.94c3.33-6.7,8.73-13.07,8.47-20.37
					c-0.16-4.62-2.61-8.89-4.77-13.1c-13.9-27.09-17.49-58.16-10.06-87.14c49,9.58,101.25,5.92,147.9-10.33
					c6.86-2.39,14.85-5.01,21.26-1.8c3.04,1.52,5.13,4.12,7.12,6.63c15.32,19.33,30.65,38.67,45.98,58
					c4.23,5.34,8.63,11.13,8.63,17.63c-0.01,7.72-6.32,15.05-4.51,22.61c1.8,7.53,10.77,11.86,15.47,18.37
					c5.56,7.69,4.64,17.54,3.52,26.59c-2.87,23.18-7.22,48.89-29.05,62.86c-1.74,1.12-3.3,2.48-4.26,4.17
					c-4.38,7.79,6.96,12.69,15.06,11.19c7.27-1.34,13.99-5.35,21.4-4.98c12.14,0.62,17.23,5.74,28.97,2.96
					c14.52-3.44,7.63-17.87,2.51-30.27c-9.96-24.15-12.72-50.56-7.92-75.89c1.61-8.51,12.1-14.38,10.07-22.82
					c-2.91-12.08-14.21-20.95-22.43-30.98c-22.4-27.34-21.92-63.62-23.93-97.24s-10.19-71.21-42.01-90.06
					c19.54-1.86,33.94,16.04,39.31,32.62c5.37,16.58,7.23,35.37,21.2,47.49c4.38,3.8,9.95,6.96,12.18,11.99
					c1.9,4.3,0.97,9.11,1.5,13.7c1.94,16.75,27.79,27.05,43.46,17.31c2.08-9.81-5.6-19.25-14.49-25.48
					c-8.89-6.23-19.47-10.71-27.08-18.13c-22.22-21.63-12.17-60.13-36.86-79.6c-6.53-5.15-14.77-8.24-22.27-12.25
					c-27.31-14.58-43.67-40.42-65.6-60.82c-21.93-20.4-57.2-35.99-85.23-22.49c-5.81-18.55-17.18-36.2-34.58-47.93
					c-17.4-11.73-41.24-16.82-62.05-10.71c-35.69,10.46-50.57,47.38-55.6,80.06c-5.03,32.69,3.35,92.56-21.32,117.47
					c-4.43,4.48-12.14,6.73-20.62,7.72c-22.1,2.59-42.49-10.95-46.38-30.19c0,0-17.6-76.88-17.6-181.89
					c8.37-12.8,11.22-28.29,7.88-42.75C3890.65,2268.17,3877.13,2290.74,3857.48,2296.69"/>
				<path class="st3" d="M3793.79,2384.6c9.46-5.41,18.92-10.83,28.38-16.24c1.46-0.84,3.05-1.7,4.76-1.58
					c1.54,0.11,2.91,1.04,3.85,2.19c2.43,2.94,2.34,7.24,0.49,10.52c-1.85,3.28-5.2,5.65-8.8,7.25
					C3813.63,2390.67,3802.72,2390.31,3793.79,2384.6"/>
				<path class="st3" d="M3756.62,2331.13c8.12-1.19,16.27-2.38,24.49-2.42c-5.82,2.33-11.37,5.23-16.52,8.66
					c-1.85,1.23-3.71,2.55-5.9,3.1c-2.2,0.55-4.86,0.12-6.16-1.62C3750.75,2336.49,3752.04,2331.81,3756.62,2331.13"/>
				<path class="st3" d="M3841.26,2324.98c-0.8,3.97-0.88,8.39,1.61,11.7c2.11,2.8,5.98,4.37,9.62,3.89
					c4.79-0.63,8.4-4.29,11.28-7.9c0.6-0.76,1.22-1.54,2.1-2.02c0.88-0.48,2.09-0.56,2.84,0.08c0.38,0.32,0.6,0.77,0.73,1.23
					c0.94,3.23-1.64,6.36-4.2,8.71c-2.04,1.88-4.23,3.69-6.82,4.85c-5.97,2.68-13.66,1.32-18.41-2.98
					c-4.75-4.3-6.44-11.17-4.52-17.07c0.45-1.38,1.23-2.85,2.69-3.33C3839.63,2321.66,3841.65,2323.02,3841.26,2324.98"/>
			</g>
			<g>
				<polygon class="st7" points="1304,2144 994.96,2538.77 1233,2544 				"/>
				<polygon class="st8" points="1304,2144 1774.96,2538.77 1220.24,2544 				"/>
				<path class="st7" d="M1311.13,2400.33c19.88-7.25,41.84-10.32,63.39-8.87c1.6,0.11,3.28,0.27,4.57,1.08
					c1.43,0.91,2.09,2.44,2.62,3.89c2.4,6.54,3.86,13.32,4.33,20.16c0.07,1.02,0.06,2.17-0.81,2.87c-0.66,0.53-1.63,0.64-2.54,0.71
					c-20.83,1.83-41.73,3.02-62.66,3.59c-2.27,0.06-4.82,0.03-6.43-1.34c-1.15-0.98-1.54-2.42-1.88-3.78
					C1310.84,2415.12,1309.95,2411.57,1311.13,2400.33"/>
				<path class="st7" d="M1399.44,2483.99c19.88-7.25,41.84-10.32,63.39-8.87c1.6,0.11,3.29,0.27,4.57,1.08
					c1.43,0.91,2.09,2.44,2.62,3.89c2.4,6.54,3.86,13.32,4.33,20.16c0.07,1.02,0.06,2.17-0.81,2.87c-0.66,0.53-1.63,0.64-2.54,0.71
					c-20.83,1.83-41.73,3.02-62.66,3.59c-2.27,0.06-4.82,0.03-6.43-1.34c-1.16-0.98-1.54-2.42-1.89-3.78
					C1399.15,2498.78,1398.26,2495.23,1399.44,2483.99"/>
				<path class="st7" d="M1474.94,2383.99c19.88-7.25,41.84-10.32,63.39-8.87c1.6,0.11,3.29,0.27,4.57,1.08
					c1.43,0.91,2.09,2.44,2.62,3.89c2.4,6.54,3.86,13.32,4.33,20.16c0.07,1.02,0.06,2.17-0.81,2.87c-0.66,0.53-1.63,0.64-2.53,0.71
					c-20.83,1.83-41.73,3.02-62.66,3.59c-2.27,0.06-4.82,0.03-6.43-1.34c-1.15-0.98-1.54-2.42-1.88-3.78
					C1474.65,2398.78,1473.77,2395.23,1474.94,2383.99"/>
				<path class="st7" d="M1399.44,2323.64c19.88-7.25,41.84-10.32,63.39-8.87c1.6,0.11,3.29,0.27,4.57,1.08
					c1.43,0.91,2.09,2.44,2.62,3.89c2.4,6.54,3.86,13.32,4.33,20.16c0.07,1.02,0.06,2.17-0.81,2.87c-0.66,0.53-1.63,0.63-2.54,0.71
					c-20.83,1.83-41.73,3.02-62.66,3.59c-2.27,0.06-4.82,0.03-6.43-1.34c-1.16-0.98-1.54-2.42-1.89-3.78
					C1399.15,2338.43,1398.26,2334.88,1399.44,2323.64"/>
				<path class="st7" d="M1582.45,2460.24c19.88-7.25,41.84-10.32,63.39-8.87c1.6,0.11,3.29,0.27,4.57,1.08
					c1.43,0.91,2.09,2.44,2.62,3.89c2.4,6.54,3.86,13.32,4.33,20.16c0.07,1.02,0.06,2.17-0.81,2.87c-0.66,0.53-1.63,0.63-2.54,0.71
					c-20.83,1.83-41.73,3.02-62.66,3.59c-2.27,0.06-4.82,0.03-6.43-1.34c-1.16-0.98-1.54-2.42-1.89-3.78
					C1582.15,2475.03,1581.27,2471.48,1582.45,2460.24"/>
				<path class="st7" d="M1255.01,2307.3c19.88-7.25,41.84-10.32,63.39-8.87c1.6,0.11,3.29,0.27,4.57,1.08
					c1.43,0.91,2.09,2.44,2.62,3.89c2.4,6.54,3.86,13.32,4.33,20.16c0.07,1.02,0.05,2.17-0.81,2.87c-0.66,0.53-1.63,0.63-2.53,0.71
					c-20.83,1.83-41.73,3.02-62.66,3.59c-2.27,0.06-4.82,0.03-6.43-1.34c-1.16-0.98-1.54-2.42-1.89-3.78
					C1254.72,2322.09,1253.83,2318.54,1255.01,2307.3"/>
				<path class="st7" d="M1201.26,2492.92c19.88-7.25,41.84-10.32,63.39-8.87c1.6,0.11,3.28,0.27,4.57,1.08
					c1.43,0.91,2.09,2.44,2.62,3.89c2.4,6.54,3.86,13.32,4.33,20.16c0.07,1.02,0.06,2.17-0.81,2.87c-0.66,0.53-1.63,0.64-2.53,0.72
					c-20.83,1.83-41.73,3.02-62.66,3.59c-2.27,0.06-4.82,0.03-6.43-1.34c-1.15-0.98-1.54-2.42-1.88-3.78
					C1200.97,2507.71,1200.08,2504.16,1201.26,2492.92"/>
				<path class="st7" d="M1304.57,2223.64c19.88-7.25,41.84-10.32,63.39-8.87c1.6,0.11,3.29,0.27,4.57,1.08
					c1.43,0.91,2.09,2.44,2.62,3.89c2.4,6.54,3.86,13.32,4.33,20.16c0.07,1.02,0.06,2.17-0.81,2.87c-0.66,0.53-1.63,0.64-2.54,0.71
					c-20.83,1.83-41.73,3.02-62.66,3.59c-2.27,0.06-4.82,0.03-6.43-1.34c-1.16-0.98-1.54-2.42-1.89-3.78
					C1304.28,2238.43,1303.39,2234.88,1304.57,2223.64"/>
			</g>
			<g>
				<polygon class="st7" points="2001.96,1544.22 1692.92,1939 1930.96,1944.22 				"/>
				<polygon class="st8" points="2001.96,1544.22 2472.92,1939 1918.2,1944.22 				"/>
				<path class="st7" d="M2009.09,1800.56c19.88-7.25,41.84-10.32,63.39-8.87c1.6,0.11,3.29,0.27,4.57,1.08
					c1.43,0.91,2.09,2.44,2.62,3.89c2.4,6.54,3.86,13.32,4.33,20.16c0.07,1.02,0.06,2.17-0.81,2.87c-0.66,0.53-1.63,0.64-2.54,0.71
					c-20.83,1.83-41.73,3.02-62.66,3.59c-2.27,0.06-4.82,0.03-6.43-1.34c-1.16-0.98-1.54-2.42-1.89-3.78
					C2008.8,1815.34,2007.91,1811.8,2009.09,1800.56"/>
				<path class="st7" d="M2097.4,1884.22c19.88-7.25,41.84-10.32,63.39-8.87c1.6,0.11,3.29,0.27,4.57,1.08
					c1.43,0.91,2.09,2.44,2.62,3.89c2.4,6.54,3.86,13.32,4.33,20.16c0.07,1.02,0.06,2.17-0.81,2.87c-0.66,0.53-1.63,0.64-2.54,0.71
					c-20.83,1.83-41.73,3.02-62.66,3.59c-2.27,0.06-4.82,0.03-6.43-1.34c-1.16-0.98-1.54-2.42-1.89-3.78
					C2097.1,1899,2096.22,1895.46,2097.4,1884.22"/>
				<path class="st7" d="M2172.9,1784.22c19.88-7.25,41.84-10.32,63.39-8.87c1.6,0.11,3.29,0.27,4.57,1.08
					c1.43,0.91,2.09,2.44,2.62,3.89c2.4,6.54,3.86,13.32,4.33,20.16c0.07,1.02,0.06,2.17-0.81,2.87c-0.66,0.53-1.63,0.64-2.53,0.71
					c-20.83,1.83-41.73,3.02-62.66,3.59c-2.27,0.06-4.82,0.03-6.43-1.34c-1.15-0.98-1.54-2.42-1.88-3.78
					C2172.61,1799,2171.72,1795.46,2172.9,1784.22"/>
				<path class="st7" d="M2097.4,1723.87c19.88-7.25,41.84-10.32,63.39-8.87c1.6,0.11,3.29,0.27,4.57,1.08
					c1.43,0.91,2.09,2.44,2.62,3.89c2.4,6.54,3.86,13.32,4.33,20.16c0.07,1.02,0.06,2.17-0.81,2.87c-0.66,0.53-1.63,0.63-2.54,0.71
					c-20.83,1.83-41.73,3.02-62.66,3.59c-2.27,0.06-4.82,0.03-6.43-1.34c-1.16-0.98-1.54-2.42-1.89-3.78
					C2097.1,1738.65,2096.22,1735.11,2097.4,1723.87"/>
				<path class="st7" d="M2280.4,1860.47c19.88-7.25,41.84-10.32,63.39-8.87c1.6,0.11,3.29,0.27,4.57,1.08
					c1.43,0.91,2.09,2.44,2.62,3.89c2.4,6.54,3.86,13.32,4.33,20.16c0.07,1.02,0.06,2.17-0.81,2.87c-0.66,0.53-1.63,0.64-2.54,0.71
					c-20.83,1.83-41.73,3.02-62.66,3.59c-2.27,0.06-4.82,0.03-6.43-1.34c-1.16-0.98-1.54-2.42-1.89-3.78
					C2280.11,1875.25,2279.23,1871.71,2280.4,1860.47"/>
				<path class="st7" d="M1952.97,1707.53c19.88-7.25,41.84-10.32,63.39-8.87c1.6,0.11,3.28,0.27,4.57,1.08
					c1.43,0.91,2.09,2.44,2.62,3.89c2.4,6.54,3.86,13.32,4.33,20.16c0.07,1.02,0.06,2.17-0.81,2.87c-0.66,0.53-1.63,0.63-2.53,0.71
					c-20.83,1.83-41.73,3.02-62.66,3.59c-2.27,0.06-4.82,0.03-6.43-1.34c-1.15-0.98-1.54-2.42-1.88-3.78
					C1952.68,1722.31,1951.79,1718.77,1952.97,1707.53"/>
				<path class="st7" d="M1899.22,1893.15c19.88-7.25,41.84-10.32,63.39-8.87c1.6,0.11,3.29,0.27,4.57,1.08
					c1.43,0.91,2.09,2.44,2.62,3.89c2.4,6.54,3.86,13.32,4.33,20.16c0.07,1.02,0.06,2.17-0.81,2.87c-0.66,0.53-1.63,0.64-2.54,0.72
					c-20.83,1.83-41.73,3.02-62.66,3.59c-2.27,0.06-4.82,0.03-6.43-1.34c-1.16-0.98-1.54-2.42-1.89-3.78
					C1898.92,1907.93,1898.04,1904.39,1899.22,1893.15"/>
				<path class="st7" d="M2002.53,1623.87c19.88-7.25,41.84-10.32,63.39-8.87c1.6,0.11,3.28,0.27,4.57,1.08
					c1.43,0.91,2.09,2.44,2.62,3.89c2.4,6.54,3.86,13.32,4.33,20.16c0.07,1.02,0.06,2.17-0.81,2.87c-0.66,0.53-1.63,0.64-2.53,0.71
					c-20.83,1.83-41.73,3.02-62.66,3.59c-2.27,0.06-4.82,0.03-6.43-1.34c-1.15-0.98-1.54-2.42-1.88-3.78
					C2002.23,1638.65,2001.35,1635.11,2002.53,1623.87"/>
			</g>
		</g>
	</g>
</g>
</svg>
