<svg width="193" height="314" viewBox="0 0 193 314" fill="none" xmlns="http://www.w3.org/2000/svg">
<path d="M172.329 188.907C172.268 188.346 172.139 187.38 171.893 186.174C171.504 184.271 170.816 181.736 169.619 179.206L169.619 179.206C168.041 175.874 165.981 173.319 163.444 171.58C160.905 169.839 157.915 168.936 154.51 168.866L154.51 168.866H154.499C154.439 168.866 154.375 168.865 154.305 168.863L154.302 168.863C154.235 168.861 154.16 168.859 154.086 168.859C145.909 168.859 141.123 173.667 138.404 178.434C136.182 182.331 135.314 186.238 135.064 187.585L134.708 187.537C134.729 187.421 134.756 187.286 134.787 187.134C134.902 186.577 135.085 185.789 135.357 184.849C135.902 182.968 136.804 180.488 138.237 178.03C141.098 173.121 146.044 168.336 154.51 168.504C162.817 168.672 167.351 173.776 169.836 178.942C171.079 181.528 171.8 184.115 172.21 186.073C172.415 187.051 172.541 187.869 172.617 188.447C172.639 188.612 172.657 188.758 172.671 188.882L172.329 188.907Z" fill="#FFBB7A" stroke="#535353"/>
<path d="M132.771 187.664C132.772 187.646 132.785 187.531 133.054 187.336C133.312 187.149 133.72 186.952 134.288 186.756C135.417 186.367 137.054 186.025 139.051 185.744C143.036 185.184 148.36 184.883 153.688 184.915C159.018 184.947 164.325 185.312 168.281 186.076C170.264 186.459 171.874 186.935 172.973 187.501C174.105 188.082 174.52 188.662 174.513 189.183C174.476 192.243 174.647 220.573 174.818 248.901L174.818 248.939C174.989 277.289 175.16 305.627 175.123 308.676C175.121 308.893 175.023 309.131 174.758 309.398C174.488 309.669 174.068 309.944 173.488 310.21C172.328 310.742 170.643 311.19 168.578 311.544C164.458 312.252 158.951 312.567 153.433 312.501C147.916 312.435 142.418 311.989 138.317 311.183C136.261 310.779 134.587 310.291 133.441 309.732C132.867 309.452 132.454 309.168 132.191 308.89C131.932 308.617 131.841 308.376 131.843 308.16C131.885 304.711 132.162 267.824 132.403 235.742C132.588 211.171 132.751 189.418 132.771 187.664Z" fill="#4B9595" stroke="#535353"/>
<path d="M175.123 308.676L175.123 308.677C175.12 308.944 174.97 309.254 174.53 309.601C174.09 309.948 173.418 310.283 172.525 310.592C170.862 311.167 168.544 311.616 165.828 311.934C167.299 282.456 166.777 214.162 166.097 185.713C168.584 186.07 170.688 186.545 172.188 187.145C172.997 187.469 173.597 187.816 173.987 188.175C174.37 188.528 174.518 188.861 174.513 189.182L174.513 189.183C174.476 192.243 174.647 220.57 174.818 248.896L174.818 248.939C174.989 277.289 175.16 305.627 175.123 308.676Z" stroke="#535353"/>
<path d="M119.28 202.542L119.28 202.542C119.975 201.5 121.372 200.516 123.399 199.631C125.412 198.752 127.983 197.999 130.945 197.384C136.867 196.155 144.291 195.488 151.803 195.442C159.314 195.396 166.89 195.971 173.116 197.215C176.229 197.837 178.991 198.624 181.234 199.577C183.484 200.533 185.17 201.64 186.176 202.878L186.176 202.878C187.04 203.94 187.838 205.996 188.533 208.898C189.223 211.776 189.795 215.411 190.249 219.563C191.158 227.864 191.592 238.188 191.564 248.561C191.536 258.933 191.046 269.342 190.113 277.814C189.645 282.05 189.068 285.793 188.384 288.801C187.697 291.827 186.913 294.049 186.064 295.291L186.446 295.553L186.064 295.291C185.506 296.106 184.219 296.943 182.245 297.73C180.297 298.507 177.765 299.203 174.828 299.789C168.955 300.96 161.517 301.68 154.001 301.749C146.483 301.818 138.912 301.235 132.768 299.812C129.696 299.101 126.998 298.184 124.846 297.044C122.691 295.902 121.12 294.556 120.249 293.005C119.351 291.404 118.543 288.948 117.838 285.82C117.135 282.701 116.542 278.949 116.061 274.777C115.098 266.434 114.581 256.443 114.508 246.546C114.436 236.65 114.807 226.86 115.615 218.92C116.02 214.949 116.532 211.45 117.151 208.635C117.774 205.803 118.493 203.722 119.28 202.542Z" stroke="#535353"/>
<path d="M119.28 202.542L119.28 202.542C119.975 201.5 121.372 200.516 123.399 199.631C125.412 198.752 127.983 197.999 130.945 197.384C136.867 196.155 144.291 195.488 151.803 195.442C159.314 195.396 166.89 195.971 173.116 197.215C176.229 197.837 178.991 198.624 181.234 199.577C183.484 200.533 185.17 201.64 186.176 202.878L186.176 202.878C187.04 203.94 187.838 205.996 188.533 208.898C189.223 211.776 189.795 215.411 190.249 219.563C191.158 227.864 191.592 238.188 191.564 248.561C191.536 258.933 191.046 269.342 190.113 277.814C189.645 282.05 189.068 285.793 188.384 288.801C187.697 291.827 186.913 294.049 186.064 295.291L186.446 295.553L186.064 295.291C185.506 296.106 184.219 296.943 182.245 297.73C180.297 298.507 177.765 299.203 174.828 299.789C168.955 300.96 161.517 301.68 154.001 301.749C146.483 301.818 138.912 301.235 132.768 299.812C129.696 299.101 126.998 298.184 124.846 297.044C122.691 295.902 121.12 294.556 120.249 293.005C119.351 291.404 118.543 288.948 117.838 285.82C117.135 282.701 116.542 278.949 116.061 274.777C115.098 266.434 114.581 256.443 114.508 246.546C114.436 236.65 114.807 226.86 115.615 218.92C116.02 214.949 116.532 211.45 117.151 208.635C117.774 205.803 118.493 203.722 119.28 202.542Z" stroke="#535353"/>
<path d="M151.985 296.035L151.985 296.035C138.051 295.868 126.882 293.778 119.741 291.97C119.576 291.601 119.414 291.204 119.255 290.777C131.417 293.952 156.732 298.309 187.799 291.076C187.684 291.478 187.566 291.86 187.446 292.222C174.437 295.198 162.432 296.162 151.985 296.035Z" stroke="#535353"/>
<path d="M117.559 284.484C117.483 284.113 117.41 283.734 117.337 283.347C128.473 286.537 155.565 292.139 189.287 284.041C189.226 284.417 189.164 284.786 189.102 285.15C175.625 288.345 163.191 289.374 152.412 289.247C136.643 289.054 124.407 286.4 117.559 284.484Z" stroke="#535353"/>
<path d="M152.473 283.468L152.473 283.468C135.822 283.275 123.114 280.327 116.524 278.397C116.472 278.025 116.42 277.651 116.37 277.273C126.87 280.406 154.932 286.716 190.078 278.087C190.037 278.458 189.995 278.825 189.951 279.187C176.163 282.533 163.464 283.602 152.473 283.468Z" stroke="#535353"/>
<path d="M152.229 275.325C135.022 275.119 122.022 272.403 115.644 270.754C115.609 270.39 115.575 270.023 115.542 269.656C125.681 272.323 154.548 278.184 190.778 270.432C190.75 270.794 190.723 271.154 190.695 271.511C176.534 274.517 163.482 275.459 152.229 275.325Z" stroke="#535353"/>
<path d="M152.073 267.73L152.073 267.73C135.388 267.531 122.184 265.17 115.091 263.577C115.068 263.219 115.046 262.859 115.025 262.499C126.785 265.174 156.627 270.23 191.23 262.92C191.213 263.276 191.195 263.631 191.178 263.986C177.058 266.949 163.72 267.871 152.073 267.73Z" stroke="#535353"/>
<path d="M149.682 260.427C134.048 260.241 121.651 258.481 114.759 257.234C114.745 256.906 114.733 256.576 114.721 256.244C114.721 256.22 114.72 256.197 114.719 256.173C126.806 258.376 156.799 262.343 191.461 255.863C191.457 256.002 191.454 256.142 191.45 256.281L191.45 256.284C191.445 256.496 191.44 256.708 191.434 256.919C176.261 259.738 161.973 260.574 149.682 260.427Z" stroke="#535353"/>
<path d="M153.93 252.88L153.929 252.88C137.099 252.68 122.83 250.872 114.542 249.552C114.54 249.351 114.537 249.15 114.534 248.949L114.534 248.941C114.532 248.794 114.529 248.648 114.527 248.501C128.417 250.726 159.764 254.422 191.557 249.207C191.555 249.557 191.552 249.907 191.549 250.258C178.554 252.38 165.626 253.02 153.93 252.88Z" stroke="#535353"/>
<path d="M151.565 245.272L151.565 245.272C135.428 245.08 122.027 243.814 114.504 242.936C114.505 242.743 114.506 242.55 114.507 242.357L114.507 242.356C114.508 242.201 114.508 242.045 114.509 241.89C127.603 243.43 159.043 246.192 191.518 242.191C191.52 242.344 191.523 242.497 191.525 242.65L191.525 242.654C191.528 242.846 191.531 243.038 191.533 243.23C177.567 244.944 163.783 245.419 151.565 245.272ZM114.014 241.328C114.012 241.495 114.011 241.663 114.01 241.831L114.513 241.387C114.343 241.367 114.177 241.347 114.014 241.328Z" stroke="#535353"/>
<path d="M150.63 237.881L150.63 237.881C135.21 237.702 122.293 236.534 114.608 235.666C114.619 235.318 114.629 234.97 114.639 234.624C128.421 236.189 159.428 238.739 191.317 234.698C191.33 235.045 191.343 235.392 191.355 235.74C177.127 237.539 163.07 238.028 150.63 237.881Z" stroke="#535353"/>
<path d="M151.416 229.968L151.416 229.968C136.154 229.789 122.912 228.927 114.904 228.287C114.922 227.938 114.942 227.592 114.963 227.247C129.438 228.404 161.183 230.285 190.935 227.545C190.944 227.69 190.953 227.835 190.963 227.98C190.976 228.179 190.989 228.378 191.001 228.579C177.632 229.812 163.856 230.115 151.416 229.968Z" stroke="#535353"/>
<path d="M151.159 223.843C136.307 223.664 123.383 222.855 115.317 222.218C115.345 221.869 115.373 221.523 115.403 221.182C130.146 222.343 161.229 224.11 190.452 221.445C190.485 221.785 190.516 222.129 190.547 222.475C177.237 223.688 163.533 223.99 151.159 223.843Z" stroke="#535353"/>
<path d="M151.789 216.154L151.789 216.154C137.301 215.982 124.335 215.492 116.057 215.116C116.103 214.768 116.151 214.424 116.199 214.085C131.45 214.78 162.475 215.843 189.62 214.633C189.67 214.969 189.719 215.311 189.768 215.658C177.297 216.217 164.009 216.301 151.789 216.154Z" stroke="#535353"/>
<path d="M188.675 209.497C163.471 208.806 132.727 208.81 117.103 208.869C117.18 208.511 117.258 208.164 117.339 207.83C132.983 207.771 163.388 207.77 188.424 208.451C188.509 208.789 188.593 209.137 188.675 209.497Z" stroke="#535353"/>
<path d="M186.559 203.424C161.43 202.45 134.272 202.594 119.119 202.796C119.171 202.709 119.223 202.625 119.275 202.546L119.275 202.546L119.276 202.545C119.448 202.281 119.68 202.016 119.965 201.746C135.095 201.551 161.265 201.434 185.694 202.357C185.869 202.527 186.032 202.704 186.178 202.88C186.305 203.036 186.432 203.218 186.559 203.424Z" stroke="#535353"/>
<path d="M150.209 227.722C152.307 227.847 153.753 229.544 154.704 231.389C155.171 232.296 155.497 233.197 155.706 233.875C155.81 234.213 155.884 234.493 155.933 234.688C155.957 234.785 155.974 234.861 155.986 234.911C155.991 234.937 155.996 234.956 155.998 234.968L156.001 234.981L156.002 234.984L156.002 234.984L156.002 234.984L156.002 234.984L156.155 235.738L156.781 235.292L150.209 227.722ZM150.209 227.722C147.678 227.572 146.014 229.545 144.946 231.801C144.422 232.908 144.069 234.031 143.847 234.881C143.736 235.305 143.658 235.659 143.608 235.905C143.583 236.028 143.565 236.124 143.554 236.189C143.548 236.221 143.544 236.246 143.541 236.262L143.538 236.279L143.538 236.283L143.538 236.284L143.538 236.284L143.538 236.284L143.415 237.062L142.763 236.62L142.763 236.62L142.763 236.62L142.763 236.62M150.209 227.722L142.763 236.62M142.763 236.62L142.761 236.618L142.749 236.611C142.739 236.604 142.722 236.593 142.7 236.578C142.655 236.55 142.588 236.507 142.5 236.454C142.325 236.348 142.067 236.2 141.745 236.036C141.1 235.706 140.205 235.313 139.196 235.056C137.175 234.54 134.802 234.583 132.998 236.612L142.763 236.62ZM136.704 248.09L136.704 248.091L136.704 248.09ZM136.704 248.09L136.7 248.087M136.704 248.09L136.7 248.087M136.7 248.087L136.684 248.074M136.7 248.087L136.684 248.074M136.684 248.074C136.67 248.062 136.648 248.043 136.619 248.018M136.684 248.074L136.619 248.018M136.619 248.018C136.562 247.968 136.477 247.893 136.37 247.795M136.619 248.018L136.37 247.795M136.37 247.795C136.156 247.6 135.854 247.314 135.505 246.954M136.37 247.795L135.505 246.954M135.505 246.954C134.805 246.233 133.926 245.224 133.191 244.064M135.505 246.954L133.191 244.064M133.191 244.064C132.454 242.9 131.882 241.614 131.757 240.335M133.191 244.064L131.757 240.335M131.757 240.335C131.634 239.076 131.94 237.803 132.998 236.613L131.757 240.335ZM136.348 248.974L136.348 248.974L166.761 234.421C168.554 236.625 168.289 239.209 167.511 241.334C167.124 242.392 166.617 243.309 166.206 243.964C166 244.291 165.82 244.55 165.692 244.726C165.628 244.814 165.577 244.882 165.542 244.926C165.525 244.949 165.512 244.965 165.504 244.976L165.495 244.987L165.493 244.99L165.493 244.99L165.493 244.99L165.493 244.99L165.051 245.535L165.711 245.774L165.711 245.774L165.711 245.774L165.712 245.775L165.715 245.776L165.732 245.782C165.747 245.788 165.77 245.797 165.801 245.808C165.862 245.832 165.953 245.867 166.069 245.914C166.301 246.007 166.635 246.148 167.036 246.331C167.839 246.699 168.907 247.239 169.972 247.928C171.039 248.62 172.085 249.45 172.861 250.392C173.635 251.334 174.116 252.357 174.121 253.45C174.127 255.092 173.622 256.296 172.879 257.192C172.128 258.098 171.112 258.717 170.065 259.138C169.018 259.558 167.964 259.772 167.167 259.879C166.769 259.933 166.439 259.96 166.209 259.973C166.095 259.98 166.005 259.983 165.946 259.985C165.931 259.985 165.919 259.986 165.908 259.986C165.896 259.986 165.887 259.986 165.879 259.986L165.864 259.987L165.86 259.987H165.86C165.86 259.987 165.86 259.987 165.86 259.989L165.76 260.974C165.759 260.976 165.759 260.976 165.759 260.976L165.759 260.976L165.76 260.976L165.767 260.978L165.8 260.985C165.831 260.993 165.878 261.004 165.939 261.02C166.061 261.052 166.239 261.104 166.458 261.177C166.898 261.325 167.494 261.563 168.124 261.921C169.389 262.638 170.741 263.812 171.274 265.672L171.274 265.672C171.61 266.84 171.996 269.901 170.674 272.682C169.381 275.402 166.388 277.984 159.698 278.143C156.564 278.216 154.338 277.63 152.755 276.745C151.176 275.863 150.205 274.664 149.608 273.455C149.007 272.241 148.781 271.01 148.707 270.077C148.67 269.611 148.671 269.224 148.681 268.955C148.686 268.821 148.694 268.716 148.7 268.647C148.702 268.612 148.705 268.586 148.707 268.57L148.709 268.552L148.709 268.55L148.709 268.549C148.709 268.549 148.709 268.549 148.705 268.549L147.735 268.355C147.731 268.354 147.731 268.354 147.731 268.354L147.731 268.354L147.73 268.356L147.726 268.37C147.725 268.376 147.722 268.384 147.719 268.394C147.716 268.404 147.713 268.416 147.708 268.429C147.692 268.483 147.666 268.564 147.629 268.669C147.555 268.88 147.439 269.187 147.271 269.563C146.936 270.316 146.398 271.343 145.589 272.432C143.974 274.606 141.282 277.022 136.951 277.999C134.878 278.467 133.202 278.084 131.905 277.252C130.597 276.413 129.64 275.095 129.067 273.651C128.494 272.204 128.321 270.67 128.54 269.433C128.761 268.189 129.351 267.342 130.216 267.051L130.216 267.051C134.38 265.646 136.268 264.309 137.099 263.243C137.523 262.7 137.677 262.22 137.703 261.841C137.716 261.654 137.698 261.5 137.672 261.386C137.659 261.329 137.644 261.281 137.631 261.245C137.624 261.227 137.618 261.211 137.612 261.198L137.605 261.18L137.601 261.173L137.6 261.17L137.599 261.169C137.599 261.168 137.598 261.167 137.15 261.388L137.598 261.167L137.481 260.928L137.218 260.892L137.218 260.892L137.217 260.892L137.217 260.892L137.212 260.892L137.193 260.889C137.175 260.886 137.149 260.882 137.113 260.877C137.043 260.866 136.938 260.849 136.804 260.825C136.535 260.778 136.15 260.704 135.685 260.599C134.755 260.387 133.517 260.049 132.276 259.544C131.03 259.038 129.807 258.374 128.886 257.522C127.971 256.676 127.373 255.666 127.311 254.445L127.311 254.444C127.23 252.906 127.733 251.831 128.511 251.056C129.306 250.264 130.421 249.756 131.596 249.438C132.766 249.121 133.956 249.004 134.859 248.967C135.309 248.949 135.685 248.951 135.946 248.957C136.077 248.96 136.179 248.964 136.248 248.968C136.282 248.97 136.308 248.971 136.325 248.972L136.344 248.973L136.348 248.974L136.348 248.974ZM156.782 235.292L156.782 235.292L156.785 235.29L156.798 235.281C156.81 235.272 156.829 235.259 156.854 235.242C156.904 235.208 156.979 235.158 157.077 235.095C157.272 234.968 157.557 234.792 157.909 234.592C158.616 234.193 159.589 233.708 160.66 233.354C162.839 232.636 165.214 232.523 166.76 234.421L156.782 235.292Z" fill="#D69D66" stroke="#535353"/>
<path d="M135.062 247.927L135.061 247.927L135.061 247.927L135.057 247.926L135.04 247.924C135.025 247.922 135 247.919 134.968 247.915C134.904 247.908 134.809 247.898 134.687 247.887C134.442 247.865 134.091 247.841 133.669 247.833C132.824 247.816 131.712 247.863 130.621 248.108C129.526 248.353 128.494 248.789 127.76 249.518C127.044 250.231 126.568 251.265 126.647 252.812C126.709 254.031 127.305 255.001 128.215 255.789C129.134 256.585 130.355 257.176 131.604 257.61C132.848 258.042 134.088 258.307 135.022 258.464C135.487 258.542 135.874 258.593 136.143 258.625C136.278 258.64 136.383 258.651 136.454 258.658C136.489 258.661 136.516 258.663 136.533 258.665L136.553 258.667L136.557 258.667L136.558 258.667L136.558 258.667L136.558 258.667L136.953 258.698L137.014 259.09L136.519 259.166C137.014 259.09 137.014 259.09 137.014 259.091L137.014 259.092L137.014 259.095L137.015 259.101L137.017 259.119C137.019 259.132 137.021 259.149 137.022 259.169C137.025 259.21 137.027 259.264 137.027 259.33C137.025 259.463 137.011 259.645 136.966 259.868C136.874 260.315 136.655 260.914 136.165 261.592C135.186 262.947 133.15 264.586 128.956 266.001L128.956 266.001C128.074 266.298 127.453 267.135 127.181 268.335C126.911 269.531 127.012 271.005 127.511 272.389C128.009 273.77 128.888 275.025 130.135 275.818C131.37 276.605 133.008 276.965 135.088 276.495C139.432 275.515 142.28 273.199 144.045 271.129C144.928 270.093 145.54 269.118 145.929 268.405C146.123 268.049 146.262 267.759 146.352 267.56C146.396 267.461 146.428 267.384 146.449 267.333C146.459 267.308 146.467 267.289 146.472 267.277L146.476 267.265L146.477 267.263L146.477 267.263C146.477 267.263 146.477 267.263 146.479 267.263L147.442 267.467C147.445 267.467 147.445 267.467 147.445 267.467L147.445 267.467L147.445 267.469L147.444 267.485C147.443 267.499 147.443 267.523 147.442 267.554C147.441 267.617 147.441 267.712 147.444 267.834C147.452 268.079 147.474 268.433 147.538 268.86C147.664 269.715 147.951 270.849 148.587 271.978C149.838 274.197 152.5 276.507 158.3 276.503C161.659 276.502 164.044 275.869 165.728 274.918C167.405 273.972 168.416 272.694 169.007 271.345C170.203 268.617 169.698 265.561 169.357 264.371L169.357 264.371C168.819 262.493 167.613 261.387 166.527 260.744C165.983 260.422 165.472 260.218 165.099 260.095C164.913 260.034 164.762 259.993 164.659 259.968C164.608 259.956 164.569 259.947 164.544 259.942L164.518 259.936L164.513 259.936L164.513 259.935C164.513 259.935 164.513 259.935 164.513 259.934L164.524 258.951C164.524 258.949 164.524 258.949 164.524 258.949L164.524 258.949L164.524 258.949L164.527 258.949L164.542 258.946C164.556 258.944 164.577 258.94 164.605 258.935C164.662 258.925 164.746 258.909 164.855 258.886C165.072 258.841 165.385 258.769 165.762 258.664C166.517 258.453 167.52 258.109 168.52 257.582C170.53 256.523 172.427 254.783 172.461 251.951C172.491 249.443 170.505 247.594 168.309 246.33C167.231 245.708 166.146 245.255 165.328 244.957C164.92 244.808 164.58 244.698 164.344 244.626C164.225 244.59 164.133 244.564 164.071 244.546C164.04 244.538 164.017 244.531 164.001 244.527L163.985 244.523L163.981 244.522L163.98 244.521L163.98 244.521L163.159 244.308L135.062 247.927ZM135.062 247.927L135.062 247.927L136.797 248.169L135.451 247.048L135.451 247.048L135.45 247.047L135.45 247.047L135.446 247.044L135.431 247.031C135.416 247.018 135.394 247 135.366 246.975C135.308 246.925 135.223 246.85 135.116 246.752C134.902 246.557 134.6 246.271 134.251 245.911C133.552 245.189 132.672 244.181 131.938 243.021C131.2 241.856 130.629 240.571 130.504 239.292C130.381 238.033 130.687 236.76 131.744 235.569C133.548 233.54 135.921 233.496 137.943 234.013C138.951 234.27 139.846 234.662 140.492 234.992C140.814 235.157 141.071 235.305 141.247 235.411C141.335 235.464 141.402 235.506 141.446 235.535C141.469 235.549 141.485 235.56 141.496 235.567L141.507 235.575L141.509 235.576L141.509 235.576L141.509 235.576L141.51 235.576L142.213 236.054L142.288 235.207L142.288 235.207L142.288 235.206L142.288 235.206L142.288 235.203L142.29 235.189C142.291 235.176 142.293 235.156 142.296 235.128C142.302 235.074 142.312 234.992 142.327 234.888C142.356 234.678 142.404 234.376 142.479 234.013C142.63 233.284 142.888 232.318 143.316 231.356C144.177 229.418 145.657 227.621 148.233 227.587L148.233 227.587C150.766 227.554 152.194 229.282 153.014 231.174C153.422 232.114 153.663 233.062 153.802 233.779C153.871 234.137 153.914 234.434 153.94 234.641C153.953 234.744 153.962 234.825 153.967 234.878C153.968 234.888 153.969 234.897 153.969 234.904C153.971 234.919 153.972 234.93 153.972 234.938L153.974 234.953L153.974 234.955L153.974 234.955L153.974 234.956L153.974 234.956L154.039 235.835L154.76 235.328L154.76 235.328L154.76 235.328L154.761 235.327L154.764 235.325L154.78 235.314C154.795 235.304 154.817 235.289 154.846 235.269C154.905 235.229 154.992 235.171 155.105 235.098C155.332 234.951 155.661 234.745 156.069 234.51C156.885 234.039 158.007 233.456 159.239 232.999C160.475 232.54 161.793 232.219 163.01 232.246C164.216 232.272 165.299 232.638 166.132 233.532C167.863 235.392 167.389 237.825 166.323 239.969C165.798 241.024 165.152 241.957 164.634 242.629C164.376 242.964 164.151 243.233 163.992 243.416C163.912 243.508 163.849 243.578 163.806 243.625C163.794 243.639 163.783 243.651 163.774 243.661C163.768 243.667 163.762 243.673 163.758 243.678L163.746 243.69L163.744 243.693L163.744 243.693M135.062 247.927L163.744 243.693M163.744 243.693L163.743 243.693L163.744 243.693Z" fill="#FFDFBD" stroke="#535353"/>
<path d="M161.056 268.78L161.058 268.779C161.418 268.47 161.637 268.03 161.775 267.601C161.916 267.166 161.99 266.694 162.028 266.27C162.066 265.849 162.07 265.459 162.065 265.172L163.864 264.996C163.87 265.076 163.876 265.164 163.882 265.26C163.911 265.73 163.936 266.377 163.918 267.089C163.9 267.801 163.839 268.568 163.7 269.278C163.56 269.995 163.347 270.621 163.046 271.078C162.994 271.155 162.84 271.286 162.501 271.426C162.178 271.559 161.748 271.675 161.237 271.768C160.216 271.954 158.929 272.036 157.644 272.005C156.358 271.974 155.102 271.831 154.139 271.58C153.656 271.454 153.269 271.307 152.993 271.146C152.708 270.981 152.604 270.839 152.575 270.752L152.575 270.752C152.42 270.296 152.282 269.322 152.169 267.987C152.058 266.674 151.976 265.072 151.915 263.402C151.793 260.063 151.758 256.475 151.748 254.441L151.745 253.956L151.261 253.944L145.597 253.795L145.094 253.781L145.084 254.284C144.945 261.021 141.966 265.342 139.025 267.986C137.551 269.312 136.085 270.218 134.989 270.791C134.441 271.078 133.987 271.281 133.671 271.412C133.634 271.427 133.598 271.442 133.565 271.455L132.003 268.818C136.836 267.366 139.666 264.62 141.282 261.801C142.958 258.876 143.314 255.898 143.293 254.247L143.287 253.768L142.807 253.754L131.555 253.434L131.26 251.101L146.906 251.075L147.419 251.074L147.405 250.562L146.951 233.697L149.465 233.726L149.372 250.566L149.37 251.069L149.873 251.068L164.05 251.042L163.546 254.252L153.97 253.883L153.462 253.863L153.451 254.372C153.413 256.179 153.602 259.417 153.861 262.308C153.991 263.756 154.14 265.127 154.288 266.198C154.362 266.733 154.437 267.199 154.511 267.564C154.58 267.904 154.66 268.226 154.764 268.42L154.764 268.421C155.018 268.889 155.538 269.156 156.039 269.311C156.564 269.473 157.187 269.551 157.805 269.561C158.425 269.571 159.063 269.514 159.623 269.393C160.167 269.275 160.701 269.083 161.056 268.78Z" fill="#732E1B" stroke="#535353"/>
<path d="M141.48 247.179L133.971 238.919L136.166 236.89L143.116 245.581L141.48 247.179Z" fill="#732E1B" stroke="#535353"/>
<path d="M162.359 239.262L154.658 247.335L153.06 245.699L160.214 237.183L162.359 239.262Z" fill="#732E1B" stroke="#535353"/>
<path opacity="0.2" d="M186.176 202.878L186.176 202.878C187.04 203.94 187.838 205.996 188.533 208.898C189.222 211.776 189.795 215.411 190.249 219.563C191.158 227.864 191.592 238.188 191.564 248.561C191.536 258.934 191.046 269.342 190.112 277.814C189.645 282.05 189.068 285.793 188.384 288.801C187.696 291.827 186.913 294.049 186.064 295.291L186.476 295.573L186.064 295.291C185.506 296.106 184.219 296.943 182.245 297.73C180.296 298.507 177.765 299.203 174.828 299.789C168.955 300.96 161.517 301.68 154.001 301.749C146.483 301.818 138.912 301.235 132.768 299.812C129.696 299.101 126.998 298.184 124.846 297.044C122.691 295.902 121.12 294.556 120.249 293.005C118.894 290.589 117.757 286.256 116.864 280.673C116.295 277.118 115.829 273.081 115.465 268.755C115.982 270.789 116.579 272.712 117.27 274.41C118.021 276.258 118.893 277.864 119.91 279.058C120.929 280.253 122.123 281.068 123.514 281.252L124.091 281.329L124.079 280.746L123.579 280.757C124.079 280.746 124.079 280.746 124.079 280.746L124.079 280.744L124.079 280.735L124.078 280.699L124.076 280.559L124.065 280.011C124.055 279.53 124.042 278.823 124.025 277.918C123.992 276.108 123.946 273.509 123.895 270.349C123.794 264.028 123.675 255.466 123.603 246.498C123.547 239.642 123.519 232.558 123.548 226.059C123.816 231.499 124.254 237.453 124.956 243.434C126.165 253.742 128.161 264.163 131.437 272.171C134.7 280.145 139.315 285.917 145.868 286.545C153.246 287.254 158.45 282.606 162.073 275.289C165.694 267.976 167.813 257.862 169.014 247.286C171.349 226.714 170.225 204.203 169.734 196.624C173.542 197.204 176.98 197.997 179.787 199.011C182.758 200.084 184.961 201.381 186.176 202.878Z" stroke="#535353"/>
<path opacity="0.6" d="M174.764 299.795C175.54 289.75 177.323 259.894 176.177 209.267C176.614 213.496 177.11 218.94 177.574 225.505C178.796 242.762 179.8 267.766 178.941 298.817C177.673 299.17 176.273 299.497 174.764 299.795Z" stroke="#535353"/>
<path opacity="0.1" d="M119.28 202.542L119.28 202.542C119.812 201.743 120.76 200.973 122.104 200.253C123.442 199.536 125.137 198.888 127.116 198.318C131.075 197.177 136.121 196.358 141.616 195.892C152.452 194.973 164.954 195.43 174.163 197.435C174.105 203.647 174.514 210.9 174.945 218.564C175.089 221.117 175.235 223.716 175.368 226.337C175.908 237.015 176.22 248.083 175.213 258.054C174.205 268.035 171.882 276.848 167.206 283.066C162.555 289.25 155.537 292.921 144.978 292.553C136.593 292.26 130.141 286.474 125.179 278.037C120.23 269.622 116.832 258.677 114.526 248.288C114.4 238.106 114.742 227.925 115.546 219.645C115.949 215.497 116.467 211.835 117.098 208.892C117.733 205.931 118.469 203.758 119.28 202.542Z" fill="#FFD766" stroke="#535353"/>
<path d="M174.606 300.33H174.6H174.6H174.6H174.6H174.6H174.6H174.599H174.599H174.599H174.599H174.599H174.599H174.599H174.599H174.599H174.599H174.599H174.599H174.599H174.598H174.598H174.598H174.598H174.598H174.598H174.598H174.598H174.598H174.598H174.598H174.598H174.597H174.597H174.597H174.597H174.597H174.597H174.597H174.597H174.597H174.597H174.597H174.597H174.596H174.596H174.596H174.596H174.596H174.596H174.596H174.596H174.596H174.596H174.596H174.595H174.595H174.595H174.595H174.595H174.595H174.595H174.595H174.595H174.595H174.595H174.595H174.594H174.594H174.594H174.594H174.594H174.594H174.594H174.594H174.594H174.594H174.594H174.593H174.593H174.593H174.593H174.593H174.593H174.593H174.593H174.593H174.593H174.593H174.592H174.592H174.592H174.592H174.592H174.592H174.592H174.592H174.592H174.592H174.592H174.591H174.591H174.591H174.591H174.591H174.591H174.591H174.591H174.591H174.591H174.591H174.59H174.59H174.59H174.59H174.59H174.59H174.59H174.59H174.59H174.59H174.59H174.589H174.589H174.589H174.589H174.589H174.589H174.589H174.589H174.589H174.589H174.588H174.588H174.588H174.588H174.588H174.588H174.588H174.588H174.588H174.588H174.588H174.587H174.587H174.587H174.587H174.587H174.587H174.587H174.587H174.587H174.587H174.586H174.586H174.586H174.586H174.586H174.586H174.586H174.586H174.586H174.586H174.586H174.585H174.585H174.585H174.585H174.585H174.585H174.585H174.585H174.585H174.585H174.584H174.584H174.584H174.584H174.584H174.584H174.584H174.584H174.584H174.584H174.583H174.583H174.583H174.583H174.583H174.583H174.583H174.583H174.583H174.583H174.582H174.582H174.582H174.582H174.582H174.582H174.582H174.582H174.582H174.582H174.582H174.581H174.581H174.581H174.581H174.581H174.581H174.581H174.581H174.581H174.581H174.58H174.58H174.58H174.58H174.58H174.58H174.58H174.58H174.58H174.58H174.579H174.579H174.579H174.579H174.579H174.579H174.579H174.579H174.579H174.579H174.578H174.578H174.578H174.578H174.578H174.578H174.578H174.578H174.578H174.578H174.577H174.577H174.577H174.577H174.577H174.577H174.577H174.577H174.577H174.577H174.576H174.576H174.576H174.576H174.576H174.576H174.576H174.576H174.576H174.576H174.575H174.575H174.575H174.575H174.575H174.575H174.575H174.575H174.575H174.575H174.574H174.574H174.574H174.574H174.574H174.574H174.574H174.574H174.574H174.574H174.573H174.573H174.573H174.573H174.573H174.573H174.573H174.573H174.573H174.573H174.573H174.572H174.572H174.572H174.572H174.572H174.572H174.572H174.572H174.572H174.572H174.571H174.571H174.571H174.571H174.571H174.571H174.571H174.571H174.571H174.571H174.57H174.57H174.57H174.57C174.291 300.307 174.077 300.066 174.09 299.779C176.639 255.166 174.09 197.783 174.063 197.207L174.063 197.207C174.049 196.928 174.269 196.682 174.56 196.667C174.846 196.658 175.089 196.878 175.103 197.166C175.131 197.76 177.676 255.189 175.124 299.846L175.124 299.846L175.123 299.856C175.114 300.115 174.889 300.334 174.606 300.33ZM173.563 197.231L173.563 197.231L173.563 197.231Z" fill="#FFDFBD" stroke="#535353"/>
<path d="M124.47 297.525L124.47 297.527C124.494 297.794 124.716 297.995 124.978 298L124.999 298L125.001 298L125.01 297.998L125.036 297.995C125.327 297.967 125.535 297.713 125.507 297.43L125.507 297.428C121.07 249.579 124.449 199.756 124.51 198.859C124.51 198.855 124.51 198.852 124.51 198.85L124.47 297.525ZM124.47 297.525C120.021 249.597 123.407 199.685 123.468 198.784M124.47 297.525L123.468 198.784M123.468 198.784C123.468 198.781 123.468 198.778 123.469 198.777M123.468 198.784L123.469 198.777M123.469 198.777C123.49 198.492 123.731 198.276 124.028 198.292L123.469 198.777Z" fill="#FFDFBD" stroke="#535353"/>
<mask id="path-30-inside-1" fill="white">
<path d="M14.2056 97.0862C14.2056 97.0528 14.4583 93.5299 16.1124 90.0356C18.291 85.4354 21.7614 83.0566 26.4332 82.9613C26.5285 82.9613 26.6286 82.9565 26.724 82.9565C37.8933 82.9565 39.8001 96.0422 39.8192 96.1757L40.7678 96.0469C40.7488 95.9039 38.6703 81.76 26.4189 82.0031C14.3677 82.2462 13.2713 96.8716 13.2617 97.0194L14.2056 97.0862Z"/>
</mask>
<path d="M14.2056 97.0862C14.2056 97.0528 14.4583 93.5299 16.1124 90.0356C18.291 85.4354 21.7614 83.0566 26.4332 82.9613C26.5285 82.9613 26.6286 82.9565 26.724 82.9565C37.8933 82.9565 39.8001 96.0422 39.8192 96.1757L40.7678 96.0469C40.7488 95.9039 38.6703 81.76 26.4189 82.0031C14.3677 82.2462 13.2713 96.8716 13.2617 97.0194L14.2056 97.0862Z" fill="#FFBB7A"/>
<path d="M14.2056 97.0862H15.2056V98.1594L14.1351 98.0837L14.2056 97.0862ZM16.1124 90.0356L15.2086 89.6078L15.2087 89.6076L16.1124 90.0356ZM26.4332 82.9613L26.4128 81.9615L26.423 81.9613H26.4332V82.9613ZM39.8192 96.1757L39.9536 97.1666L38.9697 97.3001L38.8292 96.3171L39.8192 96.1757ZM40.7678 96.0469L41.7591 95.9148L41.8909 96.9037L40.9023 97.0379L40.7678 96.0469ZM26.4189 82.0031L26.3987 81.0033L26.399 81.0033L26.4189 82.0031ZM13.2617 97.0194L13.1912 98.0169L12.1998 97.9468L12.2638 96.955L13.2617 97.0194ZM13.2056 97.0862C13.2056 96.9722 13.2833 96.0081 13.5589 94.6586C13.8392 93.2862 14.3368 91.4494 15.2086 89.6078L17.0163 90.4635C16.2339 92.1162 15.778 93.788 15.5185 95.0589C15.2542 96.3528 15.2056 97.1668 15.2056 97.0862H13.2056ZM15.2087 89.6076C16.3575 87.1817 17.8744 85.2853 19.7725 83.9843C21.6751 82.6801 23.9051 82.0127 26.4128 81.9615L26.4536 83.9611C24.2895 84.0052 22.4484 84.5748 20.9032 85.634C19.3535 86.6962 18.0459 88.2893 17.0162 90.4636L15.2087 89.6076ZM26.4332 81.9613C26.4666 81.9613 26.5031 81.9604 26.5542 81.9592C26.6008 81.9581 26.662 81.9565 26.724 81.9565V83.9565C26.6906 83.9565 26.6541 83.9574 26.603 83.9586C26.5564 83.9597 26.4952 83.9613 26.4332 83.9613V81.9613ZM26.724 81.9565C32.7905 81.9565 36.3389 85.5442 38.3216 89.0206C40.2892 92.4707 40.7931 95.9218 40.8091 96.0342L38.8292 96.3171C38.8294 96.3181 38.8008 96.1188 38.7294 95.7697C38.658 95.4206 38.5442 94.9236 38.3742 94.3286C38.033 93.1348 37.471 91.5663 36.5842 90.0114C34.8164 86.9117 31.8268 83.9565 26.724 83.9565V81.9565ZM39.6847 95.1847L40.6334 95.056L40.9023 97.0379L39.9536 97.1666L39.6847 95.1847ZM39.7766 96.1791C39.7778 96.1878 39.6539 95.3262 39.2801 94.0364C38.9065 92.7469 38.2903 91.0546 37.3165 89.3837C35.3777 86.0569 32.0839 82.8909 26.4387 83.0029L26.399 81.0033C33.0053 80.8722 36.8765 84.6566 39.0445 88.3767C41.1934 92.064 41.7417 95.7848 41.7591 95.9148L39.7766 96.1791ZM26.4391 83.0029C20.9247 83.1141 17.9119 86.4742 16.2259 89.9804C15.3802 91.739 14.8872 93.5062 14.6056 94.85C14.3242 96.1932 14.2594 97.0874 14.2596 97.0838L12.2638 96.955C12.2719 96.8292 12.5606 92.9876 14.4235 89.1137C16.3009 85.2094 19.8619 81.1352 26.3987 81.0033L26.4391 83.0029ZM13.3322 96.0219L14.2761 96.0887L14.1351 98.0837L13.1912 98.0169L13.3322 96.0219Z" fill="#535353" mask="url(#path-30-inside-1)"/>
<path d="M12.4983 96.9036V96.9037C12.5246 99.0583 12.4043 118.988 12.284 138.916L12.2838 138.954C12.1634 158.905 12.0431 178.842 12.0693 180.986C12.0705 181.089 12.1152 181.222 12.283 181.391C12.4557 181.565 12.734 181.749 13.1337 181.932C13.9322 182.298 15.1035 182.611 16.5518 182.86C19.439 183.355 23.3043 183.577 27.1815 183.531C31.0587 183.484 34.9174 183.17 37.7917 182.606C39.2335 182.323 40.3969 181.982 41.1861 181.597C41.5813 181.405 41.855 181.214 42.0233 181.036C42.1868 180.863 42.2283 180.729 42.227 180.626C42.1975 178.202 42.0024 152.229 41.8329 129.648C41.7037 112.445 41.5893 97.2116 41.5741 95.8564C41.5647 95.8401 41.5325 95.7957 41.4361 95.7257C41.272 95.6065 41.0003 95.4734 40.6068 95.3378C39.8257 95.0687 38.6845 94.8293 37.2829 94.6323C34.4876 94.2394 30.7491 94.0276 27.0052 94.0502C23.2587 94.0727 19.535 94.3298 16.7636 94.8646C15.373 95.133 14.2564 95.4651 13.5016 95.8534C12.7147 96.2582 12.4949 96.6276 12.4983 96.9036ZM41.5776 95.8634C41.5776 95.8634 41.5774 95.8628 41.577 95.8617L41.5776 95.8634Z" fill="#4B9595" stroke="#535353"/>
<path d="M11.5694 180.992C11.5832 182.282 14.3971 183.15 18.3309 183.618C18.3223 183.451 18.3138 183.282 18.3054 183.112M18.3054 183.112C16.4744 182.89 14.9181 182.583 13.7976 182.195C13.1764 181.98 12.7215 181.752 12.4304 181.522C12.1396 181.293 12.0707 181.112 12.0694 180.986L12.0694 180.986C12.0432 178.842 12.1635 158.904 12.2839 138.954L12.2842 138.912C12.4044 118.986 12.5247 99.0582 12.4984 96.9037L12.4984 96.9031C12.4961 96.7314 12.5721 96.5347 12.8212 96.305C13.0765 96.0696 13.4805 95.8334 14.0415 95.609C15.0464 95.2071 16.4512 94.883 18.1202 94.636C17.6454 114.702 17.2836 162.33 18.3054 183.112Z" stroke="#535353"/>
<path d="M51.0921 106.388L51.0921 106.388C50.6272 105.691 49.6761 105.012 48.2581 104.393C46.8543 103.78 45.0559 103.253 42.9776 102.822C38.8226 101.959 33.6084 101.49 28.3298 101.458C23.0511 101.425 17.7307 101.83 13.3626 102.702C11.1783 103.139 9.24503 103.69 7.67916 104.355C6.1057 105.024 4.94465 105.791 4.25855 106.635L4.25842 106.636C3.67383 107.354 3.11831 108.772 2.62941 110.812C2.14619 112.829 1.74437 115.381 1.42491 118.299C0.786205 124.133 0.481201 131.391 0.500832 138.687C0.520462 145.982 0.864662 153.3 1.52111 159.255C1.8494 162.233 2.25485 164.86 2.73431 166.969C3.21787 169.097 3.76423 170.636 4.34512 171.485L3.93249 171.767L4.34513 171.485C4.71098 172.02 5.5794 172.595 6.96448 173.147C8.32438 173.69 10.0962 174.177 12.1581 174.589C16.2795 175.411 21.5038 175.916 26.7851 175.965C32.0684 176.013 37.3831 175.603 41.691 174.606C43.8452 174.107 45.7306 173.466 47.2296 172.671C48.7319 171.876 49.8109 170.945 50.4046 169.888C51.0259 168.78 51.5907 167.069 52.0857 164.872C52.5787 162.684 52.995 160.049 53.3335 157.117C54.0105 151.253 54.3737 144.228 54.4249 137.268C54.476 130.308 54.2151 123.425 53.6468 117.845C53.3626 115.054 53.0024 112.598 52.5685 110.625C52.1308 108.635 51.6298 107.193 51.0921 106.388Z" stroke="#535353"/>
<path d="M51.0921 106.388L51.0921 106.388C50.6272 105.691 49.6761 105.012 48.2581 104.393C46.8543 103.78 45.0559 103.253 42.9776 102.822C38.8226 101.959 33.6084 101.49 28.3298 101.458C23.0511 101.425 17.7307 101.83 13.3626 102.702C11.1783 103.139 9.24503 103.69 7.67916 104.355C6.1057 105.024 4.94465 105.791 4.25855 106.635L4.25842 106.636C3.67383 107.354 3.11831 108.772 2.62941 110.812C2.14619 112.829 1.74437 115.381 1.42491 118.299C0.786205 124.133 0.481201 131.391 0.500832 138.687C0.520462 145.982 0.864662 153.3 1.52111 159.255C1.8494 162.233 2.25485 164.86 2.73431 166.969C3.21787 169.097 3.76423 170.636 4.34512 171.485L3.93249 171.767L4.34513 171.485C4.71098 172.02 5.5794 172.595 6.96448 173.147C8.32438 173.69 10.0962 174.177 12.1581 174.589C16.2795 175.411 21.5038 175.916 26.7851 175.965C32.0684 176.013 37.3831 175.603 41.691 174.606C43.8452 174.107 45.7306 173.466 47.2296 172.671C48.7319 171.876 49.8109 170.945 50.4046 169.888C51.0259 168.78 51.5907 167.069 52.0857 164.872C52.5787 162.684 52.995 160.049 53.3335 157.117C54.0105 151.253 54.3737 144.228 54.4249 137.268C54.476 130.308 54.2151 123.425 53.6468 117.845C53.3626 115.054 53.0024 112.598 52.5685 110.625C52.1308 108.635 51.6298 107.193 51.0921 106.388Z" stroke="#535353"/>
<path d="M28.2003 171.944L28.2004 171.944C37.9459 171.828 45.7661 170.372 50.7847 169.106C50.8544 168.948 50.9235 168.782 50.9917 168.608C42.3476 170.83 24.7585 173.767 3.21484 168.805C3.26418 168.969 3.31425 169.129 3.3646 169.283C12.4744 171.36 20.8819 172.034 28.2003 171.944ZM51.7844 167.882C51.7191 168.08 51.6528 168.27 51.5855 168.453L51.2037 168.037C51.4024 167.985 51.596 167.933 51.7844 167.882Z" stroke="#535353"/>
<path d="M27.9 167.168C38.914 167.033 47.4737 165.19 52.2994 163.846C52.3306 163.69 52.3615 163.533 52.3923 163.373C44.4258 165.624 25.5675 169.424 2.13691 163.849C2.16259 164.004 2.18852 164.159 2.21458 164.312C11.6478 166.539 20.3518 167.257 27.9 167.168Z" stroke="#535353"/>
<path d="M27.8572 163.101L27.8575 163.101C39.4809 162.967 48.3687 160.922 53.0216 159.566C53.0432 159.41 53.0647 159.254 53.086 159.097C45.5373 161.321 25.9962 165.604 1.56893 159.658C1.5862 159.812 1.6039 159.965 1.62205 160.118C11.2723 162.45 20.1609 163.195 27.8572 163.101Z" stroke="#535353"/>
<path d="M28.0289 157.371C40.0328 157.228 49.1215 155.346 53.6365 154.186C53.6508 154.034 53.6651 153.881 53.679 153.727C46.3725 155.626 26.262 159.611 1.06851 154.263C1.08008 154.414 1.09166 154.564 1.10323 154.714C11.0139 156.808 20.1493 157.465 28.0289 157.371Z" stroke="#535353"/>
<path d="M28.1386 152.027L28.1386 152.027C39.7822 151.888 49.0132 150.252 54.0224 149.133C54.0319 148.983 54.041 148.833 54.0499 148.682C45.656 150.573 24.8557 154.028 0.744915 148.975C0.75209 149.124 0.759266 149.272 0.766441 149.419C10.6486 151.483 19.983 152.126 28.1386 152.027Z" stroke="#535353"/>
<path d="M29.8212 146.889L29.8213 146.889C40.7243 146.759 49.3879 145.54 54.2534 144.665C54.2594 144.518 54.2648 144.37 54.2701 144.222C45.6609 145.776 24.7439 148.49 0.577675 144.004C0.578598 144.042 0.579517 144.079 0.580433 144.117L0.580456 144.118C0.583115 144.227 0.58577 144.336 0.588524 144.444C11.2101 146.409 21.2124 146.992 29.8212 146.889Z" stroke="#535353"/>
<path d="M26.8323 141.578L26.8324 141.578C38.5834 141.439 48.5581 140.184 54.4026 139.258C54.404 139.158 54.4055 139.058 54.4069 138.958L54.407 138.952C54.4077 138.908 54.4083 138.863 54.409 138.819C44.569 140.384 22.7092 142.926 0.506454 139.316C0.507389 139.462 0.508583 139.609 0.509903 139.755C9.60212 141.23 18.6456 141.676 26.8323 141.578Z" stroke="#535353"/>
<path d="M28.4959 136.225L28.496 136.225C39.7512 136.09 49.1129 135.214 54.4273 134.597C54.4268 134.506 54.4264 134.414 54.4259 134.323L54.4259 134.322C54.4256 134.268 54.4254 134.214 54.4251 134.159C45.1322 135.244 23.2056 137.143 0.53043 134.372C0.529675 134.423 0.528908 134.475 0.528141 134.527L0.528049 134.533C0.526695 134.624 0.525345 134.714 0.524059 134.805C10.2984 135.997 19.9421 136.328 28.4959 136.225Z" stroke="#535353"/>
<path d="M29.1539 131.024L29.1541 131.024C39.9081 130.899 48.9312 130.09 54.3505 129.482L54.3375 129.045C44.5804 130.146 22.9447 131.901 0.668404 129.1C0.662838 129.245 0.657444 129.39 0.652355 129.536C10.6094 130.786 20.4448 131.127 29.1539 131.024Z" stroke="#535353"/>
<path d="M28.601 125.456L28.601 125.456C39.2451 125.331 48.492 124.734 54.1391 124.285C54.1311 124.139 54.1227 123.994 54.1142 123.849C43.8828 124.662 21.7346 125.96 0.933353 124.06C0.929977 124.112 0.926598 124.164 0.923218 124.216C0.917244 124.308 0.911274 124.4 0.905342 124.492C10.2612 125.349 19.8952 125.559 28.601 125.456Z" stroke="#535353"/>
<path d="M28.7821 121.146C39.1383 121.021 48.1615 120.461 53.8446 120.015C53.8328 119.869 53.8209 119.724 53.8088 119.581C43.3985 120.396 21.7047 121.616 1.2686 119.768C1.25509 119.91 1.24185 120.053 1.22874 120.198C10.5421 121.039 20.1236 121.249 28.7821 121.146Z" stroke="#535353"/>
<path d="M53.3809 115.51C53.3595 115.343 53.3376 115.177 53.3153 115.012C53.4852 115.005 53.6523 114.997 53.8167 114.99C53.8389 115.154 53.8608 115.32 53.8821 115.487C53.7178 115.495 53.5507 115.502 53.3809 115.51ZM53.6866 114.062L53.7096 114.561C53.5606 114.568 53.4093 114.575 53.2558 114.582C53.2346 114.431 53.2132 114.282 53.1918 114.133L53.6866 114.062ZM1.786 115.394C1.76286 115.558 1.73988 115.724 1.71686 115.891C1.54946 115.884 1.38226 115.876 1.21528 115.868C1.23821 115.701 1.26114 115.536 1.28426 115.371C1.45129 115.379 1.61855 115.386 1.786 115.394ZM1.91428 114.525C1.89154 114.671 1.86928 114.818 1.84731 114.968C1.69721 114.961 1.54727 114.954 1.3975 114.947L1.42027 114.448L1.91428 114.525Z" stroke="#535353"/>
<path d="M2.57291 111.046C20.1755 110.568 41.5526 110.568 52.563 110.609C52.5304 110.461 52.4977 110.316 52.4643 110.175C41.4462 110.133 20.2091 110.134 2.6785 110.609C2.64288 110.752 2.60769 110.898 2.57291 111.046Z" stroke="#535353"/>
<path d="M4.15774 106.767C21.6119 106.1 40.4004 106.193 51.0564 106.333C50.9562 106.19 50.8281 106.044 50.6733 105.893C40.0307 105.756 21.6838 105.676 4.54574 106.321C4.44177 106.425 4.34486 106.531 4.25676 106.637C4.22388 106.678 4.19086 106.721 4.15774 106.767Z" stroke="#535353"/>
<path d="M39.2161 139.125L39.2163 139.125L39.2163 139.125L39.2188 139.125L39.231 139.124C39.2423 139.124 39.26 139.123 39.2835 139.121C39.3307 139.119 39.4013 139.116 39.4919 139.114C39.6734 139.11 39.9343 139.108 40.2473 139.121C40.8765 139.147 41.7015 139.228 42.5105 139.447C43.3245 139.667 44.0814 140.016 44.6155 140.548C45.133 141.063 45.4715 141.778 45.4168 142.819L45.4168 142.82C45.3752 143.63 44.9797 144.307 44.3556 144.884C43.7257 145.466 42.8835 145.925 42.0154 146.278C41.1516 146.629 40.2889 146.865 39.6391 147.013C39.3151 147.087 39.0462 147.138 38.8594 147.171C38.766 147.187 38.6932 147.199 38.6445 147.207C38.6301 147.209 38.6179 147.211 38.6078 147.212C38.6007 147.213 38.5947 147.214 38.5898 147.215L38.5768 147.217L38.5741 147.217L38.5738 147.217L38.5736 147.217L38.5736 147.217L38.3102 147.253L38.1929 147.492L38.6416 147.713C38.1929 147.492 38.1925 147.493 38.1922 147.494L38.1914 147.495L38.1899 147.498L38.1867 147.505L38.1797 147.521C38.1747 147.532 38.1693 147.546 38.1636 147.562C38.1523 147.593 38.1402 147.632 38.1296 147.679C38.1084 147.772 38.0939 147.895 38.1041 148.042C38.125 148.341 38.2463 148.707 38.5601 149.109C39.1722 149.895 40.5351 150.847 43.4729 151.838L43.4731 151.838C44.0107 152.019 44.4036 152.553 44.5536 153.4C44.7023 154.239 44.5861 155.291 44.1911 156.287C43.797 157.281 43.1413 158.181 42.252 158.751C41.3738 159.314 40.2354 159.578 38.8137 159.257C35.8083 158.579 33.9421 156.903 32.8219 155.396C32.2604 154.64 31.8871 153.927 31.6549 153.405C31.539 153.144 31.4586 152.932 31.4079 152.787C31.3825 152.715 31.3646 152.659 31.3533 152.623C31.3477 152.605 31.3437 152.592 31.3413 152.584L31.3389 152.576L31.3388 152.575L31.3387 152.575C31.3387 152.575 31.3387 152.575 31.3349 152.576L30.3655 152.77C30.3607 152.77 30.3607 152.77 30.3607 152.77L30.3608 152.771L30.3609 152.771L30.362 152.782C30.3632 152.793 30.3649 152.81 30.3668 152.833C30.3708 152.88 30.3757 152.951 30.3792 153.043C30.3862 153.227 30.387 153.494 30.3615 153.815C30.3103 154.459 30.1543 155.306 29.7425 156.139C29.3336 156.966 28.6703 157.785 27.5882 158.39C26.5028 158.997 24.9641 159.405 22.7791 159.355C18.1142 159.244 16.0665 157.449 15.1856 155.596C14.2761 153.683 14.5423 151.568 14.7719 150.768L14.7719 150.768C15.1325 149.51 16.0482 148.711 16.9193 148.217C17.3524 147.971 17.7633 147.807 18.0657 147.705C18.2164 147.654 18.3389 147.619 18.4219 147.597C18.4634 147.586 18.495 147.579 18.5152 147.574L18.5369 147.569L18.5404 147.568L18.5407 147.568C18.5407 147.568 18.5406 147.568 18.5401 147.566L18.4397 146.581C18.4397 146.579 18.4397 146.579 18.4398 146.579H18.4394L18.4381 146.579L18.4281 146.578C18.4187 146.578 18.4036 146.578 18.3833 146.578C18.3428 146.576 18.2814 146.574 18.2023 146.569C18.0439 146.56 17.8151 146.542 17.5397 146.504C16.9862 146.43 16.2573 146.282 15.5361 145.992C14.8137 145.702 14.1224 145.278 13.6148 144.666C13.1147 144.063 12.7705 143.249 12.7748 142.128C12.7778 141.404 13.0961 140.716 13.6278 140.07C14.1602 139.423 14.8824 138.848 15.6267 138.366C16.3682 137.886 17.1126 137.51 17.6737 137.253C17.9535 137.125 18.1861 137.027 18.3478 136.962C18.4286 136.929 18.4916 136.905 18.5338 136.889L18.5811 136.871L18.5923 136.867L18.5947 136.866L18.5949 136.866L18.5951 136.866L18.5951 136.866L19.2543 136.626L18.8133 136.081L18.8133 136.081L18.8132 136.081L18.813 136.081L18.8122 136.08L18.8064 136.073C18.8008 136.066 18.792 136.054 18.7804 136.039C18.757 136.009 18.722 135.963 18.6777 135.902C18.5892 135.78 18.4641 135.6 18.3216 135.373C18.0356 134.919 17.6845 134.283 17.4167 133.551C16.8771 132.078 16.7068 130.323 17.9206 128.831L39.2161 139.125ZM39.2161 139.125L39.216 139.125L37.6654 139.237L38.8601 138.243L38.8601 138.243L38.8603 138.242L38.8604 138.242L38.8626 138.24L38.8732 138.231C38.8829 138.223 38.8979 138.21 38.9177 138.193C38.9573 138.159 39.016 138.107 39.0903 138.039C39.2391 137.903 39.4495 137.704 39.6926 137.453C40.1807 136.95 40.7919 136.248 41.3017 135.443C41.8141 134.634 42.2037 133.753 42.2886 132.884C42.3714 132.036 42.167 131.183 41.4523 130.378C40.2354 129.009 38.6347 128.971 37.238 129.328C36.5425 129.505 35.9232 129.777 35.4753 130.006C35.2524 130.12 35.0742 130.222 34.9531 130.295C34.8926 130.332 34.8465 130.361 34.8163 130.38C34.8012 130.39 34.79 130.397 34.7831 130.402L34.7759 130.407L34.7751 130.407M39.2161 139.125L34.7751 130.407M34.7751 130.407L34.7748 130.407L34.7747 130.407L34.7751 130.407ZM25.5216 129.163L25.5218 129.162L25.5237 129.153L25.5321 129.115C25.5398 129.08 25.5519 129.028 25.5686 128.961C25.602 128.826 25.6538 128.632 25.7262 128.397C25.8716 127.925 26.0977 127.3 26.4211 126.672C27.0848 125.384 28.0678 124.255 29.4611 124.171L25.5216 129.163ZM25.5216 129.163L25.5215 129.163L25.5215 129.164L25.3685 129.917L24.7419 129.471L24.7418 129.471L24.7417 129.471L24.7416 129.471L24.74 129.47L24.7312 129.464C24.7231 129.458 24.7103 129.449 24.6931 129.438C24.6588 129.414 24.6069 129.38 24.5393 129.336C24.404 129.248 24.2064 129.126 23.9611 128.987C23.4687 128.709 22.7937 128.372 22.0518 128.128C20.5326 127.627 18.9472 127.571 17.9207 128.831L25.5216 129.163ZM34.0003 130.071L34.0003 130.071L33.9999 130.069L33.998 130.057C33.9962 130.047 33.9934 130.03 33.9894 130.008C33.9815 129.963 33.9691 129.897 33.9518 129.811C33.9172 129.64 33.8632 129.394 33.7859 129.099C33.6309 128.506 33.3851 127.725 33.0215 126.957C32.2748 125.38 31.1443 124.072 29.4612 124.171L34.0003 130.071ZM34.0003 130.071L34.0004 130.071L34.0003 130.071Z" fill="#D69D66" stroke="#535353"/>
<path d="M40.131 138.388L40.1311 138.388L40.1312 138.388L40.1332 138.387L40.1444 138.386C40.1549 138.385 40.1713 138.383 40.1932 138.38C40.2371 138.375 40.3029 138.368 40.3876 138.36C40.557 138.345 40.8008 138.329 41.0932 138.323C41.6816 138.311 42.4507 138.344 43.2027 138.513C43.9594 138.682 44.655 138.98 45.1437 139.466C45.6157 139.935 45.937 140.62 45.884 141.671C45.8425 142.479 45.4493 143.126 44.8312 143.661C44.2046 144.204 43.3646 144.613 42.495 144.915C41.6301 145.215 40.7658 145.4 40.1142 145.509C39.7894 145.564 39.5199 145.599 39.3325 145.621C39.2389 145.632 39.166 145.64 39.1171 145.644C39.1003 145.646 39.0864 145.647 39.0754 145.648C39.0705 145.648 39.0661 145.649 39.0624 145.649L39.0494 145.65L39.0466 145.651L39.0464 145.651L39.0462 145.651L39.0462 145.651L38.6509 145.681L38.5907 146.073L39.0849 146.149C38.5907 146.073 38.5906 146.074 38.5905 146.074L38.5903 146.076L38.5899 146.078L38.5891 146.084L38.5872 146.099C38.5859 146.111 38.5846 146.124 38.5834 146.141C38.5809 146.173 38.5791 146.215 38.5797 146.266C38.5808 146.369 38.5915 146.507 38.6258 146.673C38.6946 147.008 38.8568 147.449 39.2141 147.943C39.9271 148.93 41.391 150.097 44.3595 151.099L44.3597 151.099C44.9136 151.286 45.3266 151.819 45.5112 152.634C45.6947 153.444 45.6268 154.453 45.2843 155.403C44.9426 156.352 44.3417 157.205 43.498 157.742C42.6647 158.272 41.5534 158.521 40.1246 158.199C37.1055 157.517 35.1281 155.909 33.9022 154.471C33.2884 153.751 32.8638 153.074 32.5938 152.58C32.459 152.333 32.363 152.132 32.3016 151.995C32.2709 151.927 32.2488 151.874 32.2349 151.84C32.2279 151.823 32.223 151.811 32.22 151.803L32.217 151.795L32.2169 151.795L32.2167 151.795C32.2167 151.795 32.2168 151.795 32.2148 151.796L31.2518 151.999C31.2492 151.999 31.2492 151.999 31.2492 151.999L31.2492 151.999L31.2492 151.999L31.2496 152.009C31.25 152.018 31.2505 152.033 31.2509 152.054C31.2516 152.096 31.2519 152.161 31.2494 152.244C31.2444 152.412 31.2287 152.655 31.1852 152.949C31.0979 153.538 30.9006 154.317 30.4642 155.092C29.6131 156.602 27.7923 158.203 23.759 158.201C21.4131 158.2 19.762 157.758 18.6052 157.105C17.4547 156.455 16.7647 155.582 16.3605 154.66C15.539 152.786 15.8849 150.675 16.121 149.853L16.121 149.853C16.4868 148.577 17.3044 147.826 18.0452 147.387C18.4169 147.167 18.766 147.028 19.021 146.944C19.1481 146.902 19.2506 146.874 19.3193 146.858C19.3536 146.849 19.3793 146.844 19.3954 146.84L19.4119 146.837L19.413 146.837L19.4134 146.837C19.4133 146.837 19.4133 146.837 19.4129 146.835L19.4021 145.852C19.4023 145.85 19.4023 145.85 19.4024 145.85L19.4021 145.85L19.4007 145.85L19.3911 145.849C19.3821 145.847 19.3678 145.845 19.3485 145.841C19.31 145.834 19.2518 145.823 19.1768 145.808C19.0267 145.776 18.8097 145.726 18.5482 145.653C18.0232 145.506 17.3283 145.269 16.6368 144.904C15.2431 144.169 13.9657 142.984 13.9427 141.071C13.9224 139.393 15.2528 138.13 16.7896 137.245C17.539 136.814 18.2941 136.498 18.8644 136.29C19.1488 136.186 19.3852 136.11 19.5494 136.06C19.6314 136.035 19.6953 136.017 19.7379 136.005L19.7856 135.992L19.7967 135.989L19.799 135.988L19.799 135.988L19.7992 135.988L19.7993 135.988L20.6201 135.775L20.036 135.16L20.036 135.16L20.0359 135.16L20.0358 135.16L20.0343 135.158L20.0266 135.15C20.0195 135.142 20.0084 135.13 19.9937 135.114C19.9644 135.082 19.9207 135.033 19.8655 134.97C19.755 134.842 19.5987 134.656 19.419 134.423C19.0582 133.954 18.6098 133.306 18.2463 132.576C17.5021 131.079 17.2058 129.449 18.3564 128.213C18.9085 127.62 19.6284 127.373 20.4478 127.355C21.278 127.337 22.1855 127.556 23.0467 127.876C23.9032 128.194 24.6849 128.6 25.2549 128.929C25.5391 129.092 25.7687 129.236 25.9263 129.338C26.0051 129.389 26.0658 129.429 26.1062 129.457C26.1265 129.47 26.1416 129.481 26.1514 129.488L26.1621 129.495L26.1643 129.497L26.1645 129.497L26.1647 129.497L26.1647 129.497L26.8859 130.004L26.9507 129.125L26.9507 129.125L26.9507 129.125L26.9508 129.124L26.9509 129.123L26.9516 129.114C26.9523 129.106 26.9535 129.092 26.9553 129.074C26.9589 129.037 26.9647 128.982 26.9737 128.911C26.9915 128.768 27.0214 128.562 27.0693 128.314C27.1657 127.816 27.3326 127.16 27.6139 126.512C28.1817 125.203 29.1468 124.055 30.8408 124.077L30.8409 124.077C32.5672 124.099 33.5708 125.298 34.1671 126.641C34.4623 127.305 34.6411 127.974 34.746 128.48C34.7982 128.732 34.8315 128.941 34.8517 129.086C34.8618 129.158 34.8685 129.215 34.8726 129.252C34.8747 129.27 34.8761 129.284 34.877 129.293L34.8779 129.302L34.878 129.303L34.8781 129.303L34.8781 129.303L34.8781 129.304L34.9527 130.151L40.131 138.388ZM40.131 138.388L40.1309 138.388L38.3953 138.63L39.742 137.508L39.742 137.508L39.7422 137.508L39.7423 137.508L39.7445 137.506L39.7551 137.497C39.7648 137.489 39.7798 137.476 39.7996 137.459C39.8391 137.425 39.8979 137.373 39.9722 137.305C40.1209 137.169 40.3313 136.97 40.5745 136.719C41.0626 136.216 41.6738 135.514 42.1836 134.709C42.696 133.9 43.0856 133.019 43.1704 132.15C43.2533 131.302 43.0489 130.449 42.3342 129.644C41.1173 128.275 39.5166 128.237 38.1199 128.594C37.4244 128.771 36.805 129.042 36.3572 129.271C36.1342 129.386 35.9561 129.488 35.835 129.561C35.7745 129.597 35.7284 129.627 35.6981 129.646C35.683 129.656 35.6719 129.663 35.665 129.668L35.6578 129.672L35.6569 129.673L35.6567 129.673L35.6565 129.673L40.131 138.388Z" fill="#FFDFBD" stroke="#535353"/>
<path d="M21.7233 153.027L21.7219 153.026C21.439 152.784 21.2739 152.444 21.1725 152.131C21.0688 151.81 21.0155 151.466 20.988 151.161C20.9663 150.921 20.9599 150.695 20.96 150.51L19.981 150.414C19.9803 150.425 19.9796 150.436 19.9789 150.446C19.9584 150.774 19.9412 151.225 19.9538 151.72C19.9665 152.217 20.009 152.747 20.1047 153.237C20.2015 153.732 20.3464 154.151 20.5434 154.45L20.1262 154.725L20.5432 154.449C20.5546 154.466 20.6289 154.544 20.8593 154.639C21.0738 154.727 21.3647 154.807 21.7189 154.871C22.4251 155 23.3203 155.057 24.2169 155.036C25.115 155.014 25.9865 154.914 26.6494 154.741C26.9822 154.655 27.2407 154.555 27.4189 154.451C27.6061 154.343 27.6432 154.266 27.647 154.255L27.6472 154.254C27.7493 153.954 27.8458 153.286 27.9254 152.344C28.003 151.424 28.0608 150.299 28.1036 149.125C28.1891 146.777 28.2141 144.255 28.2212 142.824L28.2236 142.339L28.7081 142.327L32.6934 142.222L33.196 142.208L33.2064 142.711C33.3032 147.404 35.3762 150.407 37.4206 152.246C38.4466 153.168 39.4674 153.799 40.2306 154.198C40.5869 154.385 40.886 154.52 41.1017 154.611L42.0396 153.028C38.711 151.981 36.7398 150.057 35.6049 148.077C34.4093 145.991 34.1555 143.867 34.1706 142.686L34.1767 142.207L34.6563 142.193L42.4467 141.972L42.6174 140.622L31.7761 140.604L31.2633 140.604L31.2771 140.091L31.5921 128.378L30.1249 128.395L30.1889 140.097L30.1917 140.601L29.688 140.6L19.8863 140.582L20.1936 142.538L26.7999 142.284L27.3084 142.264L27.319 142.773C27.3459 144.053 27.2126 146.338 27.0299 148.373C26.9384 149.394 26.8335 150.361 26.7285 151.118C26.6761 151.496 26.6228 151.827 26.5701 152.088C26.5226 152.324 26.4631 152.572 26.3773 152.731L26.3771 152.732C26.1702 153.114 25.7564 153.317 25.3934 153.429C25.0071 153.549 24.5536 153.605 24.1096 153.612C23.6634 153.619 23.2029 153.578 22.7965 153.49C22.4064 153.406 22.0016 153.264 21.7233 153.027Z" fill="#732E1B" stroke="#535353"/>
<path d="M35.5883 137.502L40.6695 131.912L39.3497 130.692L34.643 136.578L35.5883 137.502Z" fill="#732E1B" stroke="#535353"/>
<path d="M21.1116 132.148L26.3229 137.611L27.2462 136.666L22.4008 130.898L21.1116 132.148Z" fill="#732E1B" stroke="#535353"/>
<path opacity="0.2" d="M4.25874 106.635L4.25845 106.636C3.67387 107.354 3.11834 108.772 2.62945 110.812C2.14622 112.829 1.7444 115.381 1.42495 118.299C0.786236 124.133 0.481232 131.391 0.500866 138.687C0.520496 145.982 0.864697 153.3 1.52114 159.255C1.84943 162.233 2.25488 164.86 2.73434 166.969C3.21791 169.097 3.76426 170.636 4.34515 171.485L3.93252 171.767L4.34517 171.485C4.71101 172.02 5.57943 172.595 6.96452 173.147C8.32441 173.69 10.0963 174.177 12.1581 174.589C16.2795 175.411 21.5039 175.916 26.7852 175.965C32.0684 176.013 37.3831 175.603 41.6911 174.606C43.8452 174.107 45.7307 173.466 47.2296 172.671C48.7319 171.876 49.8109 170.945 50.4047 169.888C51.344 168.213 52.141 165.187 52.7692 161.26C53.0962 159.216 53.375 156.945 53.6058 154.521C53.3506 155.373 53.0718 156.183 52.7673 156.932C52.2355 158.239 51.6149 159.386 50.8847 160.243C50.1532 161.101 49.2825 161.701 48.2558 161.837L47.6784 161.914L47.6903 161.332L48.1902 161.342C47.6903 161.332 47.6903 161.331 47.6903 161.331L47.6903 161.33L47.6904 161.323L47.6909 161.298L47.6929 161.2L47.7005 160.814C47.7071 160.476 47.7166 159.978 47.7284 159.341C47.7518 158.068 47.7842 156.239 47.8198 154.016C47.8909 149.569 47.9747 143.544 48.0257 137.234C48.0514 134.041 48.0687 130.779 48.0717 127.613C47.8946 130.052 47.665 132.571 47.3687 135.096C46.5172 142.354 45.1111 149.703 42.7981 155.357C40.4989 160.976 37.2207 165.112 32.5209 165.563C27.2401 166.069 23.5324 162.733 20.9714 157.561C18.412 152.391 16.918 145.253 16.0727 137.806C14.4465 123.481 15.2022 107.824 15.5538 102.316C12.9529 102.72 10.6085 103.267 8.68947 103.96C6.60781 104.712 5.08795 105.614 4.25874 106.635Z" stroke="#535353"/>
<path opacity="0.6" d="M12.0113 174.555C11.4783 167.568 10.3232 147.893 10.95 114.945C10.7494 117.153 10.5427 119.668 10.3441 122.474C9.4865 134.593 8.78103 152.144 9.37972 173.936C10.1855 174.158 11.0668 174.365 12.0113 174.555Z" stroke="#535353"/>
<path opacity="0.1" d="M51.0919 106.388L51.0917 106.387C50.7368 105.855 50.0939 105.327 49.1583 104.825C48.2289 104.327 47.0472 103.875 45.6604 103.476C42.8873 102.676 39.3468 102.102 35.4863 101.774C27.9172 101.132 19.1964 101.446 12.7456 102.831C12.7803 107.181 12.495 112.247 12.194 117.592C12.0929 119.388 11.99 121.215 11.8969 123.056C11.5171 130.57 11.2982 138.348 12.0053 145.352C12.7134 152.366 14.3442 158.535 17.6104 162.878C20.8507 167.186 25.7413 169.751 33.1276 169.494C38.9529 169.291 43.4558 165.272 46.9367 159.353C50.4053 153.455 52.7912 145.778 54.4123 138.478C54.5009 131.322 54.2602 124.17 53.6953 118.355C53.4121 115.439 53.0482 112.868 52.606 110.805C52.1599 108.723 51.6457 107.218 51.0919 106.388Z" fill="#FFD766" stroke="#535353"/>
<path d="M12.2828 174.967H12.2891H12.2891H12.2892H12.2893H12.2893H12.2894H12.2894H12.2895H12.2895H12.2896H12.2897H12.2897H12.2898H12.2898H12.2899H12.2899H12.29H12.2901H12.2901H12.2902H12.2902H12.2903H12.2903H12.2904H12.2905H12.2905H12.2906H12.2906H12.2907H12.2908H12.2908H12.2909H12.2909H12.291H12.291H12.2911H12.2912H12.2912H12.2913H12.2913H12.2914H12.2915H12.2915H12.2916H12.2916H12.2917H12.2918H12.2918H12.2919H12.2919H12.292H12.2921H12.2921H12.2922H12.2923H12.2923H12.2924H12.2924H12.2925H12.2926H12.2926H12.2927H12.2927H12.2928H12.2929H12.2929H12.293H12.2931H12.2931H12.2932H12.2932H12.2933H12.2934H12.2934H12.2935H12.2936H12.2936H12.2937H12.2937H12.2938H12.2939H12.2939H12.294H12.2941H12.2941H12.2942H12.2943H12.2943H12.2944H12.2944H12.2945H12.2946H12.2946H12.2947H12.2948H12.2948H12.2949H12.295H12.295H12.2951H12.2951H12.2952H12.2953H12.2953H12.2954H12.2955H12.2955H12.2956H12.2957H12.2957H12.2958H12.2959H12.2959H12.296H12.2961H12.2961H12.2962H12.2963H12.2963H12.2964H12.2965H12.2965H12.2966H12.2967H12.2967H12.2968H12.2969H12.2969H12.297H12.297H12.2971H12.2972H12.2972H12.2973H12.2974H12.2974H12.2975H12.2976H12.2976H12.2977H12.2978H12.2979H12.2979H12.298H12.2981H12.2981H12.2982H12.2983H12.2983H12.2984H12.2985H12.2985H12.2986H12.2987H12.2987H12.2988H12.2989H12.2989H12.299H12.2991H12.2991H12.2992H12.2993H12.2993H12.2994H12.2995H12.2995H12.2996H12.2997H12.2997H12.2998H12.2999H12.2999H12.3H12.3001H12.3002H12.3002H12.3003H12.3004H12.3004H12.3005H12.3006H12.3006H12.3007H12.3008H12.3008H12.3009H12.301H12.301H12.3011H12.3012H12.3013H12.3013H12.3014H12.3015H12.3015H12.3016H12.3017H12.3017H12.3018H12.3019H12.3019H12.302H12.3021H12.3022H12.3022H12.3023H12.3024H12.3024H12.3025H12.3026H12.3026H12.3027H12.3028H12.3028H12.3029H12.303H12.3031H12.3031C12.4168 174.954 12.505 174.855 12.5 174.734C10.7062 143.334 12.4999 102.95 12.519 102.545L12.519 102.544C12.5245 102.432 12.4357 102.327 12.3108 102.319C12.1892 102.317 12.0887 102.41 12.083 102.53C12.0632 102.953 10.2733 143.353 12.0684 174.766L12.0685 174.766L12.0689 174.776C12.0726 174.874 12.1606 174.968 12.2828 174.967ZM13.0184 102.568L13.0185 102.568L13.0184 102.568Z" fill="#FFDFBD" stroke="#535353"/>
<path d="M47.205 173.327C47.3148 173.324 47.4057 173.239 47.4156 173.129L47.4158 173.127C50.5452 139.415 48.1635 104.303 48.1207 103.671C48.1206 103.669 48.1205 103.668 48.1204 103.667C48.1114 103.548 48.013 103.457 47.8846 103.463C47.7685 103.473 47.6764 103.575 47.6833 103.7C47.6833 103.701 47.6834 103.702 47.6835 103.704C47.7265 104.338 50.1046 139.405 46.9814 173.086L46.9812 173.088C46.9699 173.205 47.055 173.312 47.1798 173.324L47.205 173.327ZM47.205 173.327L47.2043 173.327L47.193 173.327C47.19 173.327 47.1901 173.327 47.1919 173.327C47.1935 173.327 47.1968 173.327 47.2015 173.327M47.205 173.327L47.2015 173.327M47.2015 173.327L47.2033 173.464L47.2081 173.827L47.2015 173.327Z" fill="#FFDFBD" stroke="#535353"/>
<path d="M27 82.5V-4.5" stroke="#3B8282" stroke-width="3"/>
<path d="M154 169L154 -13" stroke="#3B8282" stroke-width="4"/>
</svg>
